{
	"asset":{
		"generator":"Khronos glTF Blender I/O v4.1.63",
		"version":"2.0"
	},
	"extensionsUsed":[
		"KHR_materials_specular"
	],
	"scene":0,
	"scenes":[
		{
			"extras":{
				"aad_props":{
					"distribute_pattern":1,
					"grid_2d":[
						20,
						20
					],
					"size_2d":[
						2.0,
						2.0
					]
				},
				"batch_export_preferences":{
					"_directory":"\\\\KINGSHIGH.LOCAL\\users\\home\\students\\tyrmat99\\Documents\\Downloads\\Modular Village\\ModularVillageWithColliders\\"
				},
				"gltf_batch_export_preferences":{
					"export_format":1,
					"export_image_format":0
				},
				"sourceFilename":""
			},
			"name":"Scene",
			"nodes":[
				0
			]
		}
	],
	"nodes":[
		{
			"mesh":0,
			"name":"object1.136-col"
		}
	],
	"materials":[
		{
			"doubleSided":true,
			"extensions":{
				"KHR_materials_specular":{
					"specularColorFactor":[
						2.0,
						2.0,
						2.0
					]
				}
			},
			"name":"Stone_Brit_Gray_Light.027",
			"pbrMetallicRoughness":{
				"baseColorFactor":[
					0.5724999904632568,
					0.490200012922287,
					0.42750000953674316,
					1
				],
				"metallicFactor":0
			}
		},
		{
			"doubleSided":true,
			"extensions":{
				"KHR_materials_specular":{
					"specularColorFactor":[
						2.0,
						2.0,
						2.0
					]
				}
			},
			"name":"Dirt.007",
			"pbrMetallicRoughness":{
				"baseColorFactor":[
					0.7685999870300293,
					0.6862999796867371,
					0.5608000159263611,
					1
				],
				"metallicFactor":0
			}
		},
		{
			"doubleSided":true,
			"extensions":{
				"KHR_materials_specular":{
					"specularColorFactor":[
						2.0,
						2.0,
						2.0
					]
				}
			},
			"name":"Stone_Brit_Gray.029",
			"pbrMetallicRoughness":{
				"baseColorFactor":[
					0.486299991607666,
					0.4235000014305115,
					0.3725000023841858,
					1
				],
				"metallicFactor":0
			}
		},
		{
			"doubleSided":true,
			"extensions":{
				"KHR_materials_specular":{
					"specularColorFactor":[
						2.0,
						2.0,
						2.0
					]
				}
			},
			"name":"Stone_Bri_Gray_Lighter.009",
			"pbrMetallicRoughness":{
				"baseColorFactor":[
					0.6626999974250793,
					0.5960999727249146,
					0.5450999736785889,
					1
				],
				"metallicFactor":0
			}
		}
	],
	"meshes":[
		{
			"name":"object1.136",
			"primitives":[
				{
					"attributes":{
						"POSITION":0,
						"NORMAL":1,
						"TEXCOORD_0":2
					},
					"indices":3,
					"material":0
				},
				{
					"attributes":{
						"POSITION":4,
						"NORMAL":5,
						"TEXCOORD_0":6
					},
					"indices":7,
					"material":1
				},
				{
					"attributes":{
						"POSITION":8,
						"NORMAL":9,
						"TEXCOORD_0":10
					},
					"indices":11,
					"material":2
				},
				{
					"attributes":{
						"POSITION":12,
						"NORMAL":13,
						"TEXCOORD_0":14
					},
					"indices":15,
					"material":3
				}
			]
		}
	],
	"accessors":[
		{
			"bufferView":0,
			"componentType":5126,
			"count":194,
			"max":[
				0.19604715704917908,
				0.028125107288360596,
				1.448682427406311
			],
			"min":[
				-1.4902137517929077,
				-3.3705447322063264e-08,
				-0.446442186832428
			],
			"type":"VEC3"
		},
		{
			"bufferView":1,
			"componentType":5126,
			"count":194,
			"type":"VEC3"
		},
		{
			"bufferView":2,
			"componentType":5126,
			"count":194,
			"type":"VEC2"
		},
		{
			"bufferView":3,
			"componentType":5123,
			"count":276,
			"type":"SCALAR"
		},
		{
			"bufferView":4,
			"componentType":5126,
			"count":184,
			"max":[
				0.5,
				1.1324685544877866e-07,
				1.5
			],
			"min":[
				-1.5,
				-0.20000004768371582,
				-0.5
			],
			"type":"VEC3"
		},
		{
			"bufferView":5,
			"componentType":5126,
			"count":184,
			"type":"VEC3"
		},
		{
			"bufferView":6,
			"componentType":5126,
			"count":184,
			"type":"VEC2"
		},
		{
			"bufferView":7,
			"componentType":5123,
			"count":621,
			"type":"SCALAR"
		},
		{
			"bufferView":8,
			"componentType":5126,
			"count":120,
			"max":[
				-1.0634958744049072,
				0.028125111013650894,
				1.490954875946045
			],
			"min":[
				-1.4969388246536255,
				-3.7326906010548555e-08,
				-0.49440982937812805
			],
			"type":"VEC3"
		},
		{
			"bufferView":9,
			"componentType":5126,
			"count":120,
			"type":"VEC3"
		},
		{
			"bufferView":10,
			"componentType":5126,
			"count":120,
			"type":"VEC2"
		},
		{
			"bufferView":11,
			"componentType":5123,
			"count":168,
			"type":"SCALAR"
		},
		{
			"bufferView":12,
			"componentType":5126,
			"count":161,
			"max":[
				-0.4049057364463806,
				0.028125107288360596,
				1.4455498456954956
			],
			"min":[
				-1.4637199640274048,
				-1.8590089467807047e-08,
				-0.24623319506645203
			],
			"type":"VEC3"
		},
		{
			"bufferView":13,
			"componentType":5126,
			"count":161,
			"type":"VEC3"
		},
		{
			"bufferView":14,
			"componentType":5126,
			"count":161,
			"type":"VEC2"
		},
		{
			"bufferView":15,
			"componentType":5123,
			"count":231,
			"type":"SCALAR"
		}
	],
	"bufferViews":[
		{
			"buffer":0,
			"byteLength":2328,
			"byteOffset":0,
			"target":34962
		},
		{
			"buffer":0,
			"byteLength":2328,
			"byteOffset":2328,
			"target":34962
		},
		{
			"buffer":0,
			"byteLength":1552,
			"byteOffset":4656,
			"target":34962
		},
		{
			"buffer":0,
			"byteLength":552,
			"byteOffset":6208,
			"target":34963
		},
		{
			"buffer":0,
			"byteLength":2208,
			"byteOffset":6760,
			"target":34962
		},
		{
			"buffer":0,
			"byteLength":2208,
			"byteOffset":8968,
			"target":34962
		},
		{
			"buffer":0,
			"byteLength":1472,
			"byteOffset":11176,
			"target":34962
		},
		{
			"buffer":0,
			"byteLength":1242,
			"byteOffset":12648,
			"target":34963
		},
		{
			"buffer":0,
			"byteLength":1440,
			"byteOffset":13892,
			"target":34962
		},
		{
			"buffer":0,
			"byteLength":1440,
			"byteOffset":15332,
			"target":34962
		},
		{
			"buffer":0,
			"byteLength":960,
			"byteOffset":16772,
			"target":34962
		},
		{
			"buffer":0,
			"byteLength":336,
			"byteOffset":17732,
			"target":34963
		},
		{
			"buffer":0,
			"byteLength":1932,
			"byteOffset":18068,
			"target":34962
		},
		{
			"buffer":0,
			"byteLength":1932,
			"byteOffset":20000,
			"target":34962
		},
		{
			"buffer":0,
			"byteLength":1288,
			"byteOffset":21932,
			"target":34962
		},
		{
			"buffer":0,
			"byteLength":462,
			"byteOffset":23220,
			"target":34963
		}
	],
	"buffers":[
		{
			"byteLength":23684,
			"uri":"object1_136-col.bin"
		}
	]
}
