{
	"asset":{
		"generator":"Khronos glTF Blender I/O v4.1.63",
		"version":"2.0"
	},
	"extensionsUsed":[
		"KHR_materials_specular"
	],
	"scene":0,
	"scenes":[
		{
			"extras":{
				"aad_props":{
					"distribute_pattern":1,
					"grid_2d":[
						20,
						20
					],
					"size_2d":[
						2.0,
						2.0
					]
				},
				"batch_export_preferences":{
					"_directory":"\\\\KINGSHIGH.LOCAL\\users\\home\\students\\tyrmat99\\Documents\\Downloads\\Modular Village\\ModularVillageWithColliders\\"
				},
				"gltf_batch_export_preferences":{
					"export_format":1,
					"export_image_format":0
				},
				"sourceFilename":""
			},
			"name":"Scene",
			"nodes":[
				0
			]
		}
	],
	"nodes":[
		{
			"mesh":0,
			"name":"object7.013-col"
		}
	],
	"materials":[
		{
			"doubleSided":true,
			"extensions":{
				"KHR_materials_specular":{
					"specularColorFactor":[
						2.0,
						2.0,
						2.0
					]
				}
			},
			"name":"Wood_Dark.035",
			"pbrMetallicRoughness":{
				"baseColorFactor":[
					0.5175999999046326,
					0.4196000099182129,
					0.33329999446868896,
					1
				],
				"metallicFactor":0
			}
		},
		{
			"doubleSided":true,
			"extensions":{
				"KHR_materials_specular":{
					"specularColorFactor":[
						2.0,
						2.0,
						2.0
					]
				}
			},
			"name":"Wood_Medium.024",
			"pbrMetallicRoughness":{
				"baseColorFactor":[
					0.6274999976158142,
					0.5254999995231628,
					0.3961000144481659,
					1
				],
				"metallicFactor":0
			}
		}
	],
	"meshes":[
		{
			"name":"object7.013",
			"primitives":[
				{
					"attributes":{
						"POSITION":0,
						"NORMAL":1,
						"TEXCOORD_0":2
					},
					"indices":3,
					"material":0
				},
				{
					"attributes":{
						"POSITION":4,
						"NORMAL":5,
						"TEXCOORD_0":6
					},
					"indices":7,
					"material":1
				}
			]
		}
	],
	"accessors":[
		{
			"bufferView":0,
			"componentType":5126,
			"count":352,
			"max":[
				0.5,
				1,
				0.5
			],
			"min":[
				-0.5,
				-3.774895063202166e-08,
				-0.5000000596046448
			],
			"type":"VEC3"
		},
		{
			"bufferView":1,
			"componentType":5126,
			"count":352,
			"type":"VEC3"
		},
		{
			"bufferView":2,
			"componentType":5126,
			"count":352,
			"type":"VEC2"
		},
		{
			"bufferView":3,
			"componentType":5123,
			"count":768,
			"type":"SCALAR"
		},
		{
			"bufferView":4,
			"componentType":5126,
			"count":72,
			"max":[
				0.44999998807907104,
				0.9500000476837158,
				0.44999998807907104
			],
			"min":[
				-0.44999998807907104,
				0.04999997094273567,
				-0.4500000476837158
			],
			"type":"VEC3"
		},
		{
			"bufferView":5,
			"componentType":5126,
			"count":72,
			"type":"VEC3"
		},
		{
			"bufferView":6,
			"componentType":5126,
			"count":72,
			"type":"VEC2"
		},
		{
			"bufferView":7,
			"componentType":5123,
			"count":108,
			"type":"SCALAR"
		}
	],
	"bufferViews":[
		{
			"buffer":0,
			"byteLength":4224,
			"byteOffset":0,
			"target":34962
		},
		{
			"buffer":0,
			"byteLength":4224,
			"byteOffset":4224,
			"target":34962
		},
		{
			"buffer":0,
			"byteLength":2816,
			"byteOffset":8448,
			"target":34962
		},
		{
			"buffer":0,
			"byteLength":1536,
			"byteOffset":11264,
			"target":34963
		},
		{
			"buffer":0,
			"byteLength":864,
			"byteOffset":12800,
			"target":34962
		},
		{
			"buffer":0,
			"byteLength":864,
			"byteOffset":13664,
			"target":34962
		},
		{
			"buffer":0,
			"byteLength":576,
			"byteOffset":14528,
			"target":34962
		},
		{
			"buffer":0,
			"byteLength":216,
			"byteOffset":15104,
			"target":34963
		}
	],
	"buffers":[
		{
			"byteLength":15320,
			"uri":"object7_013-col.bin"
		}
	]
}
