{
	"asset":{
		"generator":"Khronos glTF Blender I/O v4.1.63",
		"version":"2.0"
	},
	"extensionsUsed":[
		"KHR_materials_specular"
	],
	"scene":0,
	"scenes":[
		{
			"extras":{
				"aad_props":{
					"distribute_pattern":1,
					"grid_2d":[
						20,
						20
					],
					"size_2d":[
						2.0,
						2.0
					]
				},
				"batch_export_preferences":{
					"_directory":"\\\\KINGSHIGH.LOCAL\\users\\home\\students\\tyrmat99\\Documents\\Downloads\\Modular Village\\ModularVillageWithColliders\\"
				},
				"gltf_batch_export_preferences":{
					"export_format":1,
					"export_image_format":0
				},
				"sourceFilename":""
			},
			"name":"Scene",
			"nodes":[
				0
			]
		}
	],
	"nodes":[
		{
			"mesh":0,
			"name":"object6.011-col"
		}
	],
	"materials":[
		{
			"doubleSided":true,
			"extensions":{
				"KHR_materials_specular":{
					"specularColorFactor":[
						2.0,
						2.0,
						2.0
					]
				}
			},
			"name":"Stone_Brit_Gray.015",
			"pbrMetallicRoughness":{
				"baseColorFactor":[
					0.486299991607666,
					0.4235000014305115,
					0.3725000023841858,
					1
				],
				"metallicFactor":0
			}
		},
		{
			"doubleSided":true,
			"extensions":{
				"KHR_materials_specular":{
					"specularColorFactor":[
						2.0,
						2.0,
						2.0
					]
				}
			},
			"name":"Stone_Bri_Gray_Lighter.003",
			"pbrMetallicRoughness":{
				"baseColorFactor":[
					0.6626999974250793,
					0.5960999727249146,
					0.5450999736785889,
					1
				],
				"metallicFactor":0
			}
		}
	],
	"meshes":[
		{
			"name":"object6.011",
			"primitives":[
				{
					"attributes":{
						"POSITION":0,
						"NORMAL":1,
						"TEXCOORD_0":2
					},
					"indices":3,
					"material":0
				},
				{
					"attributes":{
						"POSITION":4,
						"NORMAL":5,
						"TEXCOORD_0":6
					},
					"indices":7,
					"material":1
				}
			]
		}
	],
	"accessors":[
		{
			"bufferView":0,
			"componentType":5126,
			"count":1144,
			"max":[
				0.625,
				2.269407272338867,
				1.625
			],
			"min":[
				0.375,
				0.34999993443489075,
				-0.6250000596046448
			],
			"type":"VEC3"
		},
		{
			"bufferView":1,
			"componentType":5126,
			"count":1144,
			"type":"VEC3"
		},
		{
			"bufferView":2,
			"componentType":5126,
			"count":1144,
			"type":"VEC2"
		},
		{
			"bufferView":3,
			"componentType":5123,
			"count":1632,
			"type":"SCALAR"
		},
		{
			"bufferView":4,
			"componentType":5126,
			"count":560,
			"max":[
				0.6499999761581421,
				2.3499999046325684,
				1.649999976158142
			],
			"min":[
				0.3499999940395355,
				-0.05000004917383194,
				-0.6500000953674316
			],
			"type":"VEC3"
		},
		{
			"bufferView":5,
			"componentType":5126,
			"count":560,
			"type":"VEC3"
		},
		{
			"bufferView":6,
			"componentType":5126,
			"count":560,
			"type":"VEC2"
		},
		{
			"bufferView":7,
			"componentType":5123,
			"count":948,
			"type":"SCALAR"
		}
	],
	"bufferViews":[
		{
			"buffer":0,
			"byteLength":13728,
			"byteOffset":0,
			"target":34962
		},
		{
			"buffer":0,
			"byteLength":13728,
			"byteOffset":13728,
			"target":34962
		},
		{
			"buffer":0,
			"byteLength":9152,
			"byteOffset":27456,
			"target":34962
		},
		{
			"buffer":0,
			"byteLength":3264,
			"byteOffset":36608,
			"target":34963
		},
		{
			"buffer":0,
			"byteLength":6720,
			"byteOffset":39872,
			"target":34962
		},
		{
			"buffer":0,
			"byteLength":6720,
			"byteOffset":46592,
			"target":34962
		},
		{
			"buffer":0,
			"byteLength":4480,
			"byteOffset":53312,
			"target":34962
		},
		{
			"buffer":0,
			"byteLength":1896,
			"byteOffset":57792,
			"target":34963
		}
	],
	"buffers":[
		{
			"byteLength":59688,
			"uri":"object6_011-col.bin"
		}
	]
}
