{
	"asset":{
		"generator":"Khronos glTF Blender I/O v4.1.63",
		"version":"2.0"
	},
	"extensionsUsed":[
		"KHR_materials_specular"
	],
	"scene":0,
	"scenes":[
		{
			"extras":{
				"aad_props":{
					"distribute_pattern":1,
					"grid_2d":[
						20,
						20
					],
					"size_2d":[
						2.0,
						2.0
					]
				},
				"batch_export_preferences":{
					"_directory":"\\\\KINGSHIGH.LOCAL\\users\\home\\students\\tyrmat99\\Documents\\Downloads\\Modular Village\\ModularVillageWithColliders\\"
				},
				"gltf_batch_export_preferences":{
					"export_format":1,
					"export_image_format":0
				},
				"sourceFilename":""
			},
			"name":"Scene",
			"nodes":[
				0
			]
		}
	],
	"nodes":[
		{
			"mesh":0,
			"name":"object1.139-col"
		}
	],
	"materials":[
		{
			"doubleSided":true,
			"extensions":{
				"KHR_materials_specular":{
					"specularColorFactor":[
						2.0,
						2.0,
						2.0
					]
				}
			},
			"name":"Stone_Brit_Gray.032",
			"pbrMetallicRoughness":{
				"baseColorFactor":[
					0.486299991607666,
					0.4235000014305115,
					0.3725000023841858,
					1
				],
				"metallicFactor":0
			}
		},
		{
			"doubleSided":true,
			"extensions":{
				"KHR_materials_specular":{
					"specularColorFactor":[
						2.0,
						2.0,
						2.0
					]
				}
			},
			"name":"Dirt.010",
			"pbrMetallicRoughness":{
				"baseColorFactor":[
					0.7685999870300293,
					0.6862999796867371,
					0.5608000159263611,
					1
				],
				"metallicFactor":0
			}
		},
		{
			"doubleSided":true,
			"extensions":{
				"KHR_materials_specular":{
					"specularColorFactor":[
						2.0,
						2.0,
						2.0
					]
				}
			},
			"name":"Stone_Brit_Gray_Light.030",
			"pbrMetallicRoughness":{
				"baseColorFactor":[
					0.5724999904632568,
					0.490200012922287,
					0.42750000953674316,
					1
				],
				"metallicFactor":0
			}
		},
		{
			"doubleSided":true,
			"extensions":{
				"KHR_materials_specular":{
					"specularColorFactor":[
						2.0,
						2.0,
						2.0
					]
				}
			},
			"name":"Stone_Bri_Gray_Lighter.012",
			"pbrMetallicRoughness":{
				"baseColorFactor":[
					0.6626999974250793,
					0.5960999727249146,
					0.5450999736785889,
					1
				],
				"metallicFactor":0
			}
		}
	],
	"meshes":[
		{
			"name":"object1.139",
			"primitives":[
				{
					"attributes":{
						"POSITION":0,
						"NORMAL":1,
						"TEXCOORD_0":2
					},
					"indices":3,
					"material":0
				},
				{
					"attributes":{
						"POSITION":4,
						"NORMAL":5,
						"TEXCOORD_0":6
					},
					"indices":7,
					"material":1
				},
				{
					"attributes":{
						"POSITION":8,
						"NORMAL":9,
						"TEXCOORD_0":10
					},
					"indices":11,
					"material":2
				},
				{
					"attributes":{
						"POSITION":12,
						"NORMAL":13,
						"TEXCOORD_0":14
					},
					"indices":15,
					"material":3
				}
			]
		}
	],
	"accessors":[
		{
			"bufferView":0,
			"componentType":5126,
			"count":474,
			"max":[
				0.4909549057483673,
				0.028125111013650894,
				1.4969388246536255
			],
			"min":[
				-1.4944097995758057,
				-3.7262328334009e-08,
				-0.4935544729232788
			],
			"type":"VEC3"
		},
		{
			"bufferView":1,
			"componentType":5126,
			"count":474,
			"type":"VEC3"
		},
		{
			"bufferView":2,
			"componentType":5126,
			"count":474,
			"type":"VEC2"
		},
		{
			"bufferView":3,
			"componentType":5123,
			"count":678,
			"type":"SCALAR"
		},
		{
			"bufferView":4,
			"componentType":5126,
			"count":507,
			"max":[
				0.5,
				1.1324685544877866e-07,
				1.5
			],
			"min":[
				-1.5,
				-0.20000004768371582,
				-0.5
			],
			"type":"VEC3"
		},
		{
			"bufferView":5,
			"componentType":5126,
			"count":507,
			"type":"VEC3"
		},
		{
			"bufferView":6,
			"componentType":5126,
			"count":507,
			"type":"VEC2"
		},
		{
			"bufferView":7,
			"componentType":5123,
			"count":1770,
			"type":"SCALAR"
		},
		{
			"bufferView":8,
			"componentType":5126,
			"count":594,
			"max":[
				0.4972049295902252,
				0.028125111013650894,
				1.4902137517929077
			],
			"min":[
				-1.4916276931762695,
				-3.3765960694154273e-08,
				-0.44724372029304504
			],
			"type":"VEC3"
		},
		{
			"bufferView":9,
			"componentType":5126,
			"count":594,
			"type":"VEC3"
		},
		{
			"bufferView":10,
			"componentType":5126,
			"count":594,
			"type":"VEC2"
		},
		{
			"bufferView":11,
			"componentType":5123,
			"count":864,
			"type":"SCALAR"
		},
		{
			"bufferView":12,
			"componentType":5126,
			"count":438,
			"max":[
				0.49222010374069214,
				0.028125109151005745,
				1.4637199640274048
			],
			"min":[
				-1.4500000476837158,
				-3.3746115235544494e-08,
				-0.4469808340072632
			],
			"type":"VEC3"
		},
		{
			"bufferView":13,
			"componentType":5126,
			"count":438,
			"type":"VEC3"
		},
		{
			"bufferView":14,
			"componentType":5126,
			"count":438,
			"type":"VEC2"
		},
		{
			"bufferView":15,
			"componentType":5123,
			"count":642,
			"type":"SCALAR"
		}
	],
	"bufferViews":[
		{
			"buffer":0,
			"byteLength":5688,
			"byteOffset":0,
			"target":34962
		},
		{
			"buffer":0,
			"byteLength":5688,
			"byteOffset":5688,
			"target":34962
		},
		{
			"buffer":0,
			"byteLength":3792,
			"byteOffset":11376,
			"target":34962
		},
		{
			"buffer":0,
			"byteLength":1356,
			"byteOffset":15168,
			"target":34963
		},
		{
			"buffer":0,
			"byteLength":6084,
			"byteOffset":16524,
			"target":34962
		},
		{
			"buffer":0,
			"byteLength":6084,
			"byteOffset":22608,
			"target":34962
		},
		{
			"buffer":0,
			"byteLength":4056,
			"byteOffset":28692,
			"target":34962
		},
		{
			"buffer":0,
			"byteLength":3540,
			"byteOffset":32748,
			"target":34963
		},
		{
			"buffer":0,
			"byteLength":7128,
			"byteOffset":36288,
			"target":34962
		},
		{
			"buffer":0,
			"byteLength":7128,
			"byteOffset":43416,
			"target":34962
		},
		{
			"buffer":0,
			"byteLength":4752,
			"byteOffset":50544,
			"target":34962
		},
		{
			"buffer":0,
			"byteLength":1728,
			"byteOffset":55296,
			"target":34963
		},
		{
			"buffer":0,
			"byteLength":5256,
			"byteOffset":57024,
			"target":34962
		},
		{
			"buffer":0,
			"byteLength":5256,
			"byteOffset":62280,
			"target":34962
		},
		{
			"buffer":0,
			"byteLength":3504,
			"byteOffset":67536,
			"target":34962
		},
		{
			"buffer":0,
			"byteLength":1284,
			"byteOffset":71040,
			"target":34963
		}
	],
	"buffers":[
		{
			"byteLength":72324,
			"uri":"object1_139-col.bin"
		}
	]
}
