{
	"asset":{
		"generator":"Khronos glTF Blender I/O v4.1.63",
		"version":"2.0"
	},
	"extensionsUsed":[
		"KHR_materials_specular"
	],
	"scene":0,
	"scenes":[
		{
			"extras":{
				"aad_props":{
					"distribute_pattern":1,
					"grid_2d":[
						20,
						20
					],
					"size_2d":[
						2.0,
						2.0
					]
				},
				"batch_export_preferences":{
					"_directory":"\\\\KINGSHIGH.LOCAL\\users\\home\\students\\tyrmat99\\Documents\\Downloads\\Modular Village\\ModularVillageWithColliders\\"
				},
				"gltf_batch_export_preferences":{
					"export_format":1,
					"export_image_format":0
				},
				"sourceFilename":""
			},
			"name":"Scene",
			"nodes":[
				0
			]
		}
	],
	"nodes":[
		{
			"mesh":0,
			"name":"object1.135-col"
		}
	],
	"materials":[
		{
			"doubleSided":true,
			"extensions":{
				"KHR_materials_specular":{
					"specularColorFactor":[
						2.0,
						2.0,
						2.0
					]
				}
			},
			"name":"Dirt.006",
			"pbrMetallicRoughness":{
				"baseColorFactor":[
					0.7685999870300293,
					0.6862999796867371,
					0.5608000159263611,
					1
				],
				"metallicFactor":0
			}
		},
		{
			"doubleSided":true,
			"extensions":{
				"KHR_materials_specular":{
					"specularColorFactor":[
						2.0,
						2.0,
						2.0
					]
				}
			},
			"name":"Stone_Brit_Gray.028",
			"pbrMetallicRoughness":{
				"baseColorFactor":[
					0.486299991607666,
					0.4235000014305115,
					0.3725000023841858,
					1
				],
				"metallicFactor":0
			}
		},
		{
			"doubleSided":true,
			"extensions":{
				"KHR_materials_specular":{
					"specularColorFactor":[
						2.0,
						2.0,
						2.0
					]
				}
			},
			"name":"Stone_Brit_Gray_Light.026",
			"pbrMetallicRoughness":{
				"baseColorFactor":[
					0.5724999904632568,
					0.490200012922287,
					0.42750000953674316,
					1
				],
				"metallicFactor":0
			}
		},
		{
			"doubleSided":true,
			"extensions":{
				"KHR_materials_specular":{
					"specularColorFactor":[
						2.0,
						2.0,
						2.0
					]
				}
			},
			"name":"Stone_Bri_Gray_Lighter.008",
			"pbrMetallicRoughness":{
				"baseColorFactor":[
					0.6626999974250793,
					0.5960999727249146,
					0.5450999736785889,
					1
				],
				"metallicFactor":0
			}
		}
	],
	"meshes":[
		{
			"name":"object1.135",
			"primitives":[
				{
					"attributes":{
						"POSITION":0,
						"NORMAL":1,
						"TEXCOORD_0":2
					},
					"indices":3,
					"material":0
				},
				{
					"attributes":{
						"POSITION":4,
						"NORMAL":5,
						"TEXCOORD_0":6
					},
					"indices":7,
					"material":1
				},
				{
					"attributes":{
						"POSITION":8,
						"NORMAL":9,
						"TEXCOORD_0":10
					},
					"indices":11,
					"material":2
				},
				{
					"attributes":{
						"POSITION":12,
						"NORMAL":13,
						"TEXCOORD_0":14
					},
					"indices":15,
					"material":3
				}
			]
		}
	],
	"accessors":[
		{
			"bufferView":0,
			"componentType":5126,
			"count":206,
			"max":[
				0.5,
				1.1324685544877866e-07,
				1.5
			],
			"min":[
				-1.5,
				-0.20000004768371582,
				-0.5
			],
			"type":"VEC3"
		},
		{
			"bufferView":1,
			"componentType":5126,
			"count":206,
			"type":"VEC3"
		},
		{
			"bufferView":2,
			"componentType":5126,
			"count":206,
			"type":"VEC2"
		},
		{
			"bufferView":3,
			"componentType":5123,
			"count":693,
			"type":"SCALAR"
		},
		{
			"bufferView":4,
			"componentType":5126,
			"count":152,
			"max":[
				0.1479870229959488,
				0.0281250961124897,
				1.2962331771850586
			],
			"min":[
				-1.4935544729232788,
				4.196941461032111e-09,
				0.05559017136693001
			],
			"type":"VEC3"
		},
		{
			"bufferView":5,
			"componentType":5126,
			"count":152,
			"type":"VEC3"
		},
		{
			"bufferView":6,
			"componentType":5126,
			"count":152,
			"type":"VEC2"
		},
		{
			"bufferView":7,
			"componentType":5123,
			"count":216,
			"type":"SCALAR"
		},
		{
			"bufferView":8,
			"componentType":5126,
			"count":279,
			"max":[
				-0.019771909341216087,
				0.02812507376074791,
				1.4916276931762695
			],
			"min":[
				-1.4472436904907227,
				-3.742668042150399e-08,
				-0.4957314133644104
			],
			"type":"VEC3"
		},
		{
			"bufferView":9,
			"componentType":5126,
			"count":279,
			"type":"VEC3"
		},
		{
			"bufferView":10,
			"componentType":5126,
			"count":279,
			"type":"VEC2"
		},
		{
			"bufferView":11,
			"componentType":5123,
			"count":399,
			"type":"SCALAR"
		},
		{
			"bufferView":12,
			"componentType":5126,
			"count":92,
			"max":[
				-0.9532440900802612,
				0.028125107288360596,
				1.4430551528930664
			],
			"min":[
				-1.4469808340072632,
				-1.4887624466553007e-08,
				-0.19719256460666656
			],
			"type":"VEC3"
		},
		{
			"bufferView":13,
			"componentType":5126,
			"count":92,
			"type":"VEC3"
		},
		{
			"bufferView":14,
			"componentType":5126,
			"count":92,
			"type":"VEC2"
		},
		{
			"bufferView":15,
			"componentType":5123,
			"count":132,
			"type":"SCALAR"
		}
	],
	"bufferViews":[
		{
			"buffer":0,
			"byteLength":2472,
			"byteOffset":0,
			"target":34962
		},
		{
			"buffer":0,
			"byteLength":2472,
			"byteOffset":2472,
			"target":34962
		},
		{
			"buffer":0,
			"byteLength":1648,
			"byteOffset":4944,
			"target":34962
		},
		{
			"buffer":0,
			"byteLength":1386,
			"byteOffset":6592,
			"target":34963
		},
		{
			"buffer":0,
			"byteLength":1824,
			"byteOffset":7980,
			"target":34962
		},
		{
			"buffer":0,
			"byteLength":1824,
			"byteOffset":9804,
			"target":34962
		},
		{
			"buffer":0,
			"byteLength":1216,
			"byteOffset":11628,
			"target":34962
		},
		{
			"buffer":0,
			"byteLength":432,
			"byteOffset":12844,
			"target":34963
		},
		{
			"buffer":0,
			"byteLength":3348,
			"byteOffset":13276,
			"target":34962
		},
		{
			"buffer":0,
			"byteLength":3348,
			"byteOffset":16624,
			"target":34962
		},
		{
			"buffer":0,
			"byteLength":2232,
			"byteOffset":19972,
			"target":34962
		},
		{
			"buffer":0,
			"byteLength":798,
			"byteOffset":22204,
			"target":34963
		},
		{
			"buffer":0,
			"byteLength":1104,
			"byteOffset":23004,
			"target":34962
		},
		{
			"buffer":0,
			"byteLength":1104,
			"byteOffset":24108,
			"target":34962
		},
		{
			"buffer":0,
			"byteLength":736,
			"byteOffset":25212,
			"target":34962
		},
		{
			"buffer":0,
			"byteLength":264,
			"byteOffset":25948,
			"target":34963
		}
	],
	"buffers":[
		{
			"byteLength":26212,
			"uri":"object1_135-col.bin"
		}
	]
}
