{
	"asset":{
		"generator":"Khronos glTF Blender I/O v4.1.63",
		"version":"2.0"
	},
	"extensionsUsed":[
		"KHR_materials_specular"
	],
	"scene":0,
	"scenes":[
		{
			"extras":{
				"aad_props":{
					"distribute_pattern":1,
					"grid_2d":[
						20,
						20
					],
					"size_2d":[
						2.0,
						2.0
					]
				},
				"batch_export_preferences":{
					"_directory":"\\\\KINGSHIGH.LOCAL\\users\\home\\students\\tyrmat99\\Documents\\Downloads\\Modular Village\\ModularVillageWithColliders\\"
				},
				"gltf_batch_export_preferences":{
					"export_format":1,
					"export_image_format":0
				},
				"sourceFilename":""
			},
			"name":"Scene",
			"nodes":[
				0
			]
		}
	],
	"nodes":[
		{
			"mesh":0,
			"name":"object1.138-col"
		}
	],
	"materials":[
		{
			"doubleSided":true,
			"extensions":{
				"KHR_materials_specular":{
					"specularColorFactor":[
						2.0,
						2.0,
						2.0
					]
				}
			},
			"name":"Stone_Brit_Gray.031",
			"pbrMetallicRoughness":{
				"baseColorFactor":[
					0.486299991607666,
					0.4235000014305115,
					0.3725000023841858,
					1
				],
				"metallicFactor":0
			}
		},
		{
			"doubleSided":true,
			"extensions":{
				"KHR_materials_specular":{
					"specularColorFactor":[
						2.0,
						2.0,
						2.0
					]
				}
			},
			"name":"Dirt.009",
			"pbrMetallicRoughness":{
				"baseColorFactor":[
					0.7685999870300293,
					0.6862999796867371,
					0.5608000159263611,
					1
				],
				"metallicFactor":0
			}
		},
		{
			"doubleSided":true,
			"extensions":{
				"KHR_materials_specular":{
					"specularColorFactor":[
						2.0,
						2.0,
						2.0
					]
				}
			},
			"name":"Stone_Brit_Gray_Light.029",
			"pbrMetallicRoughness":{
				"baseColorFactor":[
					0.5724999904632568,
					0.490200012922287,
					0.42750000953674316,
					1
				],
				"metallicFactor":0
			}
		},
		{
			"doubleSided":true,
			"extensions":{
				"KHR_materials_specular":{
					"specularColorFactor":[
						2.0,
						2.0,
						2.0
					]
				}
			},
			"name":"Stone_Bri_Gray_Lighter.011",
			"pbrMetallicRoughness":{
				"baseColorFactor":[
					0.6626999974250793,
					0.5960999727249146,
					0.5450999736785889,
					1
				],
				"metallicFactor":0
			}
		}
	],
	"meshes":[
		{
			"name":"object1.138",
			"primitives":[
				{
					"attributes":{
						"POSITION":0,
						"NORMAL":1,
						"TEXCOORD_0":2
					},
					"indices":3,
					"material":0
				},
				{
					"attributes":{
						"POSITION":4,
						"NORMAL":5,
						"TEXCOORD_0":6
					},
					"indices":7,
					"material":1
				},
				{
					"attributes":{
						"POSITION":8,
						"NORMAL":9,
						"TEXCOORD_0":10
					},
					"indices":11,
					"material":2
				},
				{
					"attributes":{
						"POSITION":12,
						"NORMAL":13,
						"TEXCOORD_0":14
					},
					"indices":15,
					"material":3
				}
			]
		}
	],
	"accessors":[
		{
			"bufferView":0,
			"componentType":5126,
			"count":110,
			"max":[
				0.296233206987381,
				0.028125111013650894,
				1.4935544729232788
			],
			"min":[
				-1.490954875946045,
				-3.3974053792462655e-08,
				-0.44999998807907104
			],
			"type":"VEC3"
		},
		{
			"bufferView":1,
			"componentType":5126,
			"count":110,
			"type":"VEC3"
		},
		{
			"bufferView":2,
			"componentType":5126,
			"count":110,
			"type":"VEC2"
		},
		{
			"bufferView":3,
			"componentType":5123,
			"count":156,
			"type":"SCALAR"
		},
		{
			"bufferView":4,
			"componentType":5126,
			"count":180,
			"max":[
				0.5,
				1.1324685544877866e-07,
				1.5
			],
			"min":[
				-1.5,
				-0.20000004768371582,
				-0.5
			],
			"type":"VEC3"
		},
		{
			"bufferView":5,
			"componentType":5126,
			"count":180,
			"type":"VEC3"
		},
		{
			"bufferView":6,
			"componentType":5126,
			"count":180,
			"type":"VEC2"
		},
		{
			"bufferView":7,
			"componentType":5123,
			"count":597,
			"type":"SCALAR"
		},
		{
			"bufferView":8,
			"componentType":5126,
			"count":202,
			"max":[
				-0.4088708162307739,
				0.028125107288360596,
				1.4469683170318604
			],
			"min":[
				-1.4972048997879028,
				-6.794629303641386e-09,
				-0.08999758958816528
			],
			"type":"VEC3"
		},
		{
			"bufferView":9,
			"componentType":5126,
			"count":202,
			"type":"VEC3"
		},
		{
			"bufferView":10,
			"componentType":5126,
			"count":202,
			"type":"VEC2"
		},
		{
			"bufferView":11,
			"componentType":5123,
			"count":288,
			"type":"SCALAR"
		},
		{
			"bufferView":12,
			"componentType":5126,
			"count":161,
			"max":[
				-0.1078544333577156,
				0.028125077486038208,
				1.047863483428955
			],
			"min":[
				-1.4922200441360474,
				-3.500988299265373e-08,
				-0.4637199640274048
			],
			"type":"VEC3"
		},
		{
			"bufferView":13,
			"componentType":5126,
			"count":161,
			"type":"VEC3"
		},
		{
			"bufferView":14,
			"componentType":5126,
			"count":161,
			"type":"VEC2"
		},
		{
			"bufferView":15,
			"componentType":5123,
			"count":231,
			"type":"SCALAR"
		}
	],
	"bufferViews":[
		{
			"buffer":0,
			"byteLength":1320,
			"byteOffset":0,
			"target":34962
		},
		{
			"buffer":0,
			"byteLength":1320,
			"byteOffset":1320,
			"target":34962
		},
		{
			"buffer":0,
			"byteLength":880,
			"byteOffset":2640,
			"target":34962
		},
		{
			"buffer":0,
			"byteLength":312,
			"byteOffset":3520,
			"target":34963
		},
		{
			"buffer":0,
			"byteLength":2160,
			"byteOffset":3832,
			"target":34962
		},
		{
			"buffer":0,
			"byteLength":2160,
			"byteOffset":5992,
			"target":34962
		},
		{
			"buffer":0,
			"byteLength":1440,
			"byteOffset":8152,
			"target":34962
		},
		{
			"buffer":0,
			"byteLength":1194,
			"byteOffset":9592,
			"target":34963
		},
		{
			"buffer":0,
			"byteLength":2424,
			"byteOffset":10788,
			"target":34962
		},
		{
			"buffer":0,
			"byteLength":2424,
			"byteOffset":13212,
			"target":34962
		},
		{
			"buffer":0,
			"byteLength":1616,
			"byteOffset":15636,
			"target":34962
		},
		{
			"buffer":0,
			"byteLength":576,
			"byteOffset":17252,
			"target":34963
		},
		{
			"buffer":0,
			"byteLength":1932,
			"byteOffset":17828,
			"target":34962
		},
		{
			"buffer":0,
			"byteLength":1932,
			"byteOffset":19760,
			"target":34962
		},
		{
			"buffer":0,
			"byteLength":1288,
			"byteOffset":21692,
			"target":34962
		},
		{
			"buffer":0,
			"byteLength":462,
			"byteOffset":22980,
			"target":34963
		}
	],
	"buffers":[
		{
			"byteLength":23444,
			"uri":"object1_138-col.bin"
		}
	]
}
