{
	"asset":{
		"generator":"Khronos glTF Blender I/O v4.1.63",
		"version":"2.0"
	},
	"extensionsUsed":[
		"KHR_materials_specular"
	],
	"scene":0,
	"scenes":[
		{
			"extras":{
				"aad_props":{
					"distribute_pattern":1,
					"grid_2d":[
						20,
						20
					],
					"size_2d":[
						2.0,
						2.0
					]
				},
				"batch_export_preferences":{
					"_directory":"\\\\KINGSHIGH.LOCAL\\users\\home\\students\\tyrmat99\\Documents\\Downloads\\Modular Village\\ModularVillageWithColliders\\"
				},
				"gltf_batch_export_preferences":{
					"export_format":1,
					"export_image_format":0
				},
				"sourceFilename":""
			},
			"name":"Scene",
			"nodes":[
				0
			]
		}
	],
	"nodes":[
		{
			"mesh":0,
			"name":"object6.012-col"
		}
	],
	"materials":[
		{
			"doubleSided":true,
			"extensions":{
				"KHR_materials_specular":{
					"specularColorFactor":[
						2.0,
						2.0,
						2.0
					]
				}
			},
			"name":"Stone_Brit_Gray.022",
			"pbrMetallicRoughness":{
				"baseColorFactor":[
					0.486299991607666,
					0.4235000014305115,
					0.3725000023841858,
					1
				],
				"metallicFactor":0
			}
		},
		{
			"doubleSided":true,
			"extensions":{
				"KHR_materials_specular":{
					"specularColorFactor":[
						2.0,
						2.0,
						2.0
					]
				}
			},
			"name":"Stone_Brit_Gray_Light.021",
			"pbrMetallicRoughness":{
				"baseColorFactor":[
					0.5724999904632568,
					0.490200012922287,
					0.42750000953674316,
					1
				],
				"metallicFactor":0
			}
		}
	],
	"meshes":[
		{
			"name":"object6.012",
			"primitives":[
				{
					"attributes":{
						"POSITION":0,
						"NORMAL":1,
						"TEXCOORD_0":2
					},
					"indices":3,
					"material":0
				},
				{
					"attributes":{
						"POSITION":4,
						"NORMAL":5,
						"TEXCOORD_0":6
					},
					"indices":7,
					"material":1
				}
			]
		}
	],
	"accessors":[
		{
			"bufferView":0,
			"componentType":5126,
			"count":353,
			"max":[
				0.5062500238418579,
				2,
				1.5
			],
			"min":[
				-0.5,
				-3.774895063202166e-08,
				-0.5000001788139343
			],
			"type":"VEC3"
		},
		{
			"bufferView":1,
			"componentType":5126,
			"count":353,
			"type":"VEC3"
		},
		{
			"bufferView":2,
			"componentType":5126,
			"count":353,
			"type":"VEC2"
		},
		{
			"bufferView":3,
			"componentType":5123,
			"count":639,
			"type":"SCALAR"
		},
		{
			"bufferView":4,
			"componentType":5126,
			"count":306,
			"max":[
				0.5062500238418579,
				2,
				1.5
			],
			"min":[
				0.5,
				-1.887447531601083e-08,
				-0.5000001788139343
			],
			"type":"VEC3"
		},
		{
			"bufferView":5,
			"componentType":5126,
			"count":306,
			"type":"VEC3"
		},
		{
			"bufferView":6,
			"componentType":5126,
			"count":306,
			"type":"VEC2"
		},
		{
			"bufferView":7,
			"componentType":5123,
			"count":489,
			"type":"SCALAR"
		}
	],
	"bufferViews":[
		{
			"buffer":0,
			"byteLength":4236,
			"byteOffset":0,
			"target":34962
		},
		{
			"buffer":0,
			"byteLength":4236,
			"byteOffset":4236,
			"target":34962
		},
		{
			"buffer":0,
			"byteLength":2824,
			"byteOffset":8472,
			"target":34962
		},
		{
			"buffer":0,
			"byteLength":1278,
			"byteOffset":11296,
			"target":34963
		},
		{
			"buffer":0,
			"byteLength":3672,
			"byteOffset":12576,
			"target":34962
		},
		{
			"buffer":0,
			"byteLength":3672,
			"byteOffset":16248,
			"target":34962
		},
		{
			"buffer":0,
			"byteLength":2448,
			"byteOffset":19920,
			"target":34962
		},
		{
			"buffer":0,
			"byteLength":978,
			"byteOffset":22368,
			"target":34963
		}
	],
	"buffers":[
		{
			"byteLength":23348,
			"uri":"object6_012-col.bin"
		}
	]
}
