{
	"asset":{
		"generator":"Khronos glTF Blender I/O v4.1.63",
		"version":"2.0"
	},
	"extensionsUsed":[
		"KHR_materials_specular"
	],
	"scene":0,
	"scenes":[
		{
			"extras":{
				"aad_props":{
					"distribute_pattern":1,
					"grid_2d":[
						20,
						20
					],
					"size_2d":[
						2.0,
						2.0
					]
				},
				"batch_export_preferences":{
					"_directory":"\\\\KINGSHIGH.LOCAL\\users\\home\\students\\tyrmat99\\Documents\\Downloads\\Modular Village\\ModularVillageWithColliders\\"
				},
				"gltf_batch_export_preferences":{
					"export_format":1,
					"export_image_format":0
				},
				"sourceFilename":""
			},
			"name":"Scene",
			"nodes":[
				0
			]
		}
	],
	"nodes":[
		{
			"mesh":0,
			"name":"object1.080-col"
		}
	],
	"materials":[
		{
			"doubleSided":true,
			"extensions":{
				"KHR_materials_specular":{
					"specularColorFactor":[
						2.0,
						2.0,
						2.0
					]
				}
			},
			"name":"Red_Roof.005",
			"pbrMetallicRoughness":{
				"baseColorFactor":[
					0.5764999985694885,
					0.26669999957084656,
					0.19220000505447388,
					1
				],
				"metallicFactor":0
			}
		},
		{
			"doubleSided":true,
			"extensions":{
				"KHR_materials_specular":{
					"specularColorFactor":[
						2.0,
						2.0,
						2.0
					]
				}
			},
			"name":"Dark_Red_Roof.005",
			"pbrMetallicRoughness":{
				"baseColorFactor":[
					0.4235000014305115,
					0.18039999902248383,
					0.11760000139474869,
					1
				],
				"metallicFactor":0
			}
		},
		{
			"doubleSided":true,
			"extensions":{
				"KHR_materials_specular":{
					"specularColorFactor":[
						2.0,
						2.0,
						2.0
					]
				}
			},
			"name":"Stucco.025",
			"pbrMetallicRoughness":{
				"baseColorFactor":[
					0.9373000264167786,
					0.89410001039505,
					0.819599986076355,
					1
				],
				"metallicFactor":0
			}
		},
		{
			"doubleSided":true,
			"extensions":{
				"KHR_materials_specular":{
					"specularColorFactor":[
						2.0,
						2.0,
						2.0
					]
				}
			},
			"name":"Wood_Darker.050",
			"pbrMetallicRoughness":{
				"baseColorFactor":[
					0.38429999351501465,
					0.31369999051094055,
					0.25099998712539673,
					1
				],
				"metallicFactor":0
			}
		}
	],
	"meshes":[
		{
			"name":"object1.080",
			"primitives":[
				{
					"attributes":{
						"POSITION":0,
						"NORMAL":1,
						"TEXCOORD_0":2
					},
					"indices":3,
					"material":0
				},
				{
					"attributes":{
						"POSITION":4,
						"NORMAL":5,
						"TEXCOORD_0":6
					},
					"indices":7,
					"material":1
				},
				{
					"attributes":{
						"POSITION":8,
						"NORMAL":9,
						"TEXCOORD_0":10
					},
					"indices":11,
					"material":2
				},
				{
					"attributes":{
						"POSITION":12,
						"NORMAL":13,
						"TEXCOORD_0":14
					},
					"indices":15,
					"material":3
				}
			]
		}
	],
	"accessors":[
		{
			"bufferView":0,
			"componentType":5126,
			"count":63,
			"max":[
				0.5707106590270996,
				1.2000000476837158,
				0.2499999701976776
			],
			"min":[
				-0.5,
				0.19999995827674866,
				-0.5000000596046448
			],
			"type":"VEC3"
		},
		{
			"bufferView":1,
			"componentType":5126,
			"count":63,
			"type":"VEC3"
		},
		{
			"bufferView":2,
			"componentType":5126,
			"count":63,
			"type":"VEC2"
		},
		{
			"bufferView":3,
			"componentType":5123,
			"count":93,
			"type":"SCALAR"
		},
		{
			"bufferView":4,
			"componentType":5126,
			"count":177,
			"max":[
				0.8092964887619019,
				1.2000000476837158,
				0.5
			],
			"min":[
				-0.5,
				-0.12333337962627411,
				-0.7000001072883606
			],
			"type":"VEC3"
		},
		{
			"bufferView":5,
			"componentType":5126,
			"count":177,
			"type":"VEC3"
		},
		{
			"bufferView":6,
			"componentType":5126,
			"count":177,
			"type":"VEC2"
		},
		{
			"bufferView":7,
			"componentType":5123,
			"count":264,
			"type":"SCALAR"
		},
		{
			"bufferView":8,
			"componentType":5126,
			"count":37,
			"max":[
				0.7400000095367432,
				1.2000000476837158,
				0.5
			],
			"min":[
				-0.5,
				-0.24950942397117615,
				-0.7000001072883606
			],
			"type":"VEC3"
		},
		{
			"bufferView":9,
			"componentType":5126,
			"count":37,
			"type":"VEC3"
		},
		{
			"bufferView":10,
			"componentType":5126,
			"count":37,
			"type":"VEC2"
		},
		{
			"bufferView":11,
			"componentType":5123,
			"count":81,
			"type":"SCALAR"
		},
		{
			"bufferView":12,
			"componentType":5126,
			"count":12,
			"max":[
				0.5,
				1.0333333015441895,
				-0.4999999701976776
			],
			"min":[
				-0.5,
				-0.24950942397117615,
				-0.6000000834465027
			],
			"type":"VEC3"
		},
		{
			"bufferView":13,
			"componentType":5126,
			"count":12,
			"type":"VEC3"
		},
		{
			"bufferView":14,
			"componentType":5126,
			"count":12,
			"type":"VEC2"
		},
		{
			"bufferView":15,
			"componentType":5123,
			"count":18,
			"type":"SCALAR"
		}
	],
	"bufferViews":[
		{
			"buffer":0,
			"byteLength":756,
			"byteOffset":0,
			"target":34962
		},
		{
			"buffer":0,
			"byteLength":756,
			"byteOffset":756,
			"target":34962
		},
		{
			"buffer":0,
			"byteLength":504,
			"byteOffset":1512,
			"target":34962
		},
		{
			"buffer":0,
			"byteLength":186,
			"byteOffset":2016,
			"target":34963
		},
		{
			"buffer":0,
			"byteLength":2124,
			"byteOffset":2204,
			"target":34962
		},
		{
			"buffer":0,
			"byteLength":2124,
			"byteOffset":4328,
			"target":34962
		},
		{
			"buffer":0,
			"byteLength":1416,
			"byteOffset":6452,
			"target":34962
		},
		{
			"buffer":0,
			"byteLength":528,
			"byteOffset":7868,
			"target":34963
		},
		{
			"buffer":0,
			"byteLength":444,
			"byteOffset":8396,
			"target":34962
		},
		{
			"buffer":0,
			"byteLength":444,
			"byteOffset":8840,
			"target":34962
		},
		{
			"buffer":0,
			"byteLength":296,
			"byteOffset":9284,
			"target":34962
		},
		{
			"buffer":0,
			"byteLength":162,
			"byteOffset":9580,
			"target":34963
		},
		{
			"buffer":0,
			"byteLength":144,
			"byteOffset":9744,
			"target":34962
		},
		{
			"buffer":0,
			"byteLength":144,
			"byteOffset":9888,
			"target":34962
		},
		{
			"buffer":0,
			"byteLength":96,
			"byteOffset":10032,
			"target":34962
		},
		{
			"buffer":0,
			"byteLength":36,
			"byteOffset":10128,
			"target":34963
		}
	],
	"buffers":[
		{
			"byteLength":10164,
			"uri":"object1_080-col.bin"
		}
	]
}
