{
	"asset":{
		"generator":"Khronos glTF Blender I/O v4.1.63",
		"version":"2.0"
	},
	"extensionsUsed":[
		"KHR_materials_specular"
	],
	"scene":0,
	"scenes":[
		{
			"extras":{
				"aad_props":{
					"distribute_pattern":1,
					"grid_2d":[
						20,
						20
					],
					"size_2d":[
						2.0,
						2.0
					]
				},
				"batch_export_preferences":{
					"_directory":"\\\\KINGSHIGH.LOCAL\\users\\home\\students\\tyrmat99\\Documents\\Downloads\\Modular Village\\ModularVillageWithColliders\\"
				},
				"gltf_batch_export_preferences":{
					"export_format":1,
					"export_image_format":0
				},
				"sourceFilename":""
			},
			"name":"Scene",
			"nodes":[
				0
			]
		}
	],
	"nodes":[
		{
			"mesh":0,
			"name":"object5.023-col"
		}
	],
	"materials":[
		{
			"doubleSided":true,
			"extensions":{
				"KHR_materials_specular":{
					"specularColorFactor":[
						2.0,
						2.0,
						2.0
					]
				}
			},
			"name":"Red_Roof.023",
			"pbrMetallicRoughness":{
				"baseColorFactor":[
					0.5764999985694885,
					0.26669999957084656,
					0.19220000505447388,
					1
				],
				"metallicFactor":0
			}
		},
		{
			"doubleSided":true,
			"extensions":{
				"KHR_materials_specular":{
					"specularColorFactor":[
						2.0,
						2.0,
						2.0
					]
				}
			},
			"name":"Dark_Red_Roof.023",
			"pbrMetallicRoughness":{
				"baseColorFactor":[
					0.4235000014305115,
					0.18039999902248383,
					0.11760000139474869,
					1
				],
				"metallicFactor":0
			}
		},
		{
			"doubleSided":true,
			"extensions":{
				"KHR_materials_specular":{
					"specularColorFactor":[
						2.0,
						2.0,
						2.0
					]
				}
			},
			"name":"Stucco.042",
			"pbrMetallicRoughness":{
				"baseColorFactor":[
					0.9373000264167786,
					0.89410001039505,
					0.819599986076355,
					1
				],
				"metallicFactor":0
			}
		},
		{
			"doubleSided":true,
			"extensions":{
				"KHR_materials_specular":{
					"specularColorFactor":[
						2.0,
						2.0,
						2.0
					]
				}
			},
			"name":"Window.013",
			"pbrMetallicRoughness":{
				"baseColorFactor":[
					0.6588000059127808,
					0.7059000134468079,
					0.7764999866485596,
					1
				],
				"metallicFactor":0
			}
		}
	],
	"meshes":[
		{
			"name":"object5.023",
			"primitives":[
				{
					"attributes":{
						"POSITION":0,
						"NORMAL":1,
						"TEXCOORD_0":2
					},
					"indices":3,
					"material":0
				},
				{
					"attributes":{
						"POSITION":4,
						"NORMAL":5,
						"TEXCOORD_0":6
					},
					"indices":7,
					"material":1
				},
				{
					"attributes":{
						"POSITION":8,
						"NORMAL":9,
						"TEXCOORD_0":10
					},
					"indices":11,
					"material":2
				},
				{
					"attributes":{
						"POSITION":12,
						"NORMAL":13,
						"TEXCOORD_0":14
					},
					"indices":15,
					"material":3
				}
			]
		}
	],
	"accessors":[
		{
			"bufferView":0,
			"componentType":5126,
			"count":164,
			"max":[
				0.699999988079071,
				3.200000047683716,
				1.7399998903274536
			],
			"min":[
				-0.5,
				1.8766666650772095,
				-0.7400001287460327
			],
			"type":"VEC3"
		},
		{
			"bufferView":1,
			"componentType":5126,
			"count":164,
			"type":"VEC3"
		},
		{
			"bufferView":2,
			"componentType":5126,
			"count":164,
			"type":"VEC2"
		},
		{
			"bufferView":3,
			"componentType":5123,
			"count":270,
			"type":"SCALAR"
		},
		{
			"bufferView":4,
			"componentType":5126,
			"count":335,
			"max":[
				0.699999988079071,
				3.200000047683716,
				1.8092963695526123
			],
			"min":[
				-0.5,
				-3.774895063202166e-08,
				-0.8092966079711914
			],
			"type":"VEC3"
		},
		{
			"bufferView":5,
			"componentType":5126,
			"count":335,
			"type":"VEC3"
		},
		{
			"bufferView":6,
			"componentType":5126,
			"count":335,
			"type":"VEC2"
		},
		{
			"bufferView":7,
			"componentType":5123,
			"count":501,
			"type":"SCALAR"
		},
		{
			"bufferView":8,
			"componentType":5126,
			"count":51,
			"max":[
				0.5,
				3.0333333015441895,
				1.5
			],
			"min":[
				-0.5,
				-3.774895063202166e-08,
				-0.5000001788139343
			],
			"type":"VEC3"
		},
		{
			"bufferView":9,
			"componentType":5126,
			"count":51,
			"type":"VEC3"
		},
		{
			"bufferView":10,
			"componentType":5126,
			"count":51,
			"type":"VEC2"
		},
		{
			"bufferView":11,
			"componentType":5123,
			"count":111,
			"type":"SCALAR"
		},
		{
			"bufferView":12,
			"componentType":5126,
			"count":4,
			"max":[
				0.4749999940395355,
				1.9500001668930054,
				0.7999999523162842
			],
			"min":[
				0.4749999940395355,
				1.149999976158142,
				0.1999998539686203
			],
			"type":"VEC3"
		},
		{
			"bufferView":13,
			"componentType":5126,
			"count":4,
			"type":"VEC3"
		},
		{
			"bufferView":14,
			"componentType":5126,
			"count":4,
			"type":"VEC2"
		},
		{
			"bufferView":15,
			"componentType":5123,
			"count":6,
			"type":"SCALAR"
		}
	],
	"bufferViews":[
		{
			"buffer":0,
			"byteLength":1968,
			"byteOffset":0,
			"target":34962
		},
		{
			"buffer":0,
			"byteLength":1968,
			"byteOffset":1968,
			"target":34962
		},
		{
			"buffer":0,
			"byteLength":1312,
			"byteOffset":3936,
			"target":34962
		},
		{
			"buffer":0,
			"byteLength":540,
			"byteOffset":5248,
			"target":34963
		},
		{
			"buffer":0,
			"byteLength":4020,
			"byteOffset":5788,
			"target":34962
		},
		{
			"buffer":0,
			"byteLength":4020,
			"byteOffset":9808,
			"target":34962
		},
		{
			"buffer":0,
			"byteLength":2680,
			"byteOffset":13828,
			"target":34962
		},
		{
			"buffer":0,
			"byteLength":1002,
			"byteOffset":16508,
			"target":34963
		},
		{
			"buffer":0,
			"byteLength":612,
			"byteOffset":17512,
			"target":34962
		},
		{
			"buffer":0,
			"byteLength":612,
			"byteOffset":18124,
			"target":34962
		},
		{
			"buffer":0,
			"byteLength":408,
			"byteOffset":18736,
			"target":34962
		},
		{
			"buffer":0,
			"byteLength":222,
			"byteOffset":19144,
			"target":34963
		},
		{
			"buffer":0,
			"byteLength":48,
			"byteOffset":19368,
			"target":34962
		},
		{
			"buffer":0,
			"byteLength":48,
			"byteOffset":19416,
			"target":34962
		},
		{
			"buffer":0,
			"byteLength":32,
			"byteOffset":19464,
			"target":34962
		},
		{
			"buffer":0,
			"byteLength":12,
			"byteOffset":19496,
			"target":34963
		}
	],
	"buffers":[
		{
			"byteLength":19508,
			"uri":"object5_023-col.bin"
		}
	]
}
