{
	"asset":{
		"generator":"Khronos glTF Blender I/O v4.1.63",
		"version":"2.0"
	},
	"extensionsUsed":[
		"KHR_materials_specular"
	],
	"scene":0,
	"scenes":[
		{
			"extras":{
				"aad_props":{
					"distribute_pattern":1,
					"grid_2d":[
						20,
						20
					],
					"size_2d":[
						2.0,
						2.0
					]
				},
				"batch_export_preferences":{
					"_directory":"\\\\KINGSHIGH.LOCAL\\users\\home\\students\\tyrmat99\\Documents\\Downloads\\Modular Village\\ModularVillageWithColliders\\"
				},
				"gltf_batch_export_preferences":{
					"export_format":1,
					"export_image_format":0
				},
				"sourceFilename":""
			},
			"name":"Scene",
			"nodes":[
				0
			]
		}
	],
	"nodes":[
		{
			"mesh":0,
			"name":"waterwheel-col"
		}
	],
	"materials":[
		{
			"doubleSided":true,
			"extensions":{
				"KHR_materials_specular":{
					"specularColorFactor":[
						2.0,
						2.0,
						2.0
					]
				}
			},
			"name":"Wood_Dark.011",
			"pbrMetallicRoughness":{
				"baseColorFactor":[
					0.5175999999046326,
					0.4196000099182129,
					0.33329999446868896,
					1
				],
				"metallicFactor":0
			}
		},
		{
			"doubleSided":true,
			"extensions":{
				"KHR_materials_specular":{
					"specularColorFactor":[
						2.0,
						2.0,
						2.0
					]
				}
			},
			"name":"Wood_Medium.001",
			"pbrMetallicRoughness":{
				"baseColorFactor":[
					0.6274999976158142,
					0.5254999995231628,
					0.3961000144481659,
					1
				],
				"metallicFactor":0
			}
		},
		{
			"doubleSided":true,
			"extensions":{
				"KHR_materials_specular":{
					"specularColorFactor":[
						2.0,
						2.0,
						2.0
					]
				}
			},
			"name":"Wood_Darker.018",
			"pbrMetallicRoughness":{
				"baseColorFactor":[
					0.38429999351501465,
					0.31369999051094055,
					0.25099998712539673,
					1
				],
				"metallicFactor":0
			}
		}
	],
	"meshes":[
		{
			"name":"waterwheel",
			"primitives":[
				{
					"attributes":{
						"POSITION":0,
						"NORMAL":1,
						"TEXCOORD_0":2
					},
					"indices":3,
					"material":0
				},
				{
					"attributes":{
						"POSITION":4,
						"NORMAL":5,
						"TEXCOORD_0":6
					},
					"indices":7,
					"material":1
				},
				{
					"attributes":{
						"POSITION":8,
						"NORMAL":9,
						"TEXCOORD_0":10
					},
					"indices":11,
					"material":2
				}
			]
		}
	],
	"accessors":[
		{
			"bufferView":0,
			"componentType":5126,
			"count":1280,
			"max":[
				0.40909093618392944,
				2.1212120056152344,
				2.1212120056152344
			],
			"min":[
				-0.40909093618392944,
				-2.1212120056152344,
				-2.1212122440338135
			],
			"type":"VEC3"
		},
		{
			"bufferView":1,
			"componentType":5126,
			"count":1280,
			"type":"VEC3"
		},
		{
			"bufferView":2,
			"componentType":5126,
			"count":1280,
			"type":"VEC2"
		},
		{
			"bufferView":3,
			"componentType":5123,
			"count":2400,
			"type":"SCALAR"
		},
		{
			"bufferView":4,
			"componentType":5126,
			"count":984,
			"max":[
				0.5,
				2.197662115097046,
				2.197662115097046
			],
			"min":[
				-0.31534093618392944,
				-2.197662115097046,
				-2.197662353515625
			],
			"type":"VEC3"
		},
		{
			"bufferView":5,
			"componentType":5126,
			"count":984,
			"type":"VEC3"
		},
		{
			"bufferView":6,
			"componentType":5126,
			"count":984,
			"type":"VEC2"
		},
		{
			"bufferView":7,
			"componentType":5123,
			"count":1728,
			"type":"SCALAR"
		},
		{
			"bufferView":8,
			"componentType":5126,
			"count":129,
			"max":[
				0.44999998807907104,
				0.3850000202655792,
				0.38499996066093445
			],
			"min":[
				-1,
				-0.3850000202655792,
				-0.385000079870224
			],
			"type":"VEC3"
		},
		{
			"bufferView":9,
			"componentType":5126,
			"count":129,
			"type":"VEC3"
		},
		{
			"bufferView":10,
			"componentType":5126,
			"count":129,
			"type":"VEC2"
		},
		{
			"bufferView":11,
			"componentType":5123,
			"count":264,
			"type":"SCALAR"
		}
	],
	"bufferViews":[
		{
			"buffer":0,
			"byteLength":15360,
			"byteOffset":0,
			"target":34962
		},
		{
			"buffer":0,
			"byteLength":15360,
			"byteOffset":15360,
			"target":34962
		},
		{
			"buffer":0,
			"byteLength":10240,
			"byteOffset":30720,
			"target":34962
		},
		{
			"buffer":0,
			"byteLength":4800,
			"byteOffset":40960,
			"target":34963
		},
		{
			"buffer":0,
			"byteLength":11808,
			"byteOffset":45760,
			"target":34962
		},
		{
			"buffer":0,
			"byteLength":11808,
			"byteOffset":57568,
			"target":34962
		},
		{
			"buffer":0,
			"byteLength":7872,
			"byteOffset":69376,
			"target":34962
		},
		{
			"buffer":0,
			"byteLength":3456,
			"byteOffset":77248,
			"target":34963
		},
		{
			"buffer":0,
			"byteLength":1548,
			"byteOffset":80704,
			"target":34962
		},
		{
			"buffer":0,
			"byteLength":1548,
			"byteOffset":82252,
			"target":34962
		},
		{
			"buffer":0,
			"byteLength":1032,
			"byteOffset":83800,
			"target":34962
		},
		{
			"buffer":0,
			"byteLength":528,
			"byteOffset":84832,
			"target":34963
		}
	],
	"buffers":[
		{
			"byteLength":85360,
			"uri":"waterwheel-col.bin"
		}
	]
}
