{
	"asset":{
		"generator":"Khronos glTF Blender I/O v4.1.63",
		"version":"2.0"
	},
	"extensionsUsed":[
		"KHR_materials_specular"
	],
	"scene":0,
	"scenes":[
		{
			"extras":{
				"aad_props":{
					"distribute_pattern":1,
					"grid_2d":[
						20,
						20
					],
					"size_2d":[
						2.0,
						2.0
					]
				},
				"batch_export_preferences":{
					"_directory":"\\\\KINGSHIGH.LOCAL\\users\\home\\students\\tyrmat99\\Documents\\Downloads\\Modular Village\\ModularVillageWithColliders\\"
				},
				"gltf_batch_export_preferences":{
					"export_format":1,
					"export_image_format":0
				},
				"sourceFilename":""
			},
			"name":"Scene",
			"nodes":[
				0
			]
		}
	],
	"nodes":[
		{
			"mesh":0,
			"name":"windmill-col"
		}
	],
	"materials":[
		{
			"doubleSided":true,
			"extensions":{
				"KHR_materials_specular":{
					"specularColorFactor":[
						2.0,
						2.0,
						2.0
					]
				}
			},
			"name":"Wood_Darker.017",
			"pbrMetallicRoughness":{
				"baseColorFactor":[
					0.38429999351501465,
					0.31369999051094055,
					0.25099998712539673,
					1
				],
				"metallicFactor":0
			}
		},
		{
			"doubleSided":true,
			"extensions":{
				"KHR_materials_specular":{
					"specularColorFactor":[
						2.0,
						2.0,
						2.0
					]
				}
			},
			"name":"Wood_Dark.010",
			"pbrMetallicRoughness":{
				"baseColorFactor":[
					0.5175999999046326,
					0.4196000099182129,
					0.33329999446868896,
					1
				],
				"metallicFactor":0
			}
		},
		{
			"doubleSided":true,
			"extensions":{
				"KHR_materials_specular":{
					"specularColorFactor":[
						2.0,
						2.0,
						2.0
					]
				}
			},
			"name":"Canvas",
			"pbrMetallicRoughness":{
				"baseColorFactor":[
					0.8039000034332275,
					0.7411999702453613,
					0.5960999727249146,
					1
				],
				"metallicFactor":0
			}
		},
		{
			"doubleSided":true,
			"extensions":{
				"KHR_materials_specular":{
					"specularColorFactor":[
						2.0,
						2.0,
						2.0
					]
				}
			},
			"name":"Wood_Medium",
			"pbrMetallicRoughness":{
				"baseColorFactor":[
					0.6274999976158142,
					0.5254999995231628,
					0.3961000144481659,
					1
				],
				"metallicFactor":0
			}
		}
	],
	"meshes":[
		{
			"name":"windmill",
			"primitives":[
				{
					"attributes":{
						"POSITION":0,
						"NORMAL":1,
						"TEXCOORD_0":2
					},
					"indices":3,
					"material":0
				},
				{
					"attributes":{
						"POSITION":4,
						"NORMAL":5,
						"TEXCOORD_0":6
					},
					"indices":7,
					"material":1
				},
				{
					"attributes":{
						"POSITION":8,
						"NORMAL":9,
						"TEXCOORD_0":10
					},
					"indices":11,
					"material":2
				},
				{
					"attributes":{
						"POSITION":12,
						"NORMAL":13,
						"TEXCOORD_0":14
					},
					"indices":15,
					"material":3
				}
			]
		}
	],
	"accessors":[
		{
			"bufferView":0,
			"componentType":5126,
			"count":313,
			"max":[
				0.40642857551574707,
				3.499696969985962,
				3.499696969985962
			],
			"min":[
				-0.4807142913341522,
				-3.499696969985962,
				-3.499696969985962
			],
			"type":"VEC3"
		},
		{
			"bufferView":1,
			"componentType":5126,
			"count":313,
			"type":"VEC3"
		},
		{
			"bufferView":2,
			"componentType":5126,
			"count":313,
			"type":"VEC2"
		},
		{
			"bufferView":3,
			"componentType":5123,
			"count":480,
			"type":"SCALAR"
		},
		{
			"bufferView":4,
			"componentType":5126,
			"count":820,
			"max":[
				0.3514285683631897,
				3.408698797225952,
				3.408698797225952
			],
			"min":[
				-0.5642856955528259,
				-3.408698797225952,
				-3.408698797225952
			],
			"type":"VEC3"
		},
		{
			"bufferView":5,
			"componentType":5126,
			"count":820,
			"type":"VEC3"
		},
		{
			"bufferView":6,
			"componentType":5126,
			"count":820,
			"type":"VEC2"
		},
		{
			"bufferView":7,
			"componentType":5123,
			"count":1272,
			"type":"SCALAR"
		},
		{
			"bufferView":8,
			"componentType":5126,
			"count":96,
			"max":[
				0.281627893447876,
				3.362309455871582,
				3.362309455871582
			],
			"min":[
				0.1712292581796646,
				-3.362309455871582,
				-3.362309455871582
			],
			"type":"VEC3"
		},
		{
			"bufferView":9,
			"componentType":5126,
			"count":96,
			"type":"VEC3"
		},
		{
			"bufferView":10,
			"componentType":5126,
			"count":96,
			"type":"VEC2"
		},
		{
			"bufferView":11,
			"componentType":5123,
			"count":144,
			"type":"SCALAR"
		},
		{
			"bufferView":12,
			"componentType":5126,
			"count":24,
			"max":[
				0.45642855763435364,
				0.09311967343091965,
				0.09311967343091965
			],
			"min":[
				0.40642857551574707,
				-0.09311967343091965,
				-0.09311967343091965
			],
			"type":"VEC3"
		},
		{
			"bufferView":13,
			"componentType":5126,
			"count":24,
			"type":"VEC3"
		},
		{
			"bufferView":14,
			"componentType":5126,
			"count":24,
			"type":"VEC2"
		},
		{
			"bufferView":15,
			"componentType":5123,
			"count":24,
			"type":"SCALAR"
		}
	],
	"bufferViews":[
		{
			"buffer":0,
			"byteLength":3756,
			"byteOffset":0,
			"target":34962
		},
		{
			"buffer":0,
			"byteLength":3756,
			"byteOffset":3756,
			"target":34962
		},
		{
			"buffer":0,
			"byteLength":2504,
			"byteOffset":7512,
			"target":34962
		},
		{
			"buffer":0,
			"byteLength":960,
			"byteOffset":10016,
			"target":34963
		},
		{
			"buffer":0,
			"byteLength":9840,
			"byteOffset":10976,
			"target":34962
		},
		{
			"buffer":0,
			"byteLength":9840,
			"byteOffset":20816,
			"target":34962
		},
		{
			"buffer":0,
			"byteLength":6560,
			"byteOffset":30656,
			"target":34962
		},
		{
			"buffer":0,
			"byteLength":2544,
			"byteOffset":37216,
			"target":34963
		},
		{
			"buffer":0,
			"byteLength":1152,
			"byteOffset":39760,
			"target":34962
		},
		{
			"buffer":0,
			"byteLength":1152,
			"byteOffset":40912,
			"target":34962
		},
		{
			"buffer":0,
			"byteLength":768,
			"byteOffset":42064,
			"target":34962
		},
		{
			"buffer":0,
			"byteLength":288,
			"byteOffset":42832,
			"target":34963
		},
		{
			"buffer":0,
			"byteLength":288,
			"byteOffset":43120,
			"target":34962
		},
		{
			"buffer":0,
			"byteLength":288,
			"byteOffset":43408,
			"target":34962
		},
		{
			"buffer":0,
			"byteLength":192,
			"byteOffset":43696,
			"target":34962
		},
		{
			"buffer":0,
			"byteLength":48,
			"byteOffset":43888,
			"target":34963
		}
	],
	"buffers":[
		{
			"byteLength":43936,
			"uri":"windmill-col.bin"
		}
	]
}
