{
	"asset":{
		"generator":"Khronos glTF Blender I/O v4.1.63",
		"version":"2.0"
	},
	"extensionsUsed":[
		"KHR_materials_emissive_strength"
	],
	"scene":0,
	"scenes":[
		{
			"extras":{
				"aad_props":{
					"distribute_pattern":1,
					"grid_2d":[
						20,
						20
					],
					"size_2d":[
						2.0,
						2.0
					]
				},
				"batch_export_preferences":{
					"_directory":"H:\\Year12Godot\\MyGame\\Models\\"
				},
				"gltf_batch_export_preferences":{
					"export_format":1,
					"export_image_format":0
				},
				"sourceFilename":"D:\\Assests .blend"
			},
			"name":"Scene",
			"nodes":[
				4
			]
		}
	],
	"nodes":[
		{
			"mesh":0,
			"name":"lfWheel",
			"rotation":[
				0,
				-0.7071068286895752,
				0,
				0.7071067094802856
			],
			"translation":[
				-4.315905570983887,
				1.932132601737976,
				0.5470098853111267
			]
		},
		{
			"mesh":1,
			"name":"lrWheel",
			"rotation":[
				0,
				-0.7071068286895752,
				0,
				0.7071067094802856
			],
			"translation":[
				2.5992431640625,
				1.932132601737976,
				0.5470098853111267
			]
		},
		{
			"mesh":2,
			"name":"lrWheel.001",
			"rotation":[
				0,
				-0.7071068286895752,
				0,
				0.7071067094802856
			],
			"translation":[
				2.5992431640625,
				1.932132601737976,
				0.5470098853111267
			]
		},
		{
			"mesh":3,
			"name":"rfWheel",
			"rotation":[
				0,
				-0.7071068286895752,
				0,
				0.7071067094802856
			],
			"translation":[
				-4.315905570983887,
				1.932132601737976,
				0.5470098853111267
			]
		},
		{
			"children":[
				0,
				1,
				2,
				3
			],
			"mesh":4,
			"name":"beetle.004"
		}
	],
	"materials":[
		{
			"doubleSided":true,
			"name":"baseGradient.007",
			"pbrMetallicRoughness":{
				"baseColorTexture":{
					"index":0
				},
				"metallicFactor":0,
				"roughnessFactor":0.5336787700653076
			}
		},
		{
			"doubleSided":true,
			"name":"blackGlass.007",
			"pbrMetallicRoughness":{
				"baseColorFactor":[
					0,
					0,
					0,
					1
				],
				"metallicFactor":0,
				"roughnessFactor":0
			}
		},
		{
			"doubleSided":true,
			"emissiveFactor":[
				1,
				1,
				1
			],
			"emissiveTexture":{
				"index":1
			},
			"extensions":{
				"KHR_materials_emissive_strength":{
					"emissiveStrength":18.19999885559082
				}
			},
			"name":"gradientEmmisive.007",
			"pbrMetallicRoughness":{
				"baseColorTexture":{
					"index":2
				},
				"metallicFactor":0
			}
		}
	],
	"meshes":[
		{
			"name":"Circle.023",
			"primitives":[
				{
					"attributes":{
						"POSITION":0,
						"NORMAL":1,
						"TEXCOORD_0":2
					},
					"indices":3,
					"material":0
				}
			]
		},
		{
			"name":"Circle.022",
			"primitives":[
				{
					"attributes":{
						"POSITION":4,
						"NORMAL":5,
						"TEXCOORD_0":6
					},
					"indices":7,
					"material":0
				}
			]
		},
		{
			"name":"Circle.024",
			"primitives":[
				{
					"attributes":{
						"POSITION":8,
						"NORMAL":9,
						"TEXCOORD_0":10
					},
					"indices":3,
					"material":0
				}
			]
		},
		{
			"name":"Circle.020",
			"primitives":[
				{
					"attributes":{
						"POSITION":11,
						"NORMAL":12,
						"TEXCOORD_0":13
					},
					"indices":7,
					"material":0
				}
			]
		},
		{
			"name":"Plane.002",
			"primitives":[
				{
					"attributes":{
						"POSITION":14,
						"NORMAL":15,
						"TEXCOORD_0":16
					},
					"indices":17,
					"material":0
				},
				{
					"attributes":{
						"POSITION":18,
						"NORMAL":19,
						"TEXCOORD_0":20
					},
					"indices":21,
					"material":1
				},
				{
					"attributes":{
						"POSITION":22,
						"NORMAL":23,
						"TEXCOORD_0":24
					},
					"indices":25,
					"material":2
				}
			]
		}
	],
	"textures":[
		{
			"sampler":0,
			"source":0
		},
		{
			"sampler":0,
			"source":0
		},
		{
			"sampler":0,
			"source":0
		}
	],
	"images":[
		{
			"mimeType":"image/png",
			"name":"387359c5580f06c08c266126b3b46db47e48ba44",
			"uri":"387359c5580f06c08c266126b3b46db47e48ba44.png"
		}
	],
	"accessors":[
		{
			"bufferView":0,
			"componentType":5126,
			"count":506,
			"max":[
				1.7071068286895752,
				0.32718145847320557,
				0.2928931713104248
			],
			"min":[
				-0.2928931713104248,
				-0.22622281312942505,
				-1.7071068286895752
			],
			"type":"VEC3"
		},
		{
			"bufferView":1,
			"componentType":5126,
			"count":506,
			"type":"VEC3"
		},
		{
			"bufferView":2,
			"componentType":5126,
			"count":506,
			"type":"VEC2"
		},
		{
			"bufferView":3,
			"componentType":5123,
			"count":1644,
			"type":"SCALAR"
		},
		{
			"bufferView":4,
			"componentType":5126,
			"count":506,
			"max":[
				1.7071067094802856,
				-3.6753125190734863,
				0.2928931713104248
			],
			"min":[
				-0.29289335012435913,
				-4.228716850280762,
				-1.7071068286895752
			],
			"type":"VEC3"
		},
		{
			"bufferView":5,
			"componentType":5126,
			"count":506,
			"type":"VEC3"
		},
		{
			"bufferView":6,
			"componentType":5126,
			"count":506,
			"type":"VEC2"
		},
		{
			"bufferView":7,
			"componentType":5123,
			"count":1644,
			"type":"SCALAR"
		},
		{
			"bufferView":8,
			"componentType":5126,
			"count":506,
			"max":[
				1.7071068286895752,
				0.32718145847320557,
				0.2928931713104248
			],
			"min":[
				-0.2928931713104248,
				-0.22622281312942505,
				-1.7071068286895752
			],
			"type":"VEC3"
		},
		{
			"bufferView":9,
			"componentType":5126,
			"count":506,
			"type":"VEC3"
		},
		{
			"bufferView":10,
			"componentType":5126,
			"count":506,
			"type":"VEC2"
		},
		{
			"bufferView":11,
			"componentType":5126,
			"count":506,
			"max":[
				1.7071067094802856,
				-3.6753127574920654,
				0.2928934097290039
			],
			"min":[
				-0.29289335012435913,
				-4.22871732711792,
				-1.707106590270996
			],
			"type":"VEC3"
		},
		{
			"bufferView":12,
			"componentType":5126,
			"count":506,
			"type":"VEC3"
		},
		{
			"bufferView":13,
			"componentType":5126,
			"count":506,
			"type":"VEC2"
		},
		{
			"bufferView":14,
			"componentType":5126,
			"count":6598,
			"max":[
				6.134544372558594,
				2.250382661819458,
				1.5705533027648926
			],
			"min":[
				-5.737215995788574,
				-2.287651300430298,
				-2.2099061012268066
			],
			"type":"VEC3"
		},
		{
			"bufferView":15,
			"componentType":5126,
			"count":6598,
			"type":"VEC3"
		},
		{
			"bufferView":16,
			"componentType":5126,
			"count":6598,
			"type":"VEC2"
		},
		{
			"bufferView":17,
			"componentType":5123,
			"count":12795,
			"type":"SCALAR"
		},
		{
			"bufferView":18,
			"componentType":5126,
			"count":56,
			"max":[
				4.077400207519531,
				1.8069202899932861,
				-0.6246355772018433
			],
			"min":[
				-1.5084096193313599,
				-1.844189167022705,
				-1.7159078121185303
			],
			"type":"VEC3"
		},
		{
			"bufferView":19,
			"componentType":5126,
			"count":56,
			"type":"VEC3"
		},
		{
			"bufferView":20,
			"componentType":5126,
			"count":56,
			"type":"VEC2"
		},
		{
			"bufferView":21,
			"componentType":5123,
			"count":156,
			"type":"SCALAR"
		},
		{
			"bufferView":22,
			"componentType":5126,
			"count":292,
			"max":[
				4.987257957458496,
				1.7661973237991333,
				0.6856845617294312
			],
			"min":[
				-4.90849494934082,
				-1.8034663200378418,
				-1.85719895362854
			],
			"type":"VEC3"
		},
		{
			"bufferView":23,
			"componentType":5126,
			"count":292,
			"type":"VEC3"
		},
		{
			"bufferView":24,
			"componentType":5126,
			"count":292,
			"type":"VEC2"
		},
		{
			"bufferView":25,
			"componentType":5123,
			"count":696,
			"type":"SCALAR"
		}
	],
	"bufferViews":[
		{
			"buffer":0,
			"byteLength":6072,
			"byteOffset":0,
			"target":34962
		},
		{
			"buffer":0,
			"byteLength":6072,
			"byteOffset":6072,
			"target":34962
		},
		{
			"buffer":0,
			"byteLength":4048,
			"byteOffset":12144,
			"target":34962
		},
		{
			"buffer":0,
			"byteLength":3288,
			"byteOffset":16192,
			"target":34963
		},
		{
			"buffer":0,
			"byteLength":6072,
			"byteOffset":19480,
			"target":34962
		},
		{
			"buffer":0,
			"byteLength":6072,
			"byteOffset":25552,
			"target":34962
		},
		{
			"buffer":0,
			"byteLength":4048,
			"byteOffset":31624,
			"target":34962
		},
		{
			"buffer":0,
			"byteLength":3288,
			"byteOffset":35672,
			"target":34963
		},
		{
			"buffer":0,
			"byteLength":6072,
			"byteOffset":38960,
			"target":34962
		},
		{
			"buffer":0,
			"byteLength":6072,
			"byteOffset":45032,
			"target":34962
		},
		{
			"buffer":0,
			"byteLength":4048,
			"byteOffset":51104,
			"target":34962
		},
		{
			"buffer":0,
			"byteLength":6072,
			"byteOffset":55152,
			"target":34962
		},
		{
			"buffer":0,
			"byteLength":6072,
			"byteOffset":61224,
			"target":34962
		},
		{
			"buffer":0,
			"byteLength":4048,
			"byteOffset":67296,
			"target":34962
		},
		{
			"buffer":0,
			"byteLength":79176,
			"byteOffset":71344,
			"target":34962
		},
		{
			"buffer":0,
			"byteLength":79176,
			"byteOffset":150520,
			"target":34962
		},
		{
			"buffer":0,
			"byteLength":52784,
			"byteOffset":229696,
			"target":34962
		},
		{
			"buffer":0,
			"byteLength":25590,
			"byteOffset":282480,
			"target":34963
		},
		{
			"buffer":0,
			"byteLength":672,
			"byteOffset":308072,
			"target":34962
		},
		{
			"buffer":0,
			"byteLength":672,
			"byteOffset":308744,
			"target":34962
		},
		{
			"buffer":0,
			"byteLength":448,
			"byteOffset":309416,
			"target":34962
		},
		{
			"buffer":0,
			"byteLength":312,
			"byteOffset":309864,
			"target":34963
		},
		{
			"buffer":0,
			"byteLength":3504,
			"byteOffset":310176,
			"target":34962
		},
		{
			"buffer":0,
			"byteLength":3504,
			"byteOffset":313680,
			"target":34962
		},
		{
			"buffer":0,
			"byteLength":2336,
			"byteOffset":317184,
			"target":34962
		},
		{
			"buffer":0,
			"byteLength":1392,
			"byteOffset":319520,
			"target":34963
		}
	],
	"samplers":[
		{
			"magFilter":9729,
			"minFilter":9987
		}
	],
	"buffers":[
		{
			"byteLength":320912,
			"uri":"beetle_004.bin"
		}
	]
}
