{
	"asset":{
		"generator":"Khronos glTF Blender I/O v4.1.63",
		"version":"2.0"
	},
	"scene":0,
	"scenes":[
		{
			"extras":{
				"aad_props":{
					"distribute_pattern":1,
					"grid_2d":[
						20,
						20
					],
					"size_2d":[
						2.0,
						2.0
					]
				},
				"batch_export_preferences":{
					"_directory":"H:\\Year12Godot\\MyGame\\Models\\"
				},
				"gltf_batch_export_preferences":{
					"export_format":1,
					"export_image_format":0
				},
				"sourceFilename":"D:\\Assests .blend"
			},
			"name":"Scene",
			"nodes":[
				0
			]
		}
	],
	"nodes":[
		{
			"mesh":0,
			"name":"chairtable-col"
		}
	],
	"materials":[
		{
			"doubleSided":true,
			"name":"normal .033",
			"pbrMetallicRoughness":{
				"baseColorTexture":{
					"index":0
				},
				"metallicFactor":0,
				"roughnessFactor":0.5
			}
		}
	],
	"meshes":[
		{
			"name":"Cube.069",
			"primitives":[
				{
					"attributes":{
						"POSITION":0,
						"NORMAL":1,
						"TEXCOORD_0":2
					},
					"indices":3,
					"material":0
				}
			]
		}
	],
	"textures":[
		{
			"sampler":0,
			"source":0
		}
	],
	"images":[
		{
			"mimeType":"image/png",
			"name":"ImphenziaPalette01-256-Gradient",
			"uri":"ImphenziaPalette01-256-Gradient.png"
		}
	],
	"accessors":[
		{
			"bufferView":0,
			"componentType":5126,
			"count":3368,
			"max":[
				10.309183120727539,
				163.10687255859375,
				46.839195251464844
			],
			"min":[
				-258.5437316894531,
				-50.80157470703125,
				-76.92865753173828
			],
			"type":"VEC3"
		},
		{
			"bufferView":1,
			"componentType":5126,
			"count":3368,
			"type":"VEC3"
		},
		{
			"bufferView":2,
			"componentType":5126,
			"count":3368,
			"type":"VEC2"
		},
		{
			"bufferView":3,
			"componentType":5123,
			"count":11346,
			"type":"SCALAR"
		}
	],
	"bufferViews":[
		{
			"buffer":0,
			"byteLength":40416,
			"byteOffset":0,
			"target":34962
		},
		{
			"buffer":0,
			"byteLength":40416,
			"byteOffset":40416,
			"target":34962
		},
		{
			"buffer":0,
			"byteLength":26944,
			"byteOffset":80832,
			"target":34962
		},
		{
			"buffer":0,
			"byteLength":22692,
			"byteOffset":107776,
			"target":34963
		}
	],
	"samplers":[
		{
			"magFilter":9729,
			"minFilter":9987
		}
	],
	"buffers":[
		{
			"byteLength":130468,
			"uri":"chairtable-col.bin"
		}
	]
}
