{
	"asset":{
		"generator":"Khronos glTF Blender I/O v4.1.63",
		"version":"2.0"
	},
	"extensionsUsed":[
		"KHR_materials_emissive_strength"
	],
	"scene":0,
	"scenes":[
		{
			"extras":{
				"aad_props":{
					"distribute_pattern":1,
					"grid_2d":[
						20,
						20
					],
					"size_2d":[
						2.0,
						2.0
					]
				},
				"batch_export_preferences":{
					"_directory":"H:\\Year12Godot\\MyGame\\Models\\"
				},
				"gltf_batch_export_preferences":{
					"export_format":1,
					"export_image_format":0
				},
				"sourceFilename":"D:\\Assests .blend"
			},
			"name":"Scene",
			"nodes":[
				12
			]
		}
	],
	"nodes":[
		{
			"mesh":0,
			"name":"lFWheel",
			"rotation":[
				0,
				-0.3681245446205139,
				0,
				0.9297764897346497
			],
			"scale":[
				1.1444202661514282,
				1.1444200277328491,
				1.1444202661514282
			]
		},
		{
			"children":[
				0
			],
			"name":"Empty.006",
			"rotation":[
				-0.012565008364617825,
				-0.012565054930746555,
				0.0001579065719852224,
				0.9998421669006348
			],
			"scale":[
				-3.9021241664886475,
				-3.9021222591400146,
				-3.9021222591400146
			],
			"translation":[
				4.534483909606934,
				2.922973871231079,
				0.515480101108551
			]
		},
		{
			"children":[
				1
			],
			"mesh":1,
			"name":"lFAxel",
			"rotation":[
				-0.7070510983467102,
				-0.7070508003234863,
				0.008885468356311321,
				0.00888547208160162
			],
			"scale":[
				0.08220524340867996,
				0.08220528066158295,
				0.08220531046390533
			],
			"translation":[
				0.49168500304222107,
				0.7435312867164612,
				0.057323455810546875
			]
		},
		{
			"mesh":2,
			"name":"lRWheel",
			"rotation":[
				0,
				-0.36812469363212585,
				0,
				0.9297765493392944
			],
			"scale":[
				1.1444199085235596,
				1.1444200277328491,
				1.1444199085235596
			]
		},
		{
			"children":[
				3
			],
			"name":"Empty.008",
			"scale":[
				-3.9021220207214355,
				-3.9021224975585938,
				-3.9021220207214355
			],
			"translation":[
				4.547843933105469,
				2.9090986251831055,
				0.4746236503124237
			]
		},
		{
			"children":[
				4
			],
			"mesh":3,
			"name":"lRAxel",
			"rotation":[
				0.7070509195327759,
				0.7070508599281311,
				-0.008890531957149506,
				0.008890301920473576
			],
			"scale":[
				0.08220525085926056,
				0.08220524340867996,
				0.08220525085926056
			],
			"translation":[
				0.44564345479011536,
				0.7435568571090698,
				-2.8003811836242676
			]
		},
		{
			"mesh":4,
			"name":"rFWheel",
			"rotation":[
				0,
				-0.3681246042251587,
				0,
				0.9297764897346497
			],
			"scale":[
				1.1444201469421387,
				1.1444201469421387,
				1.1444201469421387
			]
		},
		{
			"children":[
				6
			],
			"name":"Empty.005",
			"scale":[
				-3.902122974395752,
				-3.9021224975585938,
				-3.902122974395752
			],
			"translation":[
				4.547842979431152,
				2.9090964794158936,
				0.4746266007423401
			]
		},
		{
			"children":[
				7
			],
			"mesh":5,
			"name":"rfAxel",
			"rotation":[
				0.008879502303898335,
				-0.00887967087328434,
				0.707051157951355,
				0.7070509791374207
			],
			"scale":[
				-0.08220526576042175,
				-0.08220524340867996,
				-0.08220526576042175
			],
			"translation":[
				0.5054134130477905,
				-0.7139270901679993,
				0.05140244960784912
			]
		},
		{
			"mesh":6,
			"name":"rRWheel",
			"rotation":[
				0,
				-0.36812469363212585,
				0,
				0.9297764301300049
			],
			"scale":[
				1.1444205045700073,
				1.1444201469421387,
				1.1444203853607178
			]
		},
		{
			"children":[
				9
			],
			"name":"Empty.009",
			"scale":[
				-3.902122974395752,
				-3.9021222591400146,
				-3.9021224975585938
			],
			"translation":[
				4.547842502593994,
				2.9090991020202637,
				0.47463294863700867
			]
		},
		{
			"children":[
				10
			],
			"mesh":7,
			"name":"rRAxel",
			"rotation":[
				0.008879587054252625,
				-0.00887975562363863,
				0.707051157951355,
				0.7070509791374207
			],
			"scale":[
				-0.08220527321100235,
				-0.08220524340867996,
				-0.08220527321100235
			],
			"translation":[
				0.44564345479011536,
				-0.7222402095794678,
				-2.80039381980896
			]
		},
		{
			"children":[
				2,
				5,
				8,
				11
			],
			"mesh":8,
			"name":"deLoreonBody"
		}
	],
	"materials":[
		{
			"doubleSided":true,
			"name":"baseGradient.005",
			"pbrMetallicRoughness":{
				"baseColorTexture":{
					"index":0
				},
				"metallicFactor":0,
				"roughnessFactor":0.5336787700653076
			}
		},
		{
			"doubleSided":true,
			"emissiveFactor":[
				1,
				1,
				1
			],
			"emissiveTexture":{
				"index":1
			},
			"extensions":{
				"KHR_materials_emissive_strength":{
					"emissiveStrength":18.19999885559082
				}
			},
			"name":"gradientEmmisive.005",
			"pbrMetallicRoughness":{
				"baseColorTexture":{
					"index":2
				},
				"metallicFactor":0
			}
		},
		{
			"doubleSided":true,
			"name":"flatBlack.002",
			"pbrMetallicRoughness":{
				"baseColorFactor":[
					0.0005154294776730239,
					0.0005154294776730239,
					0.0005154294776730239,
					1
				],
				"metallicFactor":0,
				"roughnessFactor":0.5
			}
		},
		{
			"doubleSided":true,
			"name":"blackGlass.005",
			"pbrMetallicRoughness":{
				"baseColorFactor":[
					0,
					0,
					0,
					1
				],
				"metallicFactor":0,
				"roughnessFactor":0
			}
		}
	],
	"meshes":[
		{
			"name":"Circle.025",
			"primitives":[
				{
					"attributes":{
						"POSITION":0,
						"NORMAL":1,
						"TEXCOORD_0":2
					},
					"indices":3,
					"material":0
				},
				{
					"attributes":{
						"POSITION":4,
						"NORMAL":5,
						"TEXCOORD_0":6
					},
					"indices":7,
					"material":1
				}
			]
		},
		{
			"name":"Plane.036",
			"primitives":[
				{
					"attributes":{
						"POSITION":8,
						"NORMAL":9,
						"TEXCOORD_0":10
					},
					"indices":11,
					"material":2
				}
			]
		},
		{
			"name":"Circle.026",
			"primitives":[
				{
					"attributes":{
						"POSITION":12,
						"NORMAL":13,
						"TEXCOORD_0":14
					},
					"indices":3,
					"material":0
				},
				{
					"attributes":{
						"POSITION":15,
						"NORMAL":16,
						"TEXCOORD_0":17
					},
					"indices":7,
					"material":1
				}
			]
		},
		{
			"name":"Plane.037",
			"primitives":[
				{
					"attributes":{
						"POSITION":18,
						"NORMAL":19,
						"TEXCOORD_0":20
					},
					"indices":11,
					"material":2
				}
			]
		},
		{
			"name":"Circle.021",
			"primitives":[
				{
					"attributes":{
						"POSITION":21,
						"NORMAL":22,
						"TEXCOORD_0":23
					},
					"indices":3,
					"material":0
				},
				{
					"attributes":{
						"POSITION":24,
						"NORMAL":25,
						"TEXCOORD_0":26
					},
					"indices":7,
					"material":1
				}
			]
		},
		{
			"name":"Plane.032",
			"primitives":[
				{
					"attributes":{
						"POSITION":27,
						"NORMAL":28,
						"TEXCOORD_0":29
					},
					"indices":11,
					"material":2
				}
			]
		},
		{
			"name":"Circle.028",
			"primitives":[
				{
					"attributes":{
						"POSITION":30,
						"NORMAL":31,
						"TEXCOORD_0":32
					},
					"indices":3,
					"material":0
				},
				{
					"attributes":{
						"POSITION":33,
						"NORMAL":34,
						"TEXCOORD_0":35
					},
					"indices":7,
					"material":1
				}
			]
		},
		{
			"name":"Plane.039",
			"primitives":[
				{
					"attributes":{
						"POSITION":36,
						"NORMAL":37,
						"TEXCOORD_0":38
					},
					"indices":11,
					"material":2
				}
			]
		},
		{
			"name":"Plane.008",
			"primitives":[
				{
					"attributes":{
						"POSITION":39,
						"NORMAL":40,
						"TEXCOORD_0":41
					},
					"indices":42,
					"material":0
				},
				{
					"attributes":{
						"POSITION":43,
						"NORMAL":44,
						"TEXCOORD_0":45
					},
					"indices":46,
					"material":1
				},
				{
					"attributes":{
						"POSITION":47,
						"NORMAL":48,
						"TEXCOORD_0":49
					},
					"indices":50,
					"material":3
				}
			]
		}
	],
	"textures":[
		{
			"sampler":0,
			"source":0
		},
		{
			"sampler":0,
			"source":0
		},
		{
			"sampler":0,
			"source":0
		}
	],
	"images":[
		{
			"mimeType":"image/png",
			"name":"387359c5580f06c08c266126b3b46db47e48ba44",
			"uri":"387359c5580f06c08c266126b3b46db47e48ba44.png"
		}
	],
	"accessors":[
		{
			"bufferView":0,
			"componentType":5126,
			"count":917,
			"max":[
				1.6379872560501099,
				0.5657371282577515,
				0.4008898437023163
			],
			"min":[
				-0.36201268434524536,
				-0.14478696882724762,
				-1.5991101264953613
			],
			"type":"VEC3"
		},
		{
			"bufferView":1,
			"componentType":5126,
			"count":917,
			"type":"VEC3"
		},
		{
			"bufferView":2,
			"componentType":5126,
			"count":917,
			"type":"VEC2"
		},
		{
			"bufferView":3,
			"componentType":5123,
			"count":1860,
			"type":"SCALAR"
		},
		{
			"bufferView":4,
			"componentType":5126,
			"count":768,
			"max":[
				1.207736849784851,
				0.4451225996017456,
				-0.07875710725784302
			],
			"min":[
				0.11918705701828003,
				0.3476690948009491,
				-1.167306900024414
			],
			"type":"VEC3"
		},
		{
			"bufferView":5,
			"componentType":5126,
			"count":768,
			"type":"VEC3"
		},
		{
			"bufferView":6,
			"componentType":5126,
			"count":768,
			"type":"VEC2"
		},
		{
			"bufferView":7,
			"componentType":5123,
			"count":1152,
			"type":"SCALAR"
		},
		{
			"bufferView":8,
			"componentType":5126,
			"count":268,
			"max":[
				2.501645803451538,
				1.4162020683288574,
				1.470558762550354
			],
			"min":[
				-3.204341173171997,
				-2.2226157188415527,
				-0.5213934183120728
			],
			"type":"VEC3"
		},
		{
			"bufferView":9,
			"componentType":5126,
			"count":268,
			"type":"VEC3"
		},
		{
			"bufferView":10,
			"componentType":5126,
			"count":268,
			"type":"VEC2"
		},
		{
			"bufferView":11,
			"componentType":5123,
			"count":444,
			"type":"SCALAR"
		},
		{
			"bufferView":12,
			"componentType":5126,
			"count":917,
			"max":[
				1.7768081426620483,
				0.6234779953956604,
				0.5211067199707031
			],
			"min":[
				-0.48164448142051697,
				-0.1788645088672638,
				-1.7373461723327637
			],
			"type":"VEC3"
		},
		{
			"bufferView":13,
			"componentType":5126,
			"count":917,
			"type":"VEC3"
		},
		{
			"bufferView":14,
			"componentType":5126,
			"count":917,
			"type":"VEC2"
		},
		{
			"bufferView":15,
			"componentType":5126,
			"count":768,
			"max":[
				1.290958046913147,
				0.4872768819332123,
				-0.02052336558699608
			],
			"min":[
				0.06173887848854065,
				0.37722983956336975,
				-1.2497426271438599
			],
			"type":"VEC3"
		},
		{
			"bufferView":16,
			"componentType":5126,
			"count":768,
			"type":"VEC3"
		},
		{
			"bufferView":17,
			"componentType":5126,
			"count":768,
			"type":"VEC2"
		},
		{
			"bufferView":18,
			"componentType":5126,
			"count":268,
			"max":[
				2.501645803451538,
				1.4162020683288574,
				1.470558762550354
			],
			"min":[
				-3.204341173171997,
				-2.2226157188415527,
				-0.5213934183120728
			],
			"type":"VEC3"
		},
		{
			"bufferView":19,
			"componentType":5126,
			"count":268,
			"type":"VEC3"
		},
		{
			"bufferView":20,
			"componentType":5126,
			"count":268,
			"type":"VEC2"
		},
		{
			"bufferView":21,
			"componentType":5126,
			"count":917,
			"max":[
				1.6379872560501099,
				0.5657371282577515,
				0.4008898437023163
			],
			"min":[
				-0.36201268434524536,
				-0.14478696882724762,
				-1.5991101264953613
			],
			"type":"VEC3"
		},
		{
			"bufferView":22,
			"componentType":5126,
			"count":917,
			"type":"VEC3"
		},
		{
			"bufferView":23,
			"componentType":5126,
			"count":917,
			"type":"VEC2"
		},
		{
			"bufferView":24,
			"componentType":5126,
			"count":768,
			"max":[
				1.207736849784851,
				0.4451225996017456,
				-0.07875710725784302
			],
			"min":[
				0.11918705701828003,
				0.3476690948009491,
				-1.167306900024414
			],
			"type":"VEC3"
		},
		{
			"bufferView":25,
			"componentType":5126,
			"count":768,
			"type":"VEC3"
		},
		{
			"bufferView":26,
			"componentType":5126,
			"count":768,
			"type":"VEC2"
		},
		{
			"bufferView":27,
			"componentType":5126,
			"count":268,
			"max":[
				2.501645803451538,
				1.4162020683288574,
				1.470558762550354
			],
			"min":[
				-3.204341173171997,
				-2.2226157188415527,
				-0.5213934183120728
			],
			"type":"VEC3"
		},
		{
			"bufferView":28,
			"componentType":5126,
			"count":268,
			"type":"VEC3"
		},
		{
			"bufferView":29,
			"componentType":5126,
			"count":268,
			"type":"VEC2"
		},
		{
			"bufferView":30,
			"componentType":5126,
			"count":917,
			"max":[
				1.7768081426620483,
				0.6234779953956604,
				0.5211067199707031
			],
			"min":[
				-0.48164448142051697,
				-0.1788645088672638,
				-1.7373461723327637
			],
			"type":"VEC3"
		},
		{
			"bufferView":31,
			"componentType":5126,
			"count":917,
			"type":"VEC3"
		},
		{
			"bufferView":32,
			"componentType":5126,
			"count":917,
			"type":"VEC2"
		},
		{
			"bufferView":33,
			"componentType":5126,
			"count":768,
			"max":[
				1.290958046913147,
				0.4872768819332123,
				-0.02052336558699608
			],
			"min":[
				0.06173887848854065,
				0.37722983956336975,
				-1.2497426271438599
			],
			"type":"VEC3"
		},
		{
			"bufferView":34,
			"componentType":5126,
			"count":768,
			"type":"VEC3"
		},
		{
			"bufferView":35,
			"componentType":5126,
			"count":768,
			"type":"VEC2"
		},
		{
			"bufferView":36,
			"componentType":5126,
			"count":268,
			"max":[
				2.501645803451538,
				1.4162020683288574,
				1.470558762550354
			],
			"min":[
				-3.204341173171997,
				-2.2226157188415527,
				-0.5213934183120728
			],
			"type":"VEC3"
		},
		{
			"bufferView":37,
			"componentType":5126,
			"count":268,
			"type":"VEC3"
		},
		{
			"bufferView":38,
			"componentType":5126,
			"count":268,
			"type":"VEC2"
		},
		{
			"bufferView":39,
			"componentType":5126,
			"count":9582,
			"max":[
				0.546752393245697,
				1.2000524997711182,
				1.0694551467895508
			],
			"min":[
				-0.7092024087905884,
				-1.2000524997711182,
				-3.969069004058838
			],
			"type":"VEC3"
		},
		{
			"bufferView":40,
			"componentType":5126,
			"count":9582,
			"type":"VEC3"
		},
		{
			"bufferView":41,
			"componentType":5126,
			"count":9582,
			"type":"VEC2"
		},
		{
			"bufferView":42,
			"componentType":5123,
			"count":20754,
			"type":"SCALAR"
		},
		{
			"bufferView":43,
			"componentType":5126,
			"count":172,
			"max":[
				0.47891953587532043,
				0.8453784584999084,
				0.9930073022842407
			],
			"min":[
				-0.348993182182312,
				-0.8453781604766846,
				-3.917416572570801
			],
			"type":"VEC3"
		},
		{
			"bufferView":44,
			"componentType":5126,
			"count":172,
			"type":"VEC3"
		},
		{
			"bufferView":45,
			"componentType":5126,
			"count":172,
			"type":"VEC2"
		},
		{
			"bufferView":46,
			"componentType":5123,
			"count":282,
			"type":"SCALAR"
		},
		{
			"bufferView":47,
			"componentType":5126,
			"count":38,
			"max":[
				-0.1346777379512787,
				1.1762741804122925,
				-0.6197229027748108
			],
			"min":[
				-0.5539172291755676,
				-1.1762741804122925,
				-2.1358649730682373
			],
			"type":"VEC3"
		},
		{
			"bufferView":48,
			"componentType":5126,
			"count":38,
			"type":"VEC3"
		},
		{
			"bufferView":49,
			"componentType":5126,
			"count":38,
			"type":"VEC2"
		},
		{
			"bufferView":50,
			"componentType":5123,
			"count":84,
			"type":"SCALAR"
		}
	],
	"bufferViews":[
		{
			"buffer":0,
			"byteLength":11004,
			"byteOffset":0,
			"target":34962
		},
		{
			"buffer":0,
			"byteLength":11004,
			"byteOffset":11004,
			"target":34962
		},
		{
			"buffer":0,
			"byteLength":7336,
			"byteOffset":22008,
			"target":34962
		},
		{
			"buffer":0,
			"byteLength":3720,
			"byteOffset":29344,
			"target":34963
		},
		{
			"buffer":0,
			"byteLength":9216,
			"byteOffset":33064,
			"target":34962
		},
		{
			"buffer":0,
			"byteLength":9216,
			"byteOffset":42280,
			"target":34962
		},
		{
			"buffer":0,
			"byteLength":6144,
			"byteOffset":51496,
			"target":34962
		},
		{
			"buffer":0,
			"byteLength":2304,
			"byteOffset":57640,
			"target":34963
		},
		{
			"buffer":0,
			"byteLength":3216,
			"byteOffset":59944,
			"target":34962
		},
		{
			"buffer":0,
			"byteLength":3216,
			"byteOffset":63160,
			"target":34962
		},
		{
			"buffer":0,
			"byteLength":2144,
			"byteOffset":66376,
			"target":34962
		},
		{
			"buffer":0,
			"byteLength":888,
			"byteOffset":68520,
			"target":34963
		},
		{
			"buffer":0,
			"byteLength":11004,
			"byteOffset":69408,
			"target":34962
		},
		{
			"buffer":0,
			"byteLength":11004,
			"byteOffset":80412,
			"target":34962
		},
		{
			"buffer":0,
			"byteLength":7336,
			"byteOffset":91416,
			"target":34962
		},
		{
			"buffer":0,
			"byteLength":9216,
			"byteOffset":98752,
			"target":34962
		},
		{
			"buffer":0,
			"byteLength":9216,
			"byteOffset":107968,
			"target":34962
		},
		{
			"buffer":0,
			"byteLength":6144,
			"byteOffset":117184,
			"target":34962
		},
		{
			"buffer":0,
			"byteLength":3216,
			"byteOffset":123328,
			"target":34962
		},
		{
			"buffer":0,
			"byteLength":3216,
			"byteOffset":126544,
			"target":34962
		},
		{
			"buffer":0,
			"byteLength":2144,
			"byteOffset":129760,
			"target":34962
		},
		{
			"buffer":0,
			"byteLength":11004,
			"byteOffset":131904,
			"target":34962
		},
		{
			"buffer":0,
			"byteLength":11004,
			"byteOffset":142908,
			"target":34962
		},
		{
			"buffer":0,
			"byteLength":7336,
			"byteOffset":153912,
			"target":34962
		},
		{
			"buffer":0,
			"byteLength":9216,
			"byteOffset":161248,
			"target":34962
		},
		{
			"buffer":0,
			"byteLength":9216,
			"byteOffset":170464,
			"target":34962
		},
		{
			"buffer":0,
			"byteLength":6144,
			"byteOffset":179680,
			"target":34962
		},
		{
			"buffer":0,
			"byteLength":3216,
			"byteOffset":185824,
			"target":34962
		},
		{
			"buffer":0,
			"byteLength":3216,
			"byteOffset":189040,
			"target":34962
		},
		{
			"buffer":0,
			"byteLength":2144,
			"byteOffset":192256,
			"target":34962
		},
		{
			"buffer":0,
			"byteLength":11004,
			"byteOffset":194400,
			"target":34962
		},
		{
			"buffer":0,
			"byteLength":11004,
			"byteOffset":205404,
			"target":34962
		},
		{
			"buffer":0,
			"byteLength":7336,
			"byteOffset":216408,
			"target":34962
		},
		{
			"buffer":0,
			"byteLength":9216,
			"byteOffset":223744,
			"target":34962
		},
		{
			"buffer":0,
			"byteLength":9216,
			"byteOffset":232960,
			"target":34962
		},
		{
			"buffer":0,
			"byteLength":6144,
			"byteOffset":242176,
			"target":34962
		},
		{
			"buffer":0,
			"byteLength":3216,
			"byteOffset":248320,
			"target":34962
		},
		{
			"buffer":0,
			"byteLength":3216,
			"byteOffset":251536,
			"target":34962
		},
		{
			"buffer":0,
			"byteLength":2144,
			"byteOffset":254752,
			"target":34962
		},
		{
			"buffer":0,
			"byteLength":114984,
			"byteOffset":256896,
			"target":34962
		},
		{
			"buffer":0,
			"byteLength":114984,
			"byteOffset":371880,
			"target":34962
		},
		{
			"buffer":0,
			"byteLength":76656,
			"byteOffset":486864,
			"target":34962
		},
		{
			"buffer":0,
			"byteLength":41508,
			"byteOffset":563520,
			"target":34963
		},
		{
			"buffer":0,
			"byteLength":2064,
			"byteOffset":605028,
			"target":34962
		},
		{
			"buffer":0,
			"byteLength":2064,
			"byteOffset":607092,
			"target":34962
		},
		{
			"buffer":0,
			"byteLength":1376,
			"byteOffset":609156,
			"target":34962
		},
		{
			"buffer":0,
			"byteLength":564,
			"byteOffset":610532,
			"target":34963
		},
		{
			"buffer":0,
			"byteLength":456,
			"byteOffset":611096,
			"target":34962
		},
		{
			"buffer":0,
			"byteLength":456,
			"byteOffset":611552,
			"target":34962
		},
		{
			"buffer":0,
			"byteLength":304,
			"byteOffset":612008,
			"target":34962
		},
		{
			"buffer":0,
			"byteLength":168,
			"byteOffset":612312,
			"target":34963
		}
	],
	"samplers":[
		{
			"magFilter":9729,
			"minFilter":9987
		}
	],
	"buffers":[
		{
			"byteLength":612480,
			"uri":"deLoreonBody.bin"
		}
	]
}
