{
	"asset":{
		"generator":"Khronos glTF Blender I/O v4.1.63",
		"version":"2.0"
	},
	"scene":0,
	"scenes":[
		{
			"extras":{
				"aad_props":{
					"distribute_pattern":1,
					"grid_2d":[
						20,
						20
					],
					"size_2d":[
						2.0,
						2.0
					]
				},
				"batch_export_preferences":{
					"_directory":"H:\\Year12Godot\\MyGame\\Models\\"
				},
				"gltf_batch_export_preferences":{
					"export_format":1,
					"export_image_format":0
				},
				"sourceFilename":"D:\\Assests .blend"
			},
			"name":"Scene",
			"nodes":[
				0
			]
		}
	],
	"nodes":[
		{
			"mesh":0,
			"name":"demoscene_13-col"
		}
	],
	"materials":[
		{
			"alphaMode":"BLEND",
			"doubleSided":true,
			"name":"normal .038",
			"pbrMetallicRoughness":{
				"baseColorTexture":{
					"index":0
				},
				"metallicFactor":0,
				"roughnessFactor":0.5
			}
		}
	],
	"meshes":[
		{
			"name":"Cube.080",
			"primitives":[
				{
					"attributes":{
						"POSITION":0,
						"NORMAL":1,
						"TEXCOORD_0":2
					},
					"indices":3,
					"material":0
				}
			]
		}
	],
	"textures":[
		{
			"sampler":0,
			"source":0
		}
	],
	"images":[
		{
			"mimeType":"image/png",
			"name":"ImphenziaPalette01-256-Gradient",
			"uri":"ImphenziaPalette01-256-Gradient.png"
		}
	],
	"accessors":[
		{
			"bufferView":0,
			"componentType":5126,
			"count":4636,
			"max":[
				31.93853759765625,
				31.873016357421875,
				28.802383422851562
			],
			"min":[
				-36.65185546875,
				-34.97625732421875,
				-30.716262817382812
			],
			"type":"VEC3"
		},
		{
			"bufferView":1,
			"componentType":5126,
			"count":4636,
			"type":"VEC3"
		},
		{
			"bufferView":2,
			"componentType":5126,
			"count":4636,
			"type":"VEC2"
		},
		{
			"bufferView":3,
			"componentType":5123,
			"count":14415,
			"type":"SCALAR"
		}
	],
	"bufferViews":[
		{
			"buffer":0,
			"byteLength":55632,
			"byteOffset":0,
			"target":34962
		},
		{
			"buffer":0,
			"byteLength":55632,
			"byteOffset":55632,
			"target":34962
		},
		{
			"buffer":0,
			"byteLength":37088,
			"byteOffset":111264,
			"target":34962
		},
		{
			"buffer":0,
			"byteLength":28830,
			"byteOffset":148352,
			"target":34963
		}
	],
	"samplers":[
		{
			"magFilter":9729,
			"minFilter":9987
		}
	],
	"buffers":[
		{
			"byteLength":177184,
			"uri":"demoscene_13-col.bin"
		}
	]
}
