{
	"asset":{
		"generator":"Khronos glTF Blender I/O v4.1.63",
		"version":"2.0"
	},
	"scene":0,
	"scenes":[
		{
			"extras":{
				"aad_props":{
					"distribute_pattern":1,
					"grid_2d":[
						20,
						20
					],
					"size_2d":[
						2.0,
						2.0
					]
				},
				"batch_export_preferences":{
					"_directory":"H:\\Year12Godot\\MyGame\\Models\\"
				},
				"gltf_batch_export_preferences":{
					"export_format":1,
					"export_image_format":0
				},
				"sourceFilename":"D:\\Assests .blend"
			},
			"name":"Scene",
			"nodes":[
				0
			]
		}
	],
	"nodes":[
		{
			"mesh":0,
			"name":"demoscene_2-col"
		}
	],
	"materials":[
		{
			"doubleSided":true,
			"name":"normal .038",
			"pbrMetallicRoughness":{
				"baseColorTexture":{
					"index":0
				},
				"metallicFactor":0,
				"roughnessFactor":0.5
			}
		}
	],
	"meshes":[
		{
			"name":"Cylinder.011",
			"primitives":[
				{
					"attributes":{
						"POSITION":0,
						"NORMAL":1,
						"TEXCOORD_0":2
					},
					"indices":3,
					"material":0
				}
			]
		}
	],
	"textures":[
		{
			"sampler":0,
			"source":0
		}
	],
	"images":[
		{
			"mimeType":"image/png",
			"name":"ImphenziaPalette01-256-Gradient",
			"uri":"ImphenziaPalette01-256-Gradient.png"
		}
	],
	"accessors":[
		{
			"bufferView":0,
			"componentType":5126,
			"count":4811,
			"max":[
				22.834638595581055,
				3.577392578125,
				22.9273681640625
			],
			"min":[
				-26.250947952270508,
				-2.02972412109375,
				-26.158172607421875
			],
			"type":"VEC3"
		},
		{
			"bufferView":1,
			"componentType":5126,
			"count":4811,
			"type":"VEC3"
		},
		{
			"bufferView":2,
			"componentType":5126,
			"count":4811,
			"type":"VEC2"
		},
		{
			"bufferView":3,
			"componentType":5123,
			"count":14112,
			"type":"SCALAR"
		}
	],
	"bufferViews":[
		{
			"buffer":0,
			"byteLength":57732,
			"byteOffset":0,
			"target":34962
		},
		{
			"buffer":0,
			"byteLength":57732,
			"byteOffset":57732,
			"target":34962
		},
		{
			"buffer":0,
			"byteLength":38488,
			"byteOffset":115464,
			"target":34962
		},
		{
			"buffer":0,
			"byteLength":28224,
			"byteOffset":153952,
			"target":34963
		}
	],
	"samplers":[
		{
			"magFilter":9729,
			"minFilter":9987
		}
	],
	"buffers":[
		{
			"byteLength":182176,
			"uri":"demoscene_2-col.bin"
		}
	]
}
