{
	"asset":{
		"generator":"Khronos glTF Blender I/O v4.1.63",
		"version":"2.0"
	},
	"scene":0,
	"scenes":[
		{
			"extras":{
				"aad_props":{
					"distribute_pattern":1,
					"grid_2d":[
						20,
						20
					],
					"size_2d":[
						2.0,
						2.0
					]
				},
				"batch_export_preferences":{
					"_directory":"H:\\Year12Godot\\MyGame\\Models\\"
				},
				"gltf_batch_export_preferences":{
					"export_format":1,
					"export_image_format":0
				},
				"sourceFilename":"D:\\Assests .blend"
			},
			"name":"Scene",
			"nodes":[
				0
			]
		}
	],
	"nodes":[
		{
			"mesh":0,
			"name":"demoscene_17-col"
		}
	],
	"materials":[
		{
			"doubleSided":true,
			"name":"normal .038",
			"pbrMetallicRoughness":{
				"baseColorTexture":{
					"index":0
				},
				"metallicFactor":0,
				"roughnessFactor":0.5
			}
		}
	],
	"meshes":[
		{
			"name":"Cube.084",
			"primitives":[
				{
					"attributes":{
						"POSITION":0,
						"NORMAL":1,
						"TEXCOORD_0":2
					},
					"indices":3,
					"material":0
				}
			]
		}
	],
	"textures":[
		{
			"sampler":0,
			"source":0
		}
	],
	"images":[
		{
			"mimeType":"image/png",
			"name":"ImphenziaPalette01-256-Gradient",
			"uri":"ImphenziaPalette01-256-Gradient.png"
		}
	],
	"accessors":[
		{
			"bufferView":0,
			"componentType":5126,
			"count":184,
			"max":[
				10.9317626953125,
				7.7352294921875,
				4.004731178283691
			],
			"min":[
				-10.931884765625,
				-15.348602294921875,
				-4.094876289367676
			],
			"type":"VEC3"
		},
		{
			"bufferView":1,
			"componentType":5126,
			"count":184,
			"type":"VEC3"
		},
		{
			"bufferView":2,
			"componentType":5126,
			"count":184,
			"type":"VEC2"
		},
		{
			"bufferView":3,
			"componentType":5123,
			"count":540,
			"type":"SCALAR"
		}
	],
	"bufferViews":[
		{
			"buffer":0,
			"byteLength":2208,
			"byteOffset":0,
			"target":34962
		},
		{
			"buffer":0,
			"byteLength":2208,
			"byteOffset":2208,
			"target":34962
		},
		{
			"buffer":0,
			"byteLength":1472,
			"byteOffset":4416,
			"target":34962
		},
		{
			"buffer":0,
			"byteLength":1080,
			"byteOffset":5888,
			"target":34963
		}
	],
	"samplers":[
		{
			"magFilter":9729,
			"minFilter":9987
		}
	],
	"buffers":[
		{
			"byteLength":6968,
			"uri":"demoscene_17-col.bin"
		}
	]
}
