{
	"asset":{
		"generator":"Khronos glTF Blender I/O v4.1.63",
		"version":"2.0"
	},
	"scene":0,
	"scenes":[
		{
			"extras":{
				"aad_props":{
					"distribute_pattern":1,
					"grid_2d":[
						20,
						20
					],
					"size_2d":[
						2.0,
						2.0
					]
				},
				"batch_export_preferences":{
					"_directory":"H:\\Year12Godot\\MyGame\\Models\\"
				},
				"gltf_batch_export_preferences":{
					"export_format":1,
					"export_image_format":0
				},
				"sourceFilename":"D:\\Assests .blend"
			},
			"name":"Scene",
			"nodes":[
				7
			]
		}
	],
	"nodes":[
		{
			"mesh":0,
			"name":"Buttons.001",
			"rotation":[
				1,
				0,
				0,
				0
			],
			"scale":[
				-0.04897499084472656,
				-1,
				-0.4054180383682251
			],
			"translation":[
				1.0139881372451782,
				-0.2279297113418579,
				0
			]
		},
		{
			"mesh":1,
			"name":"Console.001",
			"rotation":[
				1,
				0,
				0,
				0
			],
			"scale":[
				-0.04897499084472656,
				-1,
				-0.4054180383682251
			],
			"translation":[
				1.0139881372451782,
				0,
				0
			]
		},
		{
			"mesh":2,
			"name":"Handles.001"
		},
		{
			"mesh":3,
			"name":"Mirror.001",
			"translation":[
				0,
				0.21427786350250244,
				0
			]
		},
		{
			"mesh":4,
			"name":"SafetyRamps.001"
		},
		{
			"mesh":5,
			"name":"Trap.001",
			"scale":[
				1,
				1,
				0.9623958468437195
			],
			"translation":[
				-0.7130849957466125,
				1.4733301401138306,
				-1.0377000570297241
			]
		},
		{
			"children":[
				0,
				1,
				2,
				3,
				4,
				5
			],
			"mesh":6,
			"name":"Cart.001-col",
			"translation":[
				0,
				1.4329112768173218,
				0
			]
		},
		{
			"children":[
				6
			],
			"name":"ElevatorArm"
		}
	],
	"materials":[
		{
			"doubleSided":true,
			"name":"ElevatorMetal.001",
			"pbrMetallicRoughness":{
				"baseColorFactor":[
					0.4292253851890564,
					0.4292253851890564,
					0.4292253851890564,
					1
				],
				"roughnessFactor":0.30000001192092896
			}
		},
		{
			"doubleSided":true,
			"emissiveFactor":[
				1,
				1,
				1
			],
			"name":"CadranLight.001",
			"pbrMetallicRoughness":{}
		},
		{
			"doubleSided":true,
			"name":"Cadran.001",
			"pbrMetallicRoughness":{
				"baseColorFactor":[
					0,
					0,
					0,
					1
				],
				"metallicFactor":0,
				"roughnessFactor":0.30000001192092896
			}
		},
		{
			"doubleSided":true,
			"name":"License.001",
			"pbrMetallicRoughness":{
				"baseColorFactor":[
					1,
					0,
					0,
					1
				],
				"metallicFactor":0,
				"roughnessFactor":0.30000001192092896
			}
		},
		{
			"doubleSided":true,
			"name":"Mirror.001",
			"pbrMetallicRoughness":{
				"baseColorFactor":[
					0.800000011920929,
					0.800000011920929,
					0.800000011920929,
					1
				],
				"roughnessFactor":0.05000000074505806
			}
		},
		{
			"doubleSided":true,
			"name":"SafetyCol.001",
			"pbrMetallicRoughness":{
				"baseColorFactor":[
					0.570470929145813,
					0.570470929145813,
					0,
					1
				],
				"roughnessFactor":0.5
			}
		},
		{
			"doubleSided":true,
			"name":"TrapMetal.001",
			"pbrMetallicRoughness":{
				"baseColorFactor":[
					0.10653471946716309,
					0.10653471946716309,
					0.10653471946716309,
					1
				],
				"roughnessFactor":0.30000001192092896
			}
		},
		{
			"doubleSided":true,
			"emissiveFactor":[
				1,
				1,
				1
			],
			"name":"ElevatorLight.001",
			"pbrMetallicRoughness":{}
		},
		{
			"doubleSided":true,
			"name":"ElevatorFloor.001",
			"pbrMetallicRoughness":{
				"baseColorFactor":[
					0,
					0,
					0,
					1
				],
				"metallicFactor":0,
				"roughnessFactor":0.800000011920929
			}
		},
		{
			"doubleSided":true,
			"name":"ElevatorWood.001",
			"pbrMetallicRoughness":{
				"baseColorFactor":[
					0.3343234658241272,
					0.10052747279405594,
					0.009568077512085438,
					1
				],
				"metallicFactor":0,
				"roughnessFactor":0.4000000059604645
			}
		},
		{
			"doubleSided":true,
			"name":"ElevatorWoodBottom.001",
			"pbrMetallicRoughness":{
				"baseColorFactor":[
					0.42002442479133606,
					0.17370133101940155,
					0.024381715804338455,
					1
				],
				"metallicFactor":0,
				"roughnessFactor":0.4000000059604645
			}
		}
	],
	"meshes":[
		{
			"name":"Cube.007",
			"primitives":[
				{
					"attributes":{
						"POSITION":0,
						"NORMAL":1,
						"TEXCOORD_0":2
					},
					"indices":3,
					"material":0
				}
			]
		},
		{
			"name":"Cube.009",
			"primitives":[
				{
					"attributes":{
						"POSITION":4,
						"NORMAL":5,
						"TEXCOORD_0":6
					},
					"indices":7,
					"material":0
				},
				{
					"attributes":{
						"POSITION":8,
						"NORMAL":9,
						"TEXCOORD_0":10
					},
					"indices":11,
					"material":1
				},
				{
					"attributes":{
						"POSITION":12,
						"NORMAL":13,
						"TEXCOORD_0":14
					},
					"indices":15,
					"material":2
				},
				{
					"attributes":{
						"POSITION":16,
						"NORMAL":17,
						"TEXCOORD_0":18
					},
					"indices":15,
					"material":3
				}
			]
		},
		{
			"name":"Cylinder.001",
			"primitives":[
				{
					"attributes":{
						"POSITION":19,
						"NORMAL":20,
						"TEXCOORD_0":21
					},
					"indices":22,
					"material":0
				}
			]
		},
		{
			"name":"Cube.013",
			"primitives":[
				{
					"attributes":{
						"POSITION":23,
						"NORMAL":24,
						"TEXCOORD_0":25
					},
					"indices":26,
					"material":4
				},
				{
					"attributes":{
						"POSITION":27,
						"NORMAL":28,
						"TEXCOORD_0":29
					},
					"indices":30,
					"material":0
				}
			]
		},
		{
			"name":"Cube.014",
			"primitives":[
				{
					"attributes":{
						"POSITION":31,
						"NORMAL":32,
						"TEXCOORD_0":33
					},
					"indices":34,
					"material":5
				}
			]
		},
		{
			"name":"Cube.015",
			"primitives":[
				{
					"attributes":{
						"POSITION":35,
						"NORMAL":36,
						"TEXCOORD_0":37
					},
					"indices":38,
					"material":6
				}
			]
		},
		{
			"name":"Elevator.001",
			"primitives":[
				{
					"attributes":{
						"POSITION":39,
						"NORMAL":40,
						"TEXCOORD_0":41
					},
					"indices":42,
					"material":0
				},
				{
					"attributes":{
						"POSITION":43,
						"NORMAL":44,
						"TEXCOORD_0":45
					},
					"indices":46,
					"material":7
				},
				{
					"attributes":{
						"POSITION":47,
						"NORMAL":48,
						"TEXCOORD_0":49
					},
					"indices":50,
					"material":8
				},
				{
					"attributes":{
						"POSITION":51,
						"NORMAL":52,
						"TEXCOORD_0":53
					},
					"indices":54,
					"material":9
				},
				{
					"attributes":{
						"POSITION":55,
						"NORMAL":56,
						"TEXCOORD_0":57
					},
					"indices":58,
					"material":10
				}
			]
		}
	],
	"accessors":[
		{
			"bufferView":0,
			"componentType":5126,
			"count":952,
			"max":[
				1.3589534759521484,
				0.67917400598526,
				0.332389235496521
			],
			"min":[
				0.6632545590400696,
				-0.09650057554244995,
				-0.332389235496521
			],
			"type":"VEC3"
		},
		{
			"bufferView":1,
			"componentType":5126,
			"count":952,
			"type":"VEC3"
		},
		{
			"bufferView":2,
			"componentType":5126,
			"count":952,
			"type":"VEC2"
		},
		{
			"bufferView":3,
			"componentType":5123,
			"count":1428,
			"type":"SCALAR"
		},
		{
			"bufferView":4,
			"componentType":5126,
			"count":172,
			"max":[
				0.9079344272613525,
				1.2000000476837158,
				0.8991124033927917
			],
			"min":[
				-2.173006296157837,
				-1,
				-0.8991124033927917
			],
			"type":"VEC3"
		},
		{
			"bufferView":5,
			"componentType":5126,
			"count":172,
			"type":"VEC3"
		},
		{
			"bufferView":6,
			"componentType":5126,
			"count":172,
			"type":"VEC2"
		},
		{
			"bufferView":7,
			"componentType":5123,
			"count":288,
			"type":"SCALAR"
		},
		{
			"bufferView":8,
			"componentType":5126,
			"count":8,
			"max":[
				-0.01646682620048523,
				1.1390985250473022,
				0.791711151599884
			],
			"min":[
				-0.29144713282585144,
				-0.9390984773635864,
				-0.791711151599884
			],
			"type":"VEC3"
		},
		{
			"bufferView":9,
			"componentType":5126,
			"count":8,
			"type":"VEC3"
		},
		{
			"bufferView":10,
			"componentType":5126,
			"count":8,
			"type":"VEC2"
		},
		{
			"bufferView":11,
			"componentType":5123,
			"count":12,
			"type":"SCALAR"
		},
		{
			"bufferView":12,
			"componentType":5126,
			"count":8,
			"max":[
				0.32048970460891724,
				0.8838106393814087,
				0.41967809200286865
			],
			"min":[
				0.011554479598999023,
				0.7327188849449158,
				-0.41967809200286865
			],
			"type":"VEC3"
		},
		{
			"bufferView":13,
			"componentType":5126,
			"count":8,
			"type":"VEC3"
		},
		{
			"bufferView":14,
			"componentType":5126,
			"count":8,
			"type":"VEC2"
		},
		{
			"bufferView":15,
			"componentType":5123,
			"count":12,
			"type":"SCALAR"
		},
		{
			"bufferView":16,
			"componentType":5126,
			"count":8,
			"max":[
				0.8021000027656555,
				0.9458339214324951,
				0.3464912176132202
			],
			"min":[
				0.5559107065200806,
				0.9207448959350586,
				-0.3464912176132202
			],
			"type":"VEC3"
		},
		{
			"bufferView":17,
			"componentType":5126,
			"count":8,
			"type":"VEC3"
		},
		{
			"bufferView":18,
			"componentType":5126,
			"count":8,
			"type":"VEC2"
		},
		{
			"bufferView":19,
			"componentType":5126,
			"count":784,
			"max":[
				1.0609806776046753,
				0.04264441877603531,
				1.3499393463134766
			],
			"min":[
				-1.0604294538497925,
				-0.04264449700713158,
				-1.4516714811325073
			],
			"type":"VEC3"
		},
		{
			"bufferView":20,
			"componentType":5126,
			"count":784,
			"type":"VEC3"
		},
		{
			"bufferView":21,
			"componentType":5126,
			"count":784,
			"type":"VEC2"
		},
		{
			"bufferView":22,
			"componentType":5123,
			"count":1326,
			"type":"SCALAR"
		},
		{
			"bufferView":23,
			"componentType":5126,
			"count":4,
			"max":[
				-1.0153477191925049,
				1.024474859237671,
				0.5510919094085693
			],
			"min":[
				-1.0153477191925049,
				-1.3321151733398438,
				-0.5510919094085693
			],
			"type":"VEC3"
		},
		{
			"bufferView":24,
			"componentType":5126,
			"count":4,
			"type":"VEC3"
		},
		{
			"bufferView":25,
			"componentType":5126,
			"count":4,
			"type":"VEC2"
		},
		{
			"bufferView":26,
			"componentType":5123,
			"count":6,
			"type":"SCALAR"
		},
		{
			"bufferView":27,
			"componentType":5126,
			"count":20,
			"max":[
				-1.0153477191925049,
				1.024474859237671,
				0.5510919094085693
			],
			"min":[
				-1.0478293895721436,
				-1.3321151733398438,
				-0.5510919094085693
			],
			"type":"VEC3"
		},
		{
			"bufferView":28,
			"componentType":5126,
			"count":20,
			"type":"VEC3"
		},
		{
			"bufferView":29,
			"componentType":5126,
			"count":20,
			"type":"VEC2"
		},
		{
			"bufferView":30,
			"componentType":5123,
			"count":30,
			"type":"SCALAR"
		},
		{
			"bufferView":31,
			"componentType":5126,
			"count":1494,
			"max":[
				1.128957748413086,
				1.9277266263961792,
				1.5478838682174683
			],
			"min":[
				-1.128957748413086,
				1.4696776866912842,
				-1.4789577722549438
			],
			"type":"VEC3"
		},
		{
			"bufferView":32,
			"componentType":5126,
			"count":1494,
			"type":"VEC3"
		},
		{
			"bufferView":33,
			"componentType":5126,
			"count":1494,
			"type":"VEC2"
		},
		{
			"bufferView":34,
			"componentType":5123,
			"count":1956,
			"type":"SCALAR"
		},
		{
			"bufferView":35,
			"componentType":5126,
			"count":240,
			"max":[
				1.1025537252426147,
				0.1062249094247818,
				0.2866753339767456
			],
			"min":[
				1.7881393432617188e-07,
				-0.03666327893733978,
				-0.28668367862701416
			],
			"type":"VEC3"
		},
		{
			"bufferView":36,
			"componentType":5126,
			"count":240,
			"type":"VEC3"
		},
		{
			"bufferView":37,
			"componentType":5126,
			"count":240,
			"type":"VEC2"
		},
		{
			"bufferView":38,
			"componentType":5123,
			"count":420,
			"type":"SCALAR"
		},
		{
			"bufferView":39,
			"componentType":5126,
			"count":479,
			"max":[
				1.159999966621399,
				1.5100001096725464,
				1.5789260864257812
			],
			"min":[
				-1.159999966621399,
				-1.5062321424484253,
				-1.5099999904632568
			],
			"type":"VEC3"
		},
		{
			"bufferView":40,
			"componentType":5126,
			"count":479,
			"type":"VEC3"
		},
		{
			"bufferView":41,
			"componentType":5126,
			"count":479,
			"type":"VEC2"
		},
		{
			"bufferView":42,
			"componentType":5123,
			"count":1023,
			"type":"SCALAR"
		},
		{
			"bufferView":43,
			"componentType":5126,
			"count":8,
			"max":[
				0.8905579447746277,
				1.443514347076416,
				0.6849954724311829
			],
			"min":[
				-0.8905579447746277,
				1.443514347076416,
				-0.6849954724311829
			],
			"type":"VEC3"
		},
		{
			"bufferView":44,
			"componentType":5126,
			"count":8,
			"type":"VEC3"
		},
		{
			"bufferView":45,
			"componentType":5126,
			"count":8,
			"type":"VEC2"
		},
		{
			"bufferView":46,
			"componentType":5123,
			"count":12,
			"type":"SCALAR"
		},
		{
			"bufferView":47,
			"componentType":5126,
			"count":9,
			"max":[
				1.0499999523162842,
				-1.4000000953674316,
				1.399999976158142
			],
			"min":[
				-1.0499999523162842,
				-1.4000000953674316,
				-1.399999976158142
			],
			"type":"VEC3"
		},
		{
			"bufferView":48,
			"componentType":5126,
			"count":9,
			"type":"VEC3"
		},
		{
			"bufferView":49,
			"componentType":5126,
			"count":9,
			"type":"VEC2"
		},
		{
			"bufferView":50,
			"componentType":5123,
			"count":18,
			"type":"SCALAR"
		},
		{
			"bufferView":51,
			"componentType":5126,
			"count":45,
			"max":[
				1.086574912071228,
				1.4000000953674316,
				1.399999976158142
			],
			"min":[
				-1.086574912071228,
				-1.2780455350875854,
				-1.436574935913086
			],
			"type":"VEC3"
		},
		{
			"bufferView":52,
			"componentType":5126,
			"count":45,
			"type":"VEC3"
		},
		{
			"bufferView":53,
			"componentType":5126,
			"count":45,
			"type":"VEC2"
		},
		{
			"bufferView":54,
			"componentType":5123,
			"count":114,
			"type":"SCALAR"
		},
		{
			"bufferView":55,
			"componentType":5126,
			"count":31,
			"max":[
				1.098374843597412,
				1.0923599004745483,
				1.5789260864257812
			],
			"min":[
				-1.086574912071228,
				-1.4000000953674316,
				-1.436574935913086
			],
			"type":"VEC3"
		},
		{
			"bufferView":56,
			"componentType":5126,
			"count":31,
			"type":"VEC3"
		},
		{
			"bufferView":57,
			"componentType":5126,
			"count":31,
			"type":"VEC2"
		},
		{
			"bufferView":58,
			"componentType":5123,
			"count":63,
			"type":"SCALAR"
		}
	],
	"bufferViews":[
		{
			"buffer":0,
			"byteLength":11424,
			"byteOffset":0,
			"target":34962
		},
		{
			"buffer":0,
			"byteLength":11424,
			"byteOffset":11424,
			"target":34962
		},
		{
			"buffer":0,
			"byteLength":7616,
			"byteOffset":22848,
			"target":34962
		},
		{
			"buffer":0,
			"byteLength":2856,
			"byteOffset":30464,
			"target":34963
		},
		{
			"buffer":0,
			"byteLength":2064,
			"byteOffset":33320,
			"target":34962
		},
		{
			"buffer":0,
			"byteLength":2064,
			"byteOffset":35384,
			"target":34962
		},
		{
			"buffer":0,
			"byteLength":1376,
			"byteOffset":37448,
			"target":34962
		},
		{
			"buffer":0,
			"byteLength":576,
			"byteOffset":38824,
			"target":34963
		},
		{
			"buffer":0,
			"byteLength":96,
			"byteOffset":39400,
			"target":34962
		},
		{
			"buffer":0,
			"byteLength":96,
			"byteOffset":39496,
			"target":34962
		},
		{
			"buffer":0,
			"byteLength":64,
			"byteOffset":39592,
			"target":34962
		},
		{
			"buffer":0,
			"byteLength":24,
			"byteOffset":39656,
			"target":34963
		},
		{
			"buffer":0,
			"byteLength":96,
			"byteOffset":39680,
			"target":34962
		},
		{
			"buffer":0,
			"byteLength":96,
			"byteOffset":39776,
			"target":34962
		},
		{
			"buffer":0,
			"byteLength":64,
			"byteOffset":39872,
			"target":34962
		},
		{
			"buffer":0,
			"byteLength":24,
			"byteOffset":39936,
			"target":34963
		},
		{
			"buffer":0,
			"byteLength":96,
			"byteOffset":39960,
			"target":34962
		},
		{
			"buffer":0,
			"byteLength":96,
			"byteOffset":40056,
			"target":34962
		},
		{
			"buffer":0,
			"byteLength":64,
			"byteOffset":40152,
			"target":34962
		},
		{
			"buffer":0,
			"byteLength":9408,
			"byteOffset":40216,
			"target":34962
		},
		{
			"buffer":0,
			"byteLength":9408,
			"byteOffset":49624,
			"target":34962
		},
		{
			"buffer":0,
			"byteLength":6272,
			"byteOffset":59032,
			"target":34962
		},
		{
			"buffer":0,
			"byteLength":2652,
			"byteOffset":65304,
			"target":34963
		},
		{
			"buffer":0,
			"byteLength":48,
			"byteOffset":67956,
			"target":34962
		},
		{
			"buffer":0,
			"byteLength":48,
			"byteOffset":68004,
			"target":34962
		},
		{
			"buffer":0,
			"byteLength":32,
			"byteOffset":68052,
			"target":34962
		},
		{
			"buffer":0,
			"byteLength":12,
			"byteOffset":68084,
			"target":34963
		},
		{
			"buffer":0,
			"byteLength":240,
			"byteOffset":68096,
			"target":34962
		},
		{
			"buffer":0,
			"byteLength":240,
			"byteOffset":68336,
			"target":34962
		},
		{
			"buffer":0,
			"byteLength":160,
			"byteOffset":68576,
			"target":34962
		},
		{
			"buffer":0,
			"byteLength":60,
			"byteOffset":68736,
			"target":34963
		},
		{
			"buffer":0,
			"byteLength":17928,
			"byteOffset":68796,
			"target":34962
		},
		{
			"buffer":0,
			"byteLength":17928,
			"byteOffset":86724,
			"target":34962
		},
		{
			"buffer":0,
			"byteLength":11952,
			"byteOffset":104652,
			"target":34962
		},
		{
			"buffer":0,
			"byteLength":3912,
			"byteOffset":116604,
			"target":34963
		},
		{
			"buffer":0,
			"byteLength":2880,
			"byteOffset":120516,
			"target":34962
		},
		{
			"buffer":0,
			"byteLength":2880,
			"byteOffset":123396,
			"target":34962
		},
		{
			"buffer":0,
			"byteLength":1920,
			"byteOffset":126276,
			"target":34962
		},
		{
			"buffer":0,
			"byteLength":840,
			"byteOffset":128196,
			"target":34963
		},
		{
			"buffer":0,
			"byteLength":5748,
			"byteOffset":129036,
			"target":34962
		},
		{
			"buffer":0,
			"byteLength":5748,
			"byteOffset":134784,
			"target":34962
		},
		{
			"buffer":0,
			"byteLength":3832,
			"byteOffset":140532,
			"target":34962
		},
		{
			"buffer":0,
			"byteLength":2046,
			"byteOffset":144364,
			"target":34963
		},
		{
			"buffer":0,
			"byteLength":96,
			"byteOffset":146412,
			"target":34962
		},
		{
			"buffer":0,
			"byteLength":96,
			"byteOffset":146508,
			"target":34962
		},
		{
			"buffer":0,
			"byteLength":64,
			"byteOffset":146604,
			"target":34962
		},
		{
			"buffer":0,
			"byteLength":24,
			"byteOffset":146668,
			"target":34963
		},
		{
			"buffer":0,
			"byteLength":108,
			"byteOffset":146692,
			"target":34962
		},
		{
			"buffer":0,
			"byteLength":108,
			"byteOffset":146800,
			"target":34962
		},
		{
			"buffer":0,
			"byteLength":72,
			"byteOffset":146908,
			"target":34962
		},
		{
			"buffer":0,
			"byteLength":36,
			"byteOffset":146980,
			"target":34963
		},
		{
			"buffer":0,
			"byteLength":540,
			"byteOffset":147016,
			"target":34962
		},
		{
			"buffer":0,
			"byteLength":540,
			"byteOffset":147556,
			"target":34962
		},
		{
			"buffer":0,
			"byteLength":360,
			"byteOffset":148096,
			"target":34962
		},
		{
			"buffer":0,
			"byteLength":228,
			"byteOffset":148456,
			"target":34963
		},
		{
			"buffer":0,
			"byteLength":372,
			"byteOffset":148684,
			"target":34962
		},
		{
			"buffer":0,
			"byteLength":372,
			"byteOffset":149056,
			"target":34962
		},
		{
			"buffer":0,
			"byteLength":248,
			"byteOffset":149428,
			"target":34962
		},
		{
			"buffer":0,
			"byteLength":126,
			"byteOffset":149676,
			"target":34963
		}
	],
	"buffers":[
		{
			"byteLength":149804,
			"uri":"ElevatorArm.bin"
		}
	]
}
