{
	"asset":{
		"generator":"Khronos glTF Blender I/O v4.1.63",
		"version":"2.0"
	},
	"extensionsUsed":[
		"KHR_materials_emissive_strength"
	],
	"scene":0,
	"scenes":[
		{
			"extras":{
				"aad_props":{
					"distribute_pattern":1,
					"grid_2d":[
						20,
						20
					],
					"size_2d":[
						2.0,
						2.0
					]
				},
				"batch_export_preferences":{
					"_directory":"H:\\Year12Godot\\MyGame\\Models\\"
				},
				"gltf_batch_export_preferences":{
					"export_format":1,
					"export_image_format":0
				},
				"sourceFilename":"D:\\Assests .blend"
			},
			"name":"Scene",
			"nodes":[
				8
			]
		}
	],
	"nodes":[
		{
			"mesh":0,
			"name":"bonnetPlates",
			"translation":[
				-2.1780905723571777,
				-0.27371716499328613,
				0.07182140648365021
			]
		},
		{
			"mesh":1,
			"name":"bullBar",
			"translation":[
				-2.2215747833251953,
				-0.28448939323425293,
				0.07182140648365021
			]
		},
		{
			"mesh":2,
			"name":"lfWheel.003",
			"translation":[
				2.1342124938964844,
				0.24627792835235596,
				0.07182140648365021
			]
		},
		{
			"mesh":3,
			"name":"rfWheel.002",
			"translation":[
				2.1342124938964844,
				0.24627792835235596,
				0.07182140648365021
			]
		},
		{
			"mesh":4,
			"name":"rfWheel.003",
			"translation":[
				2.1342124938964844,
				0.24627792835235596,
				0.07182140648365021
			]
		},
		{
			"mesh":5,
			"name":"roofRack",
			"rotation":[
				0,
				0.7071068286895752,
				0,
				0.7071067094802856
			],
			"translation":[
				-1.2315623760223389,
				0.3145254850387573,
				-0.017110086977481842
			]
		},
		{
			"mesh":6,
			"name":"rrWheel.001",
			"translation":[
				2.1342124938964844,
				0.24627792835235596,
				0.07182140648365021
			]
		},
		{
			"mesh":7,
			"name":"snorkel",
			"translation":[
				-2.1780905723571777,
				-0.28448939323425293,
				0.07182140648365021
			]
		},
		{
			"children":[
				0,
				1,
				2,
				3,
				4,
				5,
				6,
				7
			],
			"mesh":8,
			"name":"landy"
		}
	],
	"materials":[
		{
			"doubleSided":true,
			"name":"baseGradient.014",
			"pbrMetallicRoughness":{
				"baseColorTexture":{
					"index":0
				},
				"metallicFactor":0,
				"roughnessFactor":0.5336787700653076
			}
		},
		{
			"doubleSided":true,
			"emissiveFactor":[
				1,
				1,
				1
			],
			"emissiveTexture":{
				"index":1
			},
			"extensions":{
				"KHR_materials_emissive_strength":{
					"emissiveStrength":18.19999885559082
				}
			},
			"name":"gradientEmmisive.014",
			"pbrMetallicRoughness":{
				"baseColorTexture":{
					"index":2
				},
				"metallicFactor":0
			}
		},
		{
			"doubleSided":true,
			"name":"blackGlass.014",
			"pbrMetallicRoughness":{
				"baseColorFactor":[
					0,
					0,
					0,
					1
				],
				"metallicFactor":0,
				"roughnessFactor":0
			}
		}
	],
	"meshes":[
		{
			"name":"Vert.016",
			"primitives":[
				{
					"attributes":{
						"POSITION":0,
						"NORMAL":1,
						"TEXCOORD_0":2
					},
					"indices":3,
					"material":0
				}
			]
		},
		{
			"name":"Vert.017",
			"primitives":[
				{
					"attributes":{
						"POSITION":4,
						"NORMAL":5,
						"TEXCOORD_0":6
					},
					"indices":7,
					"material":0
				},
				{
					"attributes":{
						"POSITION":8,
						"NORMAL":9,
						"TEXCOORD_0":10
					},
					"indices":11,
					"material":1
				}
			]
		},
		{
			"name":"Plane.031",
			"primitives":[
				{
					"attributes":{
						"POSITION":12,
						"NORMAL":13,
						"TEXCOORD_0":14
					},
					"indices":15,
					"material":0
				}
			]
		},
		{
			"name":"Plane.035",
			"primitives":[
				{
					"attributes":{
						"POSITION":16,
						"NORMAL":17,
						"TEXCOORD_0":18
					},
					"indices":19,
					"material":0
				}
			]
		},
		{
			"name":"Plane.033",
			"primitives":[
				{
					"attributes":{
						"POSITION":20,
						"NORMAL":21,
						"TEXCOORD_0":22
					},
					"indices":23,
					"material":0
				}
			]
		},
		{
			"name":"Vert.018",
			"primitives":[
				{
					"attributes":{
						"POSITION":24,
						"NORMAL":25,
						"TEXCOORD_0":26
					},
					"indices":27,
					"material":0
				},
				{
					"attributes":{
						"POSITION":28,
						"NORMAL":29,
						"TEXCOORD_0":30
					},
					"indices":31,
					"material":1
				}
			]
		},
		{
			"name":"Plane.034",
			"primitives":[
				{
					"attributes":{
						"POSITION":32,
						"NORMAL":33,
						"TEXCOORD_0":34
					},
					"indices":35,
					"material":0
				}
			]
		},
		{
			"name":"Vert.019",
			"primitives":[
				{
					"attributes":{
						"POSITION":36,
						"NORMAL":37,
						"TEXCOORD_0":38
					},
					"indices":39,
					"material":0
				}
			]
		},
		{
			"name":"Plane.038",
			"primitives":[
				{
					"attributes":{
						"POSITION":40,
						"NORMAL":41,
						"TEXCOORD_0":42
					},
					"indices":43,
					"material":0
				},
				{
					"attributes":{
						"POSITION":44,
						"NORMAL":45,
						"TEXCOORD_0":46
					},
					"indices":47,
					"material":1
				},
				{
					"attributes":{
						"POSITION":48,
						"NORMAL":49,
						"TEXCOORD_0":50
					},
					"indices":51,
					"material":2
				}
			]
		}
	],
	"textures":[
		{
			"sampler":0,
			"source":0
		},
		{
			"sampler":0,
			"source":0
		},
		{
			"sampler":0,
			"source":0
		}
	],
	"images":[
		{
			"mimeType":"image/png",
			"name":"387359c5580f06c08c266126b3b46db47e48ba44",
			"uri":"387359c5580f06c08c266126b3b46db47e48ba44.png"
		}
	],
	"accessors":[
		{
			"bufferView":0,
			"componentType":5126,
			"count":84,
			"max":[
				0.41985663771629333,
				0.4111751616001129,
				1.1401883363723755
			],
			"min":[
				-0.5435085296630859,
				0.39653289318084717,
				-1.1401883363723755
			],
			"type":"VEC3"
		},
		{
			"bufferView":1,
			"componentType":5126,
			"count":84,
			"type":"VEC3"
		},
		{
			"bufferView":2,
			"componentType":5126,
			"count":84,
			"type":"VEC2"
		},
		{
			"bufferView":3,
			"componentType":5123,
			"count":168,
			"type":"SCALAR"
		},
		{
			"bufferView":4,
			"componentType":5126,
			"count":1008,
			"max":[
				-0.769092321395874,
				0.20169253647327423,
				1.1378471851348877
			],
			"min":[
				-0.8715739846229553,
				-0.5204734206199646,
				-1.1378471851348877
			],
			"type":"VEC3"
		},
		{
			"bufferView":5,
			"componentType":5126,
			"count":1008,
			"type":"VEC3"
		},
		{
			"bufferView":6,
			"componentType":5126,
			"count":1008,
			"type":"VEC2"
		},
		{
			"bufferView":7,
			"componentType":5123,
			"count":1644,
			"type":"SCALAR"
		},
		{
			"bufferView":8,
			"componentType":5126,
			"count":24,
			"max":[
				-0.8593583703041077,
				0.09250618517398834,
				0.32263028621673584
			],
			"min":[
				-0.8593584299087524,
				-0.18810667097568512,
				-0.32263025641441345
			],
			"type":"VEC3"
		},
		{
			"bufferView":9,
			"componentType":5126,
			"count":24,
			"type":"VEC3"
		},
		{
			"bufferView":10,
			"componentType":5126,
			"count":24,
			"type":"VEC2"
		},
		{
			"bufferView":11,
			"componentType":5123,
			"count":60,
			"type":"SCALAR"
		},
		{
			"bufferView":12,
			"componentType":5126,
			"count":784,
			"max":[
				-3.8149805068969727,
				-0.7143735885620117,
				1.2679641246795654
			],
			"min":[
				-4.960227012634277,
				-1.859619140625,
				0.9229017496109009
			],
			"type":"VEC3"
		},
		{
			"bufferView":13,
			"componentType":5126,
			"count":784,
			"type":"VEC3"
		},
		{
			"bufferView":14,
			"componentType":5126,
			"count":784,
			"type":"VEC2"
		},
		{
			"bufferView":15,
			"componentType":5123,
			"count":1452,
			"type":"SCALAR"
		},
		{
			"bufferView":16,
			"componentType":5126,
			"count":784,
			"max":[
				0.4348602890968323,
				-0.7143735885620117,
				1.2679641246795654
			],
			"min":[
				-0.7103859186172485,
				-1.8596190214157104,
				0.9229017496109009
			],
			"type":"VEC3"
		},
		{
			"bufferView":17,
			"componentType":5126,
			"count":784,
			"type":"VEC3"
		},
		{
			"bufferView":18,
			"componentType":5126,
			"count":784,
			"type":"VEC2"
		},
		{
			"bufferView":19,
			"componentType":5123,
			"count":1452,
			"type":"SCALAR"
		},
		{
			"bufferView":20,
			"componentType":5126,
			"count":784,
			"max":[
				-3.8149805068969727,
				-0.7143735885620117,
				-0.9229016304016113
			],
			"min":[
				-4.960227012634277,
				-1.859619140625,
				-1.2679638862609863
			],
			"type":"VEC3"
		},
		{
			"bufferView":21,
			"componentType":5126,
			"count":784,
			"type":"VEC3"
		},
		{
			"bufferView":22,
			"componentType":5126,
			"count":784,
			"type":"VEC2"
		},
		{
			"bufferView":23,
			"componentType":5123,
			"count":1452,
			"type":"SCALAR"
		},
		{
			"bufferView":24,
			"componentType":5126,
			"count":3288,
			"max":[
				1.1176228523254395,
				1.7367006540298462,
				4.655916213989258
			],
			"min":[
				-1.2954862117767334,
				-0.0954182967543602,
				0.023201890289783478
			],
			"type":"VEC3"
		},
		{
			"bufferView":25,
			"componentType":5126,
			"count":3288,
			"type":"VEC3"
		},
		{
			"bufferView":26,
			"componentType":5126,
			"count":3288,
			"type":"VEC2"
		},
		{
			"bufferView":27,
			"componentType":5123,
			"count":5988,
			"type":"SCALAR"
		},
		{
			"bufferView":28,
			"componentType":5126,
			"count":48,
			"max":[
				0.789659857749939,
				1.049846887588501,
				0.35062864422798157
			],
			"min":[
				-0.9675229787826538,
				0.8028696775436401,
				0.35062840580940247
			],
			"type":"VEC3"
		},
		{
			"bufferView":29,
			"componentType":5126,
			"count":48,
			"type":"VEC3"
		},
		{
			"bufferView":30,
			"componentType":5126,
			"count":48,
			"type":"VEC2"
		},
		{
			"bufferView":31,
			"componentType":5123,
			"count":120,
			"type":"SCALAR"
		},
		{
			"bufferView":32,
			"componentType":5126,
			"count":784,
			"max":[
				0.4348602890968323,
				-0.7143735885620117,
				-0.9229016304016113
			],
			"min":[
				-0.7103859186172485,
				-1.8596190214157104,
				-1.2679638862609863
			],
			"type":"VEC3"
		},
		{
			"bufferView":33,
			"componentType":5126,
			"count":784,
			"type":"VEC3"
		},
		{
			"bufferView":34,
			"componentType":5126,
			"count":784,
			"type":"VEC2"
		},
		{
			"bufferView":35,
			"componentType":5123,
			"count":1452,
			"type":"SCALAR"
		},
		{
			"bufferView":36,
			"componentType":5126,
			"count":260,
			"max":[
				1.4467127323150635,
				1.580580472946167,
				-0.9211068153381348
			],
			"min":[
				0.7014576196670532,
				0.12336579710245132,
				-1.2773109674453735
			],
			"type":"VEC3"
		},
		{
			"bufferView":37,
			"componentType":5126,
			"count":260,
			"type":"VEC3"
		},
		{
			"bufferView":38,
			"componentType":5126,
			"count":260,
			"type":"VEC2"
		},
		{
			"bufferView":39,
			"componentType":5123,
			"count":426,
			"type":"SCALAR"
		},
		{
			"bufferView":40,
			"componentType":5126,
			"count":5299,
			"max":[
				3.806511878967285,
				1.3668485879898071,
				1.5095940828323364
			],
			"min":[
				-3.1196436882019043,
				-1.3307377099990845,
				-1.3659502267837524
			],
			"type":"VEC3"
		},
		{
			"bufferView":41,
			"componentType":5126,
			"count":5299,
			"type":"VEC3"
		},
		{
			"bufferView":42,
			"componentType":5126,
			"count":5299,
			"type":"VEC2"
		},
		{
			"bufferView":43,
			"componentType":5123,
			"count":10098,
			"type":"SCALAR"
		},
		{
			"bufferView":44,
			"componentType":5126,
			"count":402,
			"max":[
				3.499265670776367,
				0.17483200132846832,
				1.2015167474746704
			],
			"min":[
				-2.979804039001465,
				-0.568576455116272,
				-1.145060420036316
			],
			"type":"VEC3"
		},
		{
			"bufferView":45,
			"componentType":5126,
			"count":402,
			"type":"VEC3"
		},
		{
			"bufferView":46,
			"componentType":5126,
			"count":402,
			"type":"VEC2"
		},
		{
			"bufferView":47,
			"componentType":5123,
			"count":840,
			"type":"SCALAR"
		},
		{
			"bufferView":48,
			"componentType":5126,
			"count":154,
			"max":[
				3.4738621711730957,
				1.3268978595733643,
				1.2203081846237183
			],
			"min":[
				-1.0979876518249512,
				0.28788673877716064,
				-1.0766645669937134
			],
			"type":"VEC3"
		},
		{
			"bufferView":49,
			"componentType":5126,
			"count":154,
			"type":"VEC3"
		},
		{
			"bufferView":50,
			"componentType":5126,
			"count":154,
			"type":"VEC2"
		},
		{
			"bufferView":51,
			"componentType":5123,
			"count":390,
			"type":"SCALAR"
		}
	],
	"bufferViews":[
		{
			"buffer":0,
			"byteLength":1008,
			"byteOffset":0,
			"target":34962
		},
		{
			"buffer":0,
			"byteLength":1008,
			"byteOffset":1008,
			"target":34962
		},
		{
			"buffer":0,
			"byteLength":672,
			"byteOffset":2016,
			"target":34962
		},
		{
			"buffer":0,
			"byteLength":336,
			"byteOffset":2688,
			"target":34963
		},
		{
			"buffer":0,
			"byteLength":12096,
			"byteOffset":3024,
			"target":34962
		},
		{
			"buffer":0,
			"byteLength":12096,
			"byteOffset":15120,
			"target":34962
		},
		{
			"buffer":0,
			"byteLength":8064,
			"byteOffset":27216,
			"target":34962
		},
		{
			"buffer":0,
			"byteLength":3288,
			"byteOffset":35280,
			"target":34963
		},
		{
			"buffer":0,
			"byteLength":288,
			"byteOffset":38568,
			"target":34962
		},
		{
			"buffer":0,
			"byteLength":288,
			"byteOffset":38856,
			"target":34962
		},
		{
			"buffer":0,
			"byteLength":192,
			"byteOffset":39144,
			"target":34962
		},
		{
			"buffer":0,
			"byteLength":120,
			"byteOffset":39336,
			"target":34963
		},
		{
			"buffer":0,
			"byteLength":9408,
			"byteOffset":39456,
			"target":34962
		},
		{
			"buffer":0,
			"byteLength":9408,
			"byteOffset":48864,
			"target":34962
		},
		{
			"buffer":0,
			"byteLength":6272,
			"byteOffset":58272,
			"target":34962
		},
		{
			"buffer":0,
			"byteLength":2904,
			"byteOffset":64544,
			"target":34963
		},
		{
			"buffer":0,
			"byteLength":9408,
			"byteOffset":67448,
			"target":34962
		},
		{
			"buffer":0,
			"byteLength":9408,
			"byteOffset":76856,
			"target":34962
		},
		{
			"buffer":0,
			"byteLength":6272,
			"byteOffset":86264,
			"target":34962
		},
		{
			"buffer":0,
			"byteLength":2904,
			"byteOffset":92536,
			"target":34963
		},
		{
			"buffer":0,
			"byteLength":9408,
			"byteOffset":95440,
			"target":34962
		},
		{
			"buffer":0,
			"byteLength":9408,
			"byteOffset":104848,
			"target":34962
		},
		{
			"buffer":0,
			"byteLength":6272,
			"byteOffset":114256,
			"target":34962
		},
		{
			"buffer":0,
			"byteLength":2904,
			"byteOffset":120528,
			"target":34963
		},
		{
			"buffer":0,
			"byteLength":39456,
			"byteOffset":123432,
			"target":34962
		},
		{
			"buffer":0,
			"byteLength":39456,
			"byteOffset":162888,
			"target":34962
		},
		{
			"buffer":0,
			"byteLength":26304,
			"byteOffset":202344,
			"target":34962
		},
		{
			"buffer":0,
			"byteLength":11976,
			"byteOffset":228648,
			"target":34963
		},
		{
			"buffer":0,
			"byteLength":576,
			"byteOffset":240624,
			"target":34962
		},
		{
			"buffer":0,
			"byteLength":576,
			"byteOffset":241200,
			"target":34962
		},
		{
			"buffer":0,
			"byteLength":384,
			"byteOffset":241776,
			"target":34962
		},
		{
			"buffer":0,
			"byteLength":240,
			"byteOffset":242160,
			"target":34963
		},
		{
			"buffer":0,
			"byteLength":9408,
			"byteOffset":242400,
			"target":34962
		},
		{
			"buffer":0,
			"byteLength":9408,
			"byteOffset":251808,
			"target":34962
		},
		{
			"buffer":0,
			"byteLength":6272,
			"byteOffset":261216,
			"target":34962
		},
		{
			"buffer":0,
			"byteLength":2904,
			"byteOffset":267488,
			"target":34963
		},
		{
			"buffer":0,
			"byteLength":3120,
			"byteOffset":270392,
			"target":34962
		},
		{
			"buffer":0,
			"byteLength":3120,
			"byteOffset":273512,
			"target":34962
		},
		{
			"buffer":0,
			"byteLength":2080,
			"byteOffset":276632,
			"target":34962
		},
		{
			"buffer":0,
			"byteLength":852,
			"byteOffset":278712,
			"target":34963
		},
		{
			"buffer":0,
			"byteLength":63588,
			"byteOffset":279564,
			"target":34962
		},
		{
			"buffer":0,
			"byteLength":63588,
			"byteOffset":343152,
			"target":34962
		},
		{
			"buffer":0,
			"byteLength":42392,
			"byteOffset":406740,
			"target":34962
		},
		{
			"buffer":0,
			"byteLength":20196,
			"byteOffset":449132,
			"target":34963
		},
		{
			"buffer":0,
			"byteLength":4824,
			"byteOffset":469328,
			"target":34962
		},
		{
			"buffer":0,
			"byteLength":4824,
			"byteOffset":474152,
			"target":34962
		},
		{
			"buffer":0,
			"byteLength":3216,
			"byteOffset":478976,
			"target":34962
		},
		{
			"buffer":0,
			"byteLength":1680,
			"byteOffset":482192,
			"target":34963
		},
		{
			"buffer":0,
			"byteLength":1848,
			"byteOffset":483872,
			"target":34962
		},
		{
			"buffer":0,
			"byteLength":1848,
			"byteOffset":485720,
			"target":34962
		},
		{
			"buffer":0,
			"byteLength":1232,
			"byteOffset":487568,
			"target":34962
		},
		{
			"buffer":0,
			"byteLength":780,
			"byteOffset":488800,
			"target":34963
		}
	],
	"samplers":[
		{
			"magFilter":9729,
			"minFilter":9987
		}
	],
	"buffers":[
		{
			"byteLength":489580,
			"uri":"landy.bin"
		}
	]
}
