{
	"asset":{
		"generator":"Khronos glTF Blender I/O v4.1.63",
		"version":"2.0"
	},
	"extensionsUsed":[
		"KHR_materials_specular"
	],
	"scene":0,
	"scenes":[
		{
			"extras":{
				"aad_props":{
					"distribute_pattern":1,
					"grid_2d":[
						20,
						20
					],
					"size_2d":[
						2.0,
						2.0
					]
				},
				"batch_export_preferences":{
					"_directory":"H:\\Year12Godot\\MyGame\\Models\\"
				},
				"gltf_batch_export_preferences":{
					"export_format":1,
					"export_image_format":0
				},
				"sourceFilename":"D:\\Assests .blend"
			},
			"name":"Scene",
			"nodes":[
				0
			]
		}
	],
	"nodes":[
		{
			"mesh":0,
			"name":"object4.021-col"
		}
	],
	"materials":[
		{
			"doubleSided":true,
			"extensions":{
				"KHR_materials_specular":{
					"specularColorFactor":[
						2.0,
						2.0,
						2.0
					]
				}
			},
			"name":"Wood_Dark.031",
			"pbrMetallicRoughness":{
				"baseColorFactor":[
					0.5175999999046326,
					0.4196000099182129,
					0.33329999446868896,
					1
				],
				"metallicFactor":0
			}
		}
	],
	"meshes":[
		{
			"name":"object4.021",
			"primitives":[
				{
					"attributes":{
						"POSITION":0,
						"NORMAL":1,
						"TEXCOORD_0":2
					},
					"indices":3,
					"material":0
				}
			]
		}
	],
	"accessors":[
		{
			"bufferView":0,
			"componentType":5126,
			"count":276,
			"max":[
				0.534375011920929,
				1.2554999589920044,
				-0.3587837815284729
			],
			"min":[
				-0.534375011920929,
				-1.2419999837875366,
				-0.824999988079071
			],
			"type":"VEC3"
		},
		{
			"bufferView":1,
			"componentType":5126,
			"count":276,
			"type":"VEC3"
		},
		{
			"bufferView":2,
			"componentType":5126,
			"count":276,
			"type":"VEC2"
		},
		{
			"bufferView":3,
			"componentType":5123,
			"count":468,
			"type":"SCALAR"
		}
	],
	"bufferViews":[
		{
			"buffer":0,
			"byteLength":3312,
			"byteOffset":0,
			"target":34962
		},
		{
			"buffer":0,
			"byteLength":3312,
			"byteOffset":3312,
			"target":34962
		},
		{
			"buffer":0,
			"byteLength":2208,
			"byteOffset":6624,
			"target":34962
		},
		{
			"buffer":0,
			"byteLength":936,
			"byteOffset":8832,
			"target":34963
		}
	],
	"buffers":[
		{
			"byteLength":9768,
			"uri":"object4_021-col.bin"
		}
	]
}
