{
	"asset":{
		"generator":"Khronos glTF Blender I/O v4.1.63",
		"version":"2.0"
	},
	"scene":0,
	"scenes":[
		{
			"extras":{
				"aad_props":{
					"distribute_pattern":1,
					"grid_2d":[
						20,
						20
					],
					"size_2d":[
						2.0,
						2.0
					]
				},
				"batch_export_preferences":{
					"_directory":"H:\\Year12Godot\\MyGame\\Models\\"
				},
				"gltf_batch_export_preferences":{
					"export_format":1,
					"export_image_format":0
				},
				"sourceFilename":"D:\\Assests .blend"
			},
			"name":"Scene",
			"nodes":[
				1
			]
		}
	],
	"nodes":[
		{
			"mesh":0,
			"name":"Portal_01_Hole",
			"translation":[
				0.023469924926757812,
				0.05760294198989868,
				-1.2205936908721924
			]
		},
		{
			"children":[
				0
			],
			"mesh":1,
			"name":"Portal_01-col"
		}
	],
	"materials":[
		{
			"doubleSided":true,
			"name":"Material.005",
			"pbrMetallicRoughness":{
				"baseColorFactor":[
					0.06683145463466644,
					0.07051972299814224,
					1,
					1
				],
				"metallicFactor":0,
				"roughnessFactor":0.5
			}
		},
		{
			"doubleSided":true,
			"name":"Material.004",
			"pbrMetallicRoughness":{
				"baseColorFactor":[
					0.4460635781288147,
					0.3949704170227051,
					0.45447105169296265,
					1
				],
				"metallicFactor":0,
				"roughnessFactor":0.5
			}
		}
	],
	"meshes":[
		{
			"name":"Portal_01_Hole",
			"primitives":[
				{
					"attributes":{
						"POSITION":0,
						"NORMAL":1,
						"TEXCOORD_0":2
					},
					"indices":3,
					"material":0
				}
			]
		},
		{
			"name":"Portal_01",
			"primitives":[
				{
					"attributes":{
						"POSITION":4,
						"NORMAL":5,
						"TEXCOORD_0":6
					},
					"indices":7,
					"material":1
				}
			]
		}
	],
	"accessors":[
		{
			"bufferView":0,
			"componentType":5126,
			"count":22,
			"max":[
				0.8273096680641174,
				0.032179661095142365,
				0.8698849081993103
			],
			"min":[
				-0.8273097276687622,
				-0.032179661095142365,
				-0.8698849081993103
			],
			"type":"VEC3"
		},
		{
			"bufferView":1,
			"componentType":5126,
			"count":22,
			"type":"VEC3"
		},
		{
			"bufferView":2,
			"componentType":5126,
			"count":22,
			"type":"VEC2"
		},
		{
			"bufferView":3,
			"componentType":5123,
			"count":60,
			"type":"SCALAR"
		},
		{
			"bufferView":4,
			"componentType":5126,
			"count":9953,
			"max":[
				1.302722692489624,
				1.3475357294082642,
				0.0781034380197525
			],
			"min":[
				-1.2746344804763794,
				-1.2429882287979126,
				-2.249202251434326
			],
			"type":"VEC3"
		},
		{
			"bufferView":5,
			"componentType":5126,
			"count":9953,
			"type":"VEC3"
		},
		{
			"bufferView":6,
			"componentType":5126,
			"count":9953,
			"type":"VEC2"
		},
		{
			"bufferView":7,
			"componentType":5123,
			"count":11235,
			"type":"SCALAR"
		}
	],
	"bufferViews":[
		{
			"buffer":0,
			"byteLength":264,
			"byteOffset":0,
			"target":34962
		},
		{
			"buffer":0,
			"byteLength":264,
			"byteOffset":264,
			"target":34962
		},
		{
			"buffer":0,
			"byteLength":176,
			"byteOffset":528,
			"target":34962
		},
		{
			"buffer":0,
			"byteLength":120,
			"byteOffset":704,
			"target":34963
		},
		{
			"buffer":0,
			"byteLength":119436,
			"byteOffset":824,
			"target":34962
		},
		{
			"buffer":0,
			"byteLength":119436,
			"byteOffset":120260,
			"target":34962
		},
		{
			"buffer":0,
			"byteLength":79624,
			"byteOffset":239696,
			"target":34962
		},
		{
			"buffer":0,
			"byteLength":22470,
			"byteOffset":319320,
			"target":34963
		}
	],
	"buffers":[
		{
			"byteLength":341792,
			"uri":"Portal_01-col.bin"
		}
	]
}
