{
	"asset":{
		"generator":"Khronos glTF Blender I/O v4.1.63",
		"version":"2.0"
	},
	"extensionsUsed":[
		"KHR_materials_specular"
	],
	"scene":0,
	"scenes":[
		{
			"extras":{
				"aad_props":{
					"distribute_pattern":1,
					"grid_2d":[
						20,
						20
					],
					"size_2d":[
						2.0,
						2.0
					]
				},
				"batch_export_preferences":{
					"_directory":"H:\\Year12Godot\\MyGame\\Models\\"
				},
				"gltf_batch_export_preferences":{
					"export_format":1,
					"export_image_format":0
				},
				"sourceFilename":"D:\\Assests .blend"
			},
			"name":"Scene",
			"nodes":[
				0
			]
		}
	],
	"nodes":[
		{
			"extras":{
				"MaxHandle":9846
			},
			"mesh":0,
			"name":"RockyBase-col"
		}
	],
	"materials":[
		{
			"doubleSided":true,
			"extensions":{
				"KHR_materials_specular":{
					"specularColorFactor":[
						2.0,
						2.0,
						2.0
					]
				}
			},
			"name":"Stone",
			"pbrMetallicRoughness":{
				"baseColorFactor":[
					0.11972673237323761,
					0.10733351111412048,
					0.09651663899421692,
					1
				],
				"metallicFactor":0,
				"roughnessFactor":0.5527864098548889
			}
		},
		{
			"doubleSided":true,
			"extensions":{
				"KHR_materials_specular":{
					"specularColorFactor":[
						2.0,
						2.0,
						2.0
					]
				}
			},
			"name":"House",
			"pbrMetallicRoughness":{
				"baseColorFactor":[
					0.17900711297988892,
					0.06027048081159592,
					0.009262277744710445,
					1
				],
				"metallicFactor":0,
				"roughnessFactor":0.5527864098548889
			}
		},
		{
			"doubleSided":true,
			"extensions":{
				"KHR_materials_specular":{
					"specularColorFactor":[
						2.0,
						2.0,
						2.0
					]
				}
			},
			"name":"Stairs",
			"pbrMetallicRoughness":{
				"baseColorFactor":[
					0.14345593750476837,
					0.04254614934325218,
					0.014692004770040512,
					1
				],
				"metallicFactor":0,
				"roughnessFactor":0.5527864098548889
			}
		},
		{
			"doubleSided":true,
			"extensions":{
				"KHR_materials_specular":{
					"specularColorFactor":[
						2.0,
						2.0,
						2.0
					]
				}
			},
			"name":"Fence",
			"pbrMetallicRoughness":{
				"baseColorFactor":[
					0.13526815176010132,
					0.056547701358795166,
					0.011144427582621574,
					1
				],
				"metallicFactor":0,
				"roughnessFactor":0.5527864098548889
			}
		},
		{
			"doubleSided":true,
			"extensions":{
				"KHR_materials_specular":{
					"specularColorFactor":[
						2.0,
						2.0,
						2.0
					]
				}
			},
			"name":"Grass.001",
			"pbrMetallicRoughness":{
				"baseColorFactor":[
					0.0382825993001461,
					0.2527117133140564,
					0.02410757727921009,
					1
				],
				"metallicFactor":0,
				"roughnessFactor":0.5527864098548889
			}
		}
	],
	"meshes":[
		{
			"name":"Mesh.006",
			"primitives":[
				{
					"attributes":{
						"POSITION":0,
						"NORMAL":1,
						"TEXCOORD_0":2
					},
					"indices":3,
					"material":0
				},
				{
					"attributes":{
						"POSITION":4,
						"NORMAL":5,
						"TEXCOORD_0":6
					},
					"indices":7,
					"material":1
				},
				{
					"attributes":{
						"POSITION":8,
						"NORMAL":9,
						"TEXCOORD_0":10
					},
					"indices":11,
					"material":2
				},
				{
					"attributes":{
						"POSITION":12,
						"NORMAL":13,
						"TEXCOORD_0":14
					},
					"indices":15,
					"material":3
				},
				{
					"attributes":{
						"POSITION":16,
						"NORMAL":17,
						"TEXCOORD_0":18
					},
					"indices":19,
					"material":4
				}
			]
		}
	],
	"accessors":[
		{
			"bufferView":0,
			"componentType":5126,
			"count":20889,
			"max":[
				1.775221824645996,
				0.6290087103843689,
				0.2523823380470276
			],
			"min":[
				-1.938246488571167,
				-2.116180419921875,
				-3.7230124473571777
			],
			"type":"VEC3"
		},
		{
			"bufferView":1,
			"componentType":5126,
			"count":20889,
			"type":"VEC3"
		},
		{
			"bufferView":2,
			"componentType":5126,
			"count":20889,
			"type":"VEC2"
		},
		{
			"bufferView":3,
			"componentType":5123,
			"count":75726,
			"type":"SCALAR"
		},
		{
			"bufferView":4,
			"componentType":5126,
			"count":96,
			"max":[
				0.9278841018676758,
				0.8649997115135193,
				-0.10768592357635498
			],
			"min":[
				-1.0851575136184692,
				0.45263445377349854,
				-2.1388275623321533
			],
			"type":"VEC3"
		},
		{
			"bufferView":5,
			"componentType":5126,
			"count":96,
			"type":"VEC3"
		},
		{
			"bufferView":6,
			"componentType":5126,
			"count":96,
			"type":"VEC2"
		},
		{
			"bufferView":7,
			"componentType":5123,
			"count":456,
			"type":"SCALAR"
		},
		{
			"bufferView":8,
			"componentType":5126,
			"count":11717,
			"max":[
				1.947047233581543,
				1.279555082321167,
				0.629857063293457
			],
			"min":[
				-2.5594186782836914,
				-1.4402704238891602,
				-3.884803295135498
			],
			"type":"VEC3"
		},
		{
			"bufferView":9,
			"componentType":5126,
			"count":11717,
			"type":"VEC3"
		},
		{
			"bufferView":10,
			"componentType":5126,
			"count":11717,
			"type":"VEC2"
		},
		{
			"bufferView":11,
			"componentType":5123,
			"count":40530,
			"type":"SCALAR"
		},
		{
			"bufferView":12,
			"componentType":5126,
			"count":959,
			"max":[
				1.2283480167388916,
				0.8676990866661072,
				-2.664235830307007
			],
			"min":[
				-0.4534549117088318,
				0.3989645540714264,
				-3.561723470687866
			],
			"type":"VEC3"
		},
		{
			"bufferView":13,
			"componentType":5126,
			"count":959,
			"type":"VEC3"
		},
		{
			"bufferView":14,
			"componentType":5126,
			"count":959,
			"type":"VEC2"
		},
		{
			"bufferView":15,
			"componentType":5123,
			"count":3966,
			"type":"SCALAR"
		},
		{
			"bufferView":16,
			"componentType":5126,
			"count":4443,
			"max":[
				1.576549768447876,
				0.6431734561920166,
				0.10809439420700073
			],
			"min":[
				-1.745082139968872,
				-0.037792354822158813,
				-3.3708248138427734
			],
			"type":"VEC3"
		},
		{
			"bufferView":17,
			"componentType":5126,
			"count":4443,
			"type":"VEC3"
		},
		{
			"bufferView":18,
			"componentType":5126,
			"count":4443,
			"type":"VEC2"
		},
		{
			"bufferView":19,
			"componentType":5123,
			"count":22401,
			"type":"SCALAR"
		}
	],
	"bufferViews":[
		{
			"buffer":0,
			"byteLength":250668,
			"byteOffset":0,
			"target":34962
		},
		{
			"buffer":0,
			"byteLength":250668,
			"byteOffset":250668,
			"target":34962
		},
		{
			"buffer":0,
			"byteLength":167112,
			"byteOffset":501336,
			"target":34962
		},
		{
			"buffer":0,
			"byteLength":151452,
			"byteOffset":668448,
			"target":34963
		},
		{
			"buffer":0,
			"byteLength":1152,
			"byteOffset":819900,
			"target":34962
		},
		{
			"buffer":0,
			"byteLength":1152,
			"byteOffset":821052,
			"target":34962
		},
		{
			"buffer":0,
			"byteLength":768,
			"byteOffset":822204,
			"target":34962
		},
		{
			"buffer":0,
			"byteLength":912,
			"byteOffset":822972,
			"target":34963
		},
		{
			"buffer":0,
			"byteLength":140604,
			"byteOffset":823884,
			"target":34962
		},
		{
			"buffer":0,
			"byteLength":140604,
			"byteOffset":964488,
			"target":34962
		},
		{
			"buffer":0,
			"byteLength":93736,
			"byteOffset":1105092,
			"target":34962
		},
		{
			"buffer":0,
			"byteLength":81060,
			"byteOffset":1198828,
			"target":34963
		},
		{
			"buffer":0,
			"byteLength":11508,
			"byteOffset":1279888,
			"target":34962
		},
		{
			"buffer":0,
			"byteLength":11508,
			"byteOffset":1291396,
			"target":34962
		},
		{
			"buffer":0,
			"byteLength":7672,
			"byteOffset":1302904,
			"target":34962
		},
		{
			"buffer":0,
			"byteLength":7932,
			"byteOffset":1310576,
			"target":34963
		},
		{
			"buffer":0,
			"byteLength":53316,
			"byteOffset":1318508,
			"target":34962
		},
		{
			"buffer":0,
			"byteLength":53316,
			"byteOffset":1371824,
			"target":34962
		},
		{
			"buffer":0,
			"byteLength":35544,
			"byteOffset":1425140,
			"target":34962
		},
		{
			"buffer":0,
			"byteLength":44802,
			"byteOffset":1460684,
			"target":34963
		}
	],
	"buffers":[
		{
			"byteLength":1505488,
			"uri":"RockyBase-col.bin"
		}
	]
}
