{
	"asset":{
		"generator":"Khronos glTF Blender I/O v4.1.63",
		"version":"2.0"
	},
	"scene":0,
	"scenes":[
		{
			"extras":{
				"aad_props":{
					"distribute_pattern":1,
					"grid_2d":[
						20,
						20
					],
					"size_2d":[
						2.0,
						2.0
					]
				},
				"batch_export_preferences":{
					"_directory":"H:\\Year12Godot\\MyGame\\Models\\"
				},
				"gltf_batch_export_preferences":{
					"export_format":1,
					"export_image_format":0
				},
				"sourceFilename":"D:\\Assests .blend"
			},
			"name":"Scene",
			"nodes":[
				8
			]
		}
	],
	"nodes":[
		{
			"mesh":0,
			"name":"schoolbus_1",
			"translation":[
				-160.03140258789062,
				-65.08340454101562,
				6.054773807525635
			]
		},
		{
			"mesh":1,
			"name":"schoolbus_2",
			"rotation":[
				0,
				-0.7071065306663513,
				0,
				0.7071070671081543
			],
			"scale":[
				1.6132888793945312,
				1.6132888793945312,
				1.6132888793945312
			],
			"translation":[
				-215.5961456298828,
				-38.42299270629883,
				-65.497802734375
			]
		},
		{
			"mesh":2,
			"name":"schoolbus_3",
			"rotation":[
				0.70710688829422,
				0,
				0,
				0.7071066498756409
			],
			"scale":[
				1.0494532585144043,
				1.0494532585144043,
				1.0494532585144043
			],
			"translation":[
				158.24179077148438,
				0,
				63.25529861450195
			]
		},
		{
			"mesh":3,
			"name":"schoolbus_4",
			"rotation":[
				0.70710688829422,
				0,
				0,
				0.7071066498756409
			],
			"scale":[
				1.0494532585144043,
				1.0494532585144043,
				1.0494532585144043
			],
			"translation":[
				-249.76205444335938,
				-62.72098922729492,
				63.25529861450195
			]
		},
		{
			"mesh":4,
			"name":"schoolbus_5",
			"rotation":[
				0.70710688829422,
				0,
				0,
				0.7071066498756409
			],
			"scale":[
				1.0494532585144043,
				1.0494532585144043,
				1.0494532585144043
			],
			"translation":[
				-249.76205444335938,
				62.720977783203125,
				63.25529861450195
			]
		},
		{
			"mesh":5,
			"name":"schoolbus_6",
			"rotation":[
				0,
				1,
				0,
				7.549790126404332e-08
			],
			"translation":[
				-204.8736114501953,
				-64.56439208984375,
				6.054773807525635
			]
		},
		{
			"mesh":6,
			"name":"schoolbus_7",
			"rotation":[
				-0.7071070671081543,
				0,
				-0.7071065306663513,
				5.338508657359853e-08
			],
			"scale":[
				1.6132888793945312,
				1.6132888793945312,
				1.6132888793945312
			],
			"translation":[
				282.8214416503906,
				0,
				-65.497802734375
			]
		},
		{
			"mesh":7,
			"name":"schoolbus_8",
			"rotation":[
				-0.70710688829422,
				0,
				-0.7071066498756409,
				5.338507946817117e-08
			],
			"scale":[
				1.4668586254119873,
				1.4668586254119873,
				1.4668586254119873
			],
			"translation":[
				284.9639587402344,
				0,
				7.430417060852051
			]
		},
		{
			"children":[
				0,
				1,
				2,
				3,
				4,
				5,
				6,
				7
			],
			"mesh":8,
			"name":"schoolbus"
		}
	],
	"materials":[
		{
			"doubleSided":true,
			"name":"normal .063",
			"pbrMetallicRoughness":{
				"baseColorTexture":{
					"index":0
				},
				"metallicFactor":0,
				"roughnessFactor":0.5
			}
		},
		{
			"doubleSided":true,
			"name":"emission",
			"pbrMetallicRoughness":{
				"baseColorFactor":[
					0.800000011920929,
					0.800000011920929,
					0.800000011920929,
					1
				],
				"metallicFactor":0,
				"roughnessFactor":0.4000000059604645
			}
		},
		{
			"doubleSided":true,
			"name":"fer.009",
			"pbrMetallicRoughness":{
				"baseColorTexture":{
					"index":1
				},
				"metallicFactor":0.5,
				"roughnessFactor":0.1666666567325592
			}
		}
	],
	"meshes":[
		{
			"name":"Cube.098",
			"primitives":[
				{
					"attributes":{
						"POSITION":0,
						"NORMAL":1,
						"TEXCOORD_0":2
					},
					"indices":3,
					"material":0
				}
			]
		},
		{
			"name":"Cylinder.055",
			"primitives":[
				{
					"attributes":{
						"POSITION":4,
						"NORMAL":5,
						"TEXCOORD_0":6
					},
					"indices":7,
					"material":1
				}
			]
		},
		{
			"name":"Cylinder.056",
			"primitives":[
				{
					"attributes":{
						"POSITION":8,
						"NORMAL":9,
						"TEXCOORD_0":10
					},
					"indices":11,
					"material":2
				},
				{
					"attributes":{
						"POSITION":12,
						"NORMAL":13,
						"TEXCOORD_0":14
					},
					"indices":15,
					"material":0
				}
			]
		},
		{
			"name":"Cylinder.057",
			"primitives":[
				{
					"attributes":{
						"POSITION":16,
						"NORMAL":17,
						"TEXCOORD_0":18
					},
					"indices":19,
					"material":2
				},
				{
					"attributes":{
						"POSITION":20,
						"NORMAL":21,
						"TEXCOORD_0":22
					},
					"indices":23,
					"material":0
				}
			]
		},
		{
			"name":"Cylinder.058",
			"primitives":[
				{
					"attributes":{
						"POSITION":24,
						"NORMAL":25,
						"TEXCOORD_0":26
					},
					"indices":27,
					"material":2
				},
				{
					"attributes":{
						"POSITION":28,
						"NORMAL":29,
						"TEXCOORD_0":30
					},
					"indices":31,
					"material":0
				}
			]
		},
		{
			"name":"Cube.099",
			"primitives":[
				{
					"attributes":{
						"POSITION":32,
						"NORMAL":33,
						"TEXCOORD_0":34
					},
					"indices":3,
					"material":0
				}
			]
		},
		{
			"name":"Cylinder.059",
			"primitives":[
				{
					"attributes":{
						"POSITION":35,
						"NORMAL":36,
						"TEXCOORD_0":37
					},
					"indices":7,
					"material":1
				}
			]
		},
		{
			"name":"Cylinder.060",
			"primitives":[
				{
					"attributes":{
						"POSITION":38,
						"NORMAL":39,
						"TEXCOORD_0":40
					},
					"indices":41,
					"material":1
				}
			]
		},
		{
			"name":"Cube.097",
			"primitives":[
				{
					"attributes":{
						"POSITION":42,
						"NORMAL":43,
						"TEXCOORD_0":44
					},
					"indices":45,
					"material":2
				},
				{
					"attributes":{
						"POSITION":46,
						"NORMAL":47,
						"TEXCOORD_0":48
					},
					"indices":49,
					"material":0
				},
				{
					"attributes":{
						"POSITION":50,
						"NORMAL":51,
						"TEXCOORD_0":52
					},
					"indices":53,
					"material":1
				}
			]
		}
	],
	"textures":[
		{
			"sampler":0,
			"source":0
		},
		{
			"sampler":0,
			"source":0
		}
	],
	"images":[
		{
			"mimeType":"image/png",
			"name":"ImphenziaPalette01-256-Gradient",
			"uri":"ImphenziaPalette01-256-Gradient.png"
		}
	],
	"accessors":[
		{
			"bufferView":0,
			"componentType":5126,
			"count":214,
			"max":[
				-3.725290298461914e-06,
				1.3576384782791138,
				62.65913391113281
			],
			"min":[
				-22.47852897644043,
				-2.2490060329437256,
				-62.65913391113281
			],
			"type":"VEC3"
		},
		{
			"bufferView":1,
			"componentType":5126,
			"count":214,
			"type":"VEC3"
		},
		{
			"bufferView":2,
			"componentType":5126,
			"count":214,
			"type":"VEC2"
		},
		{
			"bufferView":3,
			"componentType":5123,
			"count":384,
			"type":"SCALAR"
		},
		{
			"bufferView":4,
			"componentType":5126,
			"count":1092,
			"max":[
				3.6769516468048096,
				59.350341796875,
				1.9822057485580444
			],
			"min":[
				-3.676953077316284,
				-11.717218399047852,
				-1.452675223350525
			],
			"type":"VEC3"
		},
		{
			"bufferView":5,
			"componentType":5126,
			"count":1092,
			"type":"VEC3"
		},
		{
			"bufferView":6,
			"componentType":5126,
			"count":1092,
			"type":"VEC2"
		},
		{
			"bufferView":7,
			"componentType":5123,
			"count":3792,
			"type":"SCALAR"
		},
		{
			"bufferView":8,
			"componentType":5126,
			"count":10304,
			"max":[
				15.021149635314941,
				15.021154403686523,
				69.34939575195312
			],
			"min":[
				-15.021149635314941,
				-15.021149635314941,
				-69.34939575195312
			],
			"type":"VEC3"
		},
		{
			"bufferView":9,
			"componentType":5126,
			"count":10304,
			"type":"VEC3"
		},
		{
			"bufferView":10,
			"componentType":5126,
			"count":10304,
			"type":"VEC2"
		},
		{
			"bufferView":11,
			"componentType":5123,
			"count":22272,
			"type":"SCALAR"
		},
		{
			"bufferView":12,
			"componentType":5126,
			"count":12468,
			"max":[
				25.66880226135254,
				25.668806076049805,
				69.4005126953125
			],
			"min":[
				-25.66880226135254,
				-25.668806076049805,
				-69.4005126953125
			],
			"type":"VEC3"
		},
		{
			"bufferView":13,
			"componentType":5126,
			"count":12468,
			"type":"VEC3"
		},
		{
			"bufferView":14,
			"componentType":5126,
			"count":12468,
			"type":"VEC2"
		},
		{
			"bufferView":15,
			"componentType":5123,
			"count":39120,
			"type":"SCALAR"
		},
		{
			"bufferView":16,
			"componentType":5126,
			"count":2576,
			"max":[
				15.021149635314941,
				15.021151542663574,
				9.58399772644043
			],
			"min":[
				-15.021149635314941,
				-15.021148681640625,
				5.671472549438477
			],
			"type":"VEC3"
		},
		{
			"bufferView":17,
			"componentType":5126,
			"count":2576,
			"type":"VEC3"
		},
		{
			"bufferView":18,
			"componentType":5126,
			"count":2576,
			"type":"VEC2"
		},
		{
			"bufferView":19,
			"componentType":5123,
			"count":5568,
			"type":"SCALAR"
		},
		{
			"bufferView":20,
			"componentType":5126,
			"count":3117,
			"max":[
				25.66880226135254,
				25.66880226135254,
				9.635112762451172
			],
			"min":[
				-25.66880226135254,
				-25.66880226135254,
				-9.635112762451172
			],
			"type":"VEC3"
		},
		{
			"bufferView":21,
			"componentType":5126,
			"count":3117,
			"type":"VEC3"
		},
		{
			"bufferView":22,
			"componentType":5126,
			"count":3117,
			"type":"VEC2"
		},
		{
			"bufferView":23,
			"componentType":5123,
			"count":9780,
			"type":"SCALAR"
		},
		{
			"bufferView":24,
			"componentType":5126,
			"count":2576,
			"max":[
				15.021149635314941,
				15.021151542663574,
				-5.671477317810059
			],
			"min":[
				-15.021149635314941,
				-15.021148681640625,
				-9.58399772644043
			],
			"type":"VEC3"
		},
		{
			"bufferView":25,
			"componentType":5126,
			"count":2576,
			"type":"VEC3"
		},
		{
			"bufferView":26,
			"componentType":5126,
			"count":2576,
			"type":"VEC2"
		},
		{
			"bufferView":27,
			"componentType":5123,
			"count":5568,
			"type":"SCALAR"
		},
		{
			"bufferView":28,
			"componentType":5126,
			"count":3117,
			"max":[
				25.66880226135254,
				25.66880226135254,
				9.635114669799805
			],
			"min":[
				-25.66880226135254,
				-25.66880226135254,
				-9.635114669799805
			],
			"type":"VEC3"
		},
		{
			"bufferView":29,
			"componentType":5126,
			"count":3117,
			"type":"VEC3"
		},
		{
			"bufferView":30,
			"componentType":5126,
			"count":3117,
			"type":"VEC2"
		},
		{
			"bufferView":31,
			"componentType":5123,
			"count":9780,
			"type":"SCALAR"
		},
		{
			"bufferView":32,
			"componentType":5126,
			"count":214,
			"max":[
				-3.725290298461914e-06,
				1.3576384782791138,
				62.65913391113281
			],
			"min":[
				-22.47852897644043,
				-2.2490060329437256,
				-62.65913391113281
			],
			"type":"VEC3"
		},
		{
			"bufferView":33,
			"componentType":5126,
			"count":214,
			"type":"VEC3"
		},
		{
			"bufferView":34,
			"componentType":5126,
			"count":214,
			"type":"VEC2"
		},
		{
			"bufferView":35,
			"componentType":5126,
			"count":1092,
			"max":[
				3.676952362060547,
				35.53377914428711,
				1.7174403667449951
			],
			"min":[
				-3.676952362060547,
				-35.53377914428711,
				-1.7174403667449951
			],
			"type":"VEC3"
		},
		{
			"bufferView":36,
			"componentType":5126,
			"count":1092,
			"type":"VEC3"
		},
		{
			"bufferView":37,
			"componentType":5126,
			"count":1092,
			"type":"VEC2"
		},
		{
			"bufferView":38,
			"componentType":5126,
			"count":1736,
			"max":[
				3.6769516468048096,
				41.2742805480957,
				1.7174429893493652
			],
			"min":[
				-3.6769516468048096,
				-41.2742805480957,
				-1.7174429893493652
			],
			"type":"VEC3"
		},
		{
			"bufferView":39,
			"componentType":5126,
			"count":1736,
			"type":"VEC3"
		},
		{
			"bufferView":40,
			"componentType":5126,
			"count":1736,
			"type":"VEC2"
		},
		{
			"bufferView":41,
			"componentType":5123,
			"count":5688,
			"type":"SCALAR"
		},
		{
			"bufferView":42,
			"componentType":5126,
			"count":2794,
			"max":[
				282.3912048339844,
				68.48788452148438,
				72.09807586669922
			],
			"min":[
				-285.114013671875,
				-68.48788452148438,
				-72.09807586669922
			],
			"type":"VEC3"
		},
		{
			"bufferView":43,
			"componentType":5126,
			"count":2794,
			"type":"VEC3"
		},
		{
			"bufferView":44,
			"componentType":5126,
			"count":2794,
			"type":"VEC2"
		},
		{
			"bufferView":45,
			"componentType":5123,
			"count":9393,
			"type":"SCALAR"
		},
		{
			"bufferView":46,
			"componentType":5126,
			"count":8713,
			"max":[
				285.114013671875,
				76.5495376586914,
				65.08979797363281
			],
			"min":[
				-285.027587890625,
				-76.5495376586914,
				-71.36253356933594
			],
			"type":"VEC3"
		},
		{
			"bufferView":47,
			"componentType":5126,
			"count":8713,
			"type":"VEC3"
		},
		{
			"bufferView":48,
			"componentType":5126,
			"count":8713,
			"type":"VEC2"
		},
		{
			"bufferView":49,
			"componentType":5123,
			"count":24303,
			"type":"SCALAR"
		},
		{
			"bufferView":50,
			"componentType":5126,
			"count":280,
			"max":[
				-272.85003662109375,
				44.14585876464844,
				34.129146575927734
			],
			"min":[
				-280.6286315917969,
				-44.14585876464844,
				22.889745712280273
			],
			"type":"VEC3"
		},
		{
			"bufferView":51,
			"componentType":5126,
			"count":280,
			"type":"VEC3"
		},
		{
			"bufferView":52,
			"componentType":5126,
			"count":280,
			"type":"VEC2"
		},
		{
			"bufferView":53,
			"componentType":5123,
			"count":840,
			"type":"SCALAR"
		}
	],
	"bufferViews":[
		{
			"buffer":0,
			"byteLength":2568,
			"byteOffset":0,
			"target":34962
		},
		{
			"buffer":0,
			"byteLength":2568,
			"byteOffset":2568,
			"target":34962
		},
		{
			"buffer":0,
			"byteLength":1712,
			"byteOffset":5136,
			"target":34962
		},
		{
			"buffer":0,
			"byteLength":768,
			"byteOffset":6848,
			"target":34963
		},
		{
			"buffer":0,
			"byteLength":13104,
			"byteOffset":7616,
			"target":34962
		},
		{
			"buffer":0,
			"byteLength":13104,
			"byteOffset":20720,
			"target":34962
		},
		{
			"buffer":0,
			"byteLength":8736,
			"byteOffset":33824,
			"target":34962
		},
		{
			"buffer":0,
			"byteLength":7584,
			"byteOffset":42560,
			"target":34963
		},
		{
			"buffer":0,
			"byteLength":123648,
			"byteOffset":50144,
			"target":34962
		},
		{
			"buffer":0,
			"byteLength":123648,
			"byteOffset":173792,
			"target":34962
		},
		{
			"buffer":0,
			"byteLength":82432,
			"byteOffset":297440,
			"target":34962
		},
		{
			"buffer":0,
			"byteLength":44544,
			"byteOffset":379872,
			"target":34963
		},
		{
			"buffer":0,
			"byteLength":149616,
			"byteOffset":424416,
			"target":34962
		},
		{
			"buffer":0,
			"byteLength":149616,
			"byteOffset":574032,
			"target":34962
		},
		{
			"buffer":0,
			"byteLength":99744,
			"byteOffset":723648,
			"target":34962
		},
		{
			"buffer":0,
			"byteLength":78240,
			"byteOffset":823392,
			"target":34963
		},
		{
			"buffer":0,
			"byteLength":30912,
			"byteOffset":901632,
			"target":34962
		},
		{
			"buffer":0,
			"byteLength":30912,
			"byteOffset":932544,
			"target":34962
		},
		{
			"buffer":0,
			"byteLength":20608,
			"byteOffset":963456,
			"target":34962
		},
		{
			"buffer":0,
			"byteLength":11136,
			"byteOffset":984064,
			"target":34963
		},
		{
			"buffer":0,
			"byteLength":37404,
			"byteOffset":995200,
			"target":34962
		},
		{
			"buffer":0,
			"byteLength":37404,
			"byteOffset":1032604,
			"target":34962
		},
		{
			"buffer":0,
			"byteLength":24936,
			"byteOffset":1070008,
			"target":34962
		},
		{
			"buffer":0,
			"byteLength":19560,
			"byteOffset":1094944,
			"target":34963
		},
		{
			"buffer":0,
			"byteLength":30912,
			"byteOffset":1114504,
			"target":34962
		},
		{
			"buffer":0,
			"byteLength":30912,
			"byteOffset":1145416,
			"target":34962
		},
		{
			"buffer":0,
			"byteLength":20608,
			"byteOffset":1176328,
			"target":34962
		},
		{
			"buffer":0,
			"byteLength":11136,
			"byteOffset":1196936,
			"target":34963
		},
		{
			"buffer":0,
			"byteLength":37404,
			"byteOffset":1208072,
			"target":34962
		},
		{
			"buffer":0,
			"byteLength":37404,
			"byteOffset":1245476,
			"target":34962
		},
		{
			"buffer":0,
			"byteLength":24936,
			"byteOffset":1282880,
			"target":34962
		},
		{
			"buffer":0,
			"byteLength":19560,
			"byteOffset":1307816,
			"target":34963
		},
		{
			"buffer":0,
			"byteLength":2568,
			"byteOffset":1327376,
			"target":34962
		},
		{
			"buffer":0,
			"byteLength":2568,
			"byteOffset":1329944,
			"target":34962
		},
		{
			"buffer":0,
			"byteLength":1712,
			"byteOffset":1332512,
			"target":34962
		},
		{
			"buffer":0,
			"byteLength":13104,
			"byteOffset":1334224,
			"target":34962
		},
		{
			"buffer":0,
			"byteLength":13104,
			"byteOffset":1347328,
			"target":34962
		},
		{
			"buffer":0,
			"byteLength":8736,
			"byteOffset":1360432,
			"target":34962
		},
		{
			"buffer":0,
			"byteLength":20832,
			"byteOffset":1369168,
			"target":34962
		},
		{
			"buffer":0,
			"byteLength":20832,
			"byteOffset":1390000,
			"target":34962
		},
		{
			"buffer":0,
			"byteLength":13888,
			"byteOffset":1410832,
			"target":34962
		},
		{
			"buffer":0,
			"byteLength":11376,
			"byteOffset":1424720,
			"target":34963
		},
		{
			"buffer":0,
			"byteLength":33528,
			"byteOffset":1436096,
			"target":34962
		},
		{
			"buffer":0,
			"byteLength":33528,
			"byteOffset":1469624,
			"target":34962
		},
		{
			"buffer":0,
			"byteLength":22352,
			"byteOffset":1503152,
			"target":34962
		},
		{
			"buffer":0,
			"byteLength":18786,
			"byteOffset":1525504,
			"target":34963
		},
		{
			"buffer":0,
			"byteLength":104556,
			"byteOffset":1544292,
			"target":34962
		},
		{
			"buffer":0,
			"byteLength":104556,
			"byteOffset":1648848,
			"target":34962
		},
		{
			"buffer":0,
			"byteLength":69704,
			"byteOffset":1753404,
			"target":34962
		},
		{
			"buffer":0,
			"byteLength":48606,
			"byteOffset":1823108,
			"target":34963
		},
		{
			"buffer":0,
			"byteLength":3360,
			"byteOffset":1871716,
			"target":34962
		},
		{
			"buffer":0,
			"byteLength":3360,
			"byteOffset":1875076,
			"target":34962
		},
		{
			"buffer":0,
			"byteLength":2240,
			"byteOffset":1878436,
			"target":34962
		},
		{
			"buffer":0,
			"byteLength":1680,
			"byteOffset":1880676,
			"target":34963
		}
	],
	"samplers":[
		{
			"magFilter":9729,
			"minFilter":9987
		}
	],
	"buffers":[
		{
			"byteLength":1882356,
			"uri":"schoolbus.bin"
		}
	]
}
