{
	"asset":{
		"generator":"Khronos glTF Blender I/O v4.1.63",
		"version":"2.0"
	},
	"scene":0,
	"scenes":[
		{
			"extras":{
				"aad_props":{
					"distribute_pattern":1,
					"grid_2d":[
						20,
						20
					],
					"size_2d":[
						2.0,
						2.0
					]
				},
				"batch_export_preferences":{
					"_directory":"H:\\Year12Godot\\MyGame\\Models\\"
				},
				"gltf_batch_export_preferences":{
					"export_format":1,
					"export_image_format":0
				},
				"sourceFilename":"D:\\Assests .blend"
			},
			"name":"Scene",
			"nodes":[
				0
			]
		}
	],
	"nodes":[
		{
			"mesh":0,
			"name":"Ship-col"
		}
	],
	"meshes":[
		{
			"name":"Cube",
			"primitives":[
				{
					"attributes":{
						"POSITION":0,
						"NORMAL":1,
						"TEXCOORD_0":2
					},
					"indices":3
				}
			]
		}
	],
	"accessors":[
		{
			"bufferView":0,
			"componentType":5126,
			"count":14383,
			"max":[
				1.6803407669067383,
				5.99342155456543,
				5.361273288726807
			],
			"min":[
				-1.6803407669067383,
				-1.0865792036056519,
				-4.261427879333496
			],
			"type":"VEC3"
		},
		{
			"bufferView":1,
			"componentType":5126,
			"count":14383,
			"type":"VEC3"
		},
		{
			"bufferView":2,
			"componentType":5126,
			"count":14383,
			"type":"VEC2"
		},
		{
			"bufferView":3,
			"componentType":5123,
			"count":29256,
			"type":"SCALAR"
		}
	],
	"bufferViews":[
		{
			"buffer":0,
			"byteLength":172596,
			"byteOffset":0,
			"target":34962
		},
		{
			"buffer":0,
			"byteLength":172596,
			"byteOffset":172596,
			"target":34962
		},
		{
			"buffer":0,
			"byteLength":115064,
			"byteOffset":345192,
			"target":34962
		},
		{
			"buffer":0,
			"byteLength":58512,
			"byteOffset":460256,
			"target":34963
		}
	],
	"buffers":[
		{
			"byteLength":518768,
			"uri":"Ship-col.bin"
		}
	]
}
