{
	"asset":{
		"generator":"Khronos glTF Blender I/O v4.1.63",
		"version":"2.0"
	},
	"scene":0,
	"scenes":[
		{
			"extras":{
				"aad_props":{
					"distribute_pattern":1,
					"grid_2d":[
						20,
						20
					],
					"size_2d":[
						2.0,
						2.0
					]
				},
				"batch_export_preferences":{
					"_directory":"H:\\Year12Godot\\MyGame\\Models\\"
				},
				"gltf_batch_export_preferences":{
					"export_format":1,
					"export_image_format":0
				},
				"sourceFilename":"D:\\Assests .blend"
			},
			"name":"Scene",
			"nodes":[
				0
			]
		}
	],
	"nodes":[
		{
			"mesh":0,
			"name":"Sign-col"
		}
	],
	"materials":[
		{
			"doubleSided":true,
			"name":"SignMat",
			"pbrMetallicRoughness":{
				"metallicFactor":0,
				"roughnessFactor":0.5
			}
		},
		{
			"doubleSided":true,
			"name":"Material",
			"pbrMetallicRoughness":{
				"baseColorFactor":[
					0.1519242227077484,
					0.05509862303733826,
					0.016525736078619957,
					1
				],
				"metallicFactor":0,
				"roughnessFactor":0.5
			}
		},
		{
			"doubleSided":true,
			"name":"Material.001",
			"pbrMetallicRoughness":{
				"baseColorFactor":[
					0.6771664619445801,
					0.4098612070083618,
					0.13143646717071533,
					1
				],
				"metallicFactor":0,
				"roughnessFactor":0.5
			}
		},
		{
			"doubleSided":true,
			"name":"Material.002",
			"pbrMetallicRoughness":{
				"baseColorFactor":[
					0.13932576775550842,
					0.04622868821024895,
					0.003212186275050044,
					1
				],
				"metallicFactor":0,
				"roughnessFactor":0.5
			}
		}
	],
	"meshes":[
		{
			"name":"Sign",
			"primitives":[
				{
					"attributes":{
						"POSITION":0,
						"NORMAL":1,
						"TEXCOORD_0":2
					},
					"indices":3,
					"material":0
				},
				{
					"attributes":{
						"POSITION":4,
						"NORMAL":5,
						"TEXCOORD_0":6
					},
					"indices":7,
					"material":1
				},
				{
					"attributes":{
						"POSITION":8,
						"NORMAL":9,
						"TEXCOORD_0":10
					},
					"indices":11,
					"material":2
				},
				{
					"attributes":{
						"POSITION":12,
						"NORMAL":13,
						"TEXCOORD_0":14
					},
					"indices":15,
					"material":3
				}
			]
		}
	],
	"accessors":[
		{
			"bufferView":0,
			"componentType":5126,
			"count":160,
			"max":[
				1.9048192501068115,
				3.588261604309082,
				0.13852959871292114
			],
			"min":[
				0.9392249584197998,
				2.7429349422454834,
				-0.15354962646961212
			],
			"type":"VEC3"
		},
		{
			"bufferView":1,
			"componentType":5126,
			"count":160,
			"type":"VEC3"
		},
		{
			"bufferView":2,
			"componentType":5126,
			"count":160,
			"type":"VEC2"
		},
		{
			"bufferView":3,
			"componentType":5123,
			"count":318,
			"type":"SCALAR"
		},
		{
			"bufferView":4,
			"componentType":5126,
			"count":325,
			"max":[
				2.4422616958618164,
				4.267622470855713,
				0.20793341100215912
			],
			"min":[
				-0.37242254614830017,
				0,
				-0.2299867421388626
			],
			"type":"VEC3"
		},
		{
			"bufferView":5,
			"componentType":5126,
			"count":325,
			"type":"VEC3"
		},
		{
			"bufferView":6,
			"componentType":5126,
			"count":325,
			"type":"VEC2"
		},
		{
			"bufferView":7,
			"componentType":5123,
			"count":918,
			"type":"SCALAR"
		},
		{
			"bufferView":8,
			"componentType":5126,
			"count":1955,
			"max":[
				1.9188683032989502,
				3.6740870475769043,
				0.1883387267589569
			],
			"min":[
				0.8879847526550293,
				2.735535144805908,
				-0.2020195573568344
			],
			"type":"VEC3"
		},
		{
			"bufferView":9,
			"componentType":5126,
			"count":1955,
			"type":"VEC3"
		},
		{
			"bufferView":10,
			"componentType":5126,
			"count":1955,
			"type":"VEC2"
		},
		{
			"bufferView":11,
			"componentType":5123,
			"count":5334,
			"type":"SCALAR"
		},
		{
			"bufferView":12,
			"componentType":5126,
			"count":116,
			"max":[
				2.200000047683716,
				2.999999761581421,
				0.09999997168779373
			],
			"min":[
				0.5999999642372131,
				1.7999998331069946,
				-0.09999992698431015
			],
			"type":"VEC3"
		},
		{
			"bufferView":13,
			"componentType":5126,
			"count":116,
			"type":"VEC3"
		},
		{
			"bufferView":14,
			"componentType":5126,
			"count":116,
			"type":"VEC2"
		},
		{
			"bufferView":15,
			"componentType":5123,
			"count":372,
			"type":"SCALAR"
		}
	],
	"bufferViews":[
		{
			"buffer":0,
			"byteLength":1920,
			"byteOffset":0,
			"target":34962
		},
		{
			"buffer":0,
			"byteLength":1920,
			"byteOffset":1920,
			"target":34962
		},
		{
			"buffer":0,
			"byteLength":1280,
			"byteOffset":3840,
			"target":34962
		},
		{
			"buffer":0,
			"byteLength":636,
			"byteOffset":5120,
			"target":34963
		},
		{
			"buffer":0,
			"byteLength":3900,
			"byteOffset":5756,
			"target":34962
		},
		{
			"buffer":0,
			"byteLength":3900,
			"byteOffset":9656,
			"target":34962
		},
		{
			"buffer":0,
			"byteLength":2600,
			"byteOffset":13556,
			"target":34962
		},
		{
			"buffer":0,
			"byteLength":1836,
			"byteOffset":16156,
			"target":34963
		},
		{
			"buffer":0,
			"byteLength":23460,
			"byteOffset":17992,
			"target":34962
		},
		{
			"buffer":0,
			"byteLength":23460,
			"byteOffset":41452,
			"target":34962
		},
		{
			"buffer":0,
			"byteLength":15640,
			"byteOffset":64912,
			"target":34962
		},
		{
			"buffer":0,
			"byteLength":10668,
			"byteOffset":80552,
			"target":34963
		},
		{
			"buffer":0,
			"byteLength":1392,
			"byteOffset":91220,
			"target":34962
		},
		{
			"buffer":0,
			"byteLength":1392,
			"byteOffset":92612,
			"target":34962
		},
		{
			"buffer":0,
			"byteLength":928,
			"byteOffset":94004,
			"target":34962
		},
		{
			"buffer":0,
			"byteLength":744,
			"byteOffset":94932,
			"target":34963
		}
	],
	"buffers":[
		{
			"byteLength":95676,
			"uri":"Sign-col.bin"
		}
	]
}
