{
	"asset":{
		"generator":"Khronos glTF Blender I/O v4.1.63",
		"version":"2.0"
	},
	"scene":0,
	"scenes":[
		{
			"extras":{
				"aad_props":{
					"distribute_pattern":1,
					"grid_2d":[
						20,
						20
					],
					"size_2d":[
						2.0,
						2.0
					]
				},
				"batch_export_preferences":{
					"_directory":"H:\\Year12Godot\\MyGame\\Models\\"
				},
				"gltf_batch_export_preferences":{
					"export_format":1,
					"export_image_format":0
				},
				"sourceFilename":"D:\\Assests .blend"
			},
			"name":"Scene",
			"nodes":[
				0
			]
		}
	],
	"nodes":[
		{
			"mesh":0,
			"name":"Text"
		}
	],
	"materials":[
		{
			"doubleSided":true,
			"name":"Material.003",
			"pbrMetallicRoughness":{
				"baseColorFactor":[
					0,
					0,
					0,
					1
				],
				"metallicFactor":0,
				"roughnessFactor":0.5
			}
		}
	],
	"meshes":[
		{
			"name":"Text",
			"primitives":[
				{
					"attributes":{
						"POSITION":0,
						"NORMAL":1,
						"TEXCOORD_0":2
					},
					"indices":3,
					"material":0
				}
			]
		}
	],
	"accessors":[
		{
			"bufferView":0,
			"componentType":5126,
			"count":8778,
			"max":[
				3.7128405570983887,
				0,
				1.2000000476837158
			],
			"min":[
				-0.09066148102283478,
				0,
				-0.5178988575935364
			],
			"type":"VEC3"
		},
		{
			"bufferView":1,
			"componentType":5126,
			"count":8778,
			"type":"VEC3"
		},
		{
			"bufferView":2,
			"componentType":5126,
			"count":8778,
			"type":"VEC2"
		},
		{
			"bufferView":3,
			"componentType":5123,
			"count":26280,
			"type":"SCALAR"
		}
	],
	"bufferViews":[
		{
			"buffer":0,
			"byteLength":105336,
			"byteOffset":0,
			"target":34962
		},
		{
			"buffer":0,
			"byteLength":105336,
			"byteOffset":105336,
			"target":34962
		},
		{
			"buffer":0,
			"byteLength":70224,
			"byteOffset":210672,
			"target":34962
		},
		{
			"buffer":0,
			"byteLength":52560,
			"byteOffset":280896,
			"target":34963
		}
	],
	"buffers":[
		{
			"byteLength":333456,
			"uri":"Text.bin"
		}
	]
}
